<?xml version="1.0" standalone="no"?>
<!DOCTYPE svg PUBLIC "-//W3C//DTD SVG 1.1//EN" "http://www.w3.org/Graphics/SVG/1.1/DTD/svg11.dtd" >
<svg xmlns="http://www.w3.org/2000/svg" xmlns:xlink="http://www.w3.org/1999/xlink" version="1.1">
<metadata>
Created by FontForge 20150318 at Wed Aug 12 09:45:12 2015
 By uniteet7
Copyright (c) 2011 Fabian Leuenberger and EuropaType. All rights reserved. This Font Software may not be reproduced, modified, disclosed or transferred without the express written approval of EuropaType. EUROPA is a trademark of EuropaType and may be registered in certain jurisdictions. This Font Software is original artwork of Fabian Leuenberger and EuropaType. The design may be protected in certain jurisdictions.
</metadata>
<defs>
<font id="EuropaBoldItalic" horiz-adv-x="580" >
  <font-face 
    font-family="EuropaBoldItalic"
    font-weight="700"
    font-style="italic"
    font-stretch="normal"
    units-per-em="1000"
    panose-1="2 0 0 0 0 0 0 0 0 0"
    ascent="782"
    descent="-218"
    x-height="474"
    cap-height="700"
    bbox="-178 -276 1159 1038"
    underline-thickness="38"
    underline-position="-39"
    unicode-range="U+0020-FB04"
  />
<missing-glyph horiz-adv-x="600" 
d="M36 0l123 700h528l-123 -700h-528zM221 628l-98 -556h378l98 556h-378zM378 375q22 14 34 27.5t12 35.5q0 17 -13 28.5t-34 11.5q-23 0 -40 -13t-23 -26l-5 -13l-54 26q1 4 4 9.5t13 20.5t22.5 26.5t35 21t47.5 9.5q50 0 81 -27t31 -74q0 -34 -18.5 -58t-59.5 -50
q-23 -14 -26 -35l-5 -27h-64l7 39q4 27 12.5 37t42.5 31zM291 194q0 17 12.5 29.5t29.5 12.5t29.5 -12.5t12.5 -29.5q0 -18 -12.5 -30.5t-29.5 -12.5t-29.5 12.5t-12.5 30.5z" />
    <glyph glyph-name="ffj" unicode="ffj" horiz-adv-x="860" 
d="M80 368l19 106h94l20 111q15 86 76 134.5t147 48.5q87 0 137 -48q68 48 141 48q96 0 143 -49.5t35 -117.5l-2 -11q-4 -25 -25.5 -42t-46.5 -17t-38.5 17t-9.5 42l1 7q5 28 -13.5 45.5t-52.5 17.5q-33 0 -61 -22t-35 -63l-18 -101h92l-19 -106h-92l-64 -368h-120l105 597
q5 28 -13.5 45.5t-52.5 17.5q-33 0 -61 -22t-35 -63l-18 -101h97l-19 -106h-97l-64 -368h-120l64 368h-94zM460 -211l47 103q28 -21 62 -21q18 0 32.5 4t33 27.5t25.5 65.5l89 506h120l-91 -517q-10 -55 -32 -96t-51 -62.5t-59 -31t-62 -9.5q-33 0 -61.5 8t-40.5 16z" />
    <glyph glyph-name="fft" unicode="fft" horiz-adv-x="1001" 
d="M322 572l-17 -98h192l20 112q17 94 73 138t123 44q34 0 62 -6.5t39 -13.5l11 -6l-51 -103q-21 17 -58 17q-28 0 -51 -20.5t-31 -63.5l-17 -98h166l23 129h120l-23 -129h143l-19 -106h-143l-35 -198q-12 -70 51 -70q12 0 25 4t20 8l7 5l34 -100q-48 -29 -117 -29
q-70 0 -112 49.5t-29 123.5l36 207h-166l-64 -368h-120l64 368h-192l-64 -368h-120l64 368h-94l19 106h94l20 112q17 94 73 138t123 44q34 0 62 -6.5t39 -13.5l11 -6l-51 -103q-21 17 -58 17q-28 0 -51 -20.5t-31 -63.5z" />
    <glyph glyph-name="ff" unicode="ff" horiz-adv-x="691" 
d="M330 572l-17 -98h192l20 112q17 94 73 138t123 44q34 0 62.5 -6.5t40.5 -13.5l11 -6l-51 -103q-23 17 -60 17q-28 0 -51 -20.5t-31 -63.5l-17 -98h120l-19 -106h-120l-64 -368h-120l64 368h-192l-64 -368h-120l64 368h-94l19 106h94l20 112q17 94 73 138t123 44
q34 0 62.5 -6.5t40.5 -13.5l11 -6l-51 -103q-23 17 -60 17q-28 0 -51 -20.5t-31 -63.5z" />
    <glyph glyph-name="fi" unicode="fi" horiz-adv-x="582" 
d="M80 368l19 106h94l20 111q15 87 75 135t149 48q96 0 142.5 -49.5t34.5 -117.5l-2 -11q-4 -25 -25.5 -42t-46.5 -17t-38.5 17t-9.5 42l1 7q4 27 -16.5 45t-54.5 18q-32 0 -58 -22t-33 -63l-18 -101h97l-19 -106h-97l-64 -368h-120l64 368h-94zM388 0l83 474h120l-83 -474
h-120z" />
    <glyph glyph-name="fl" unicode="fl" horiz-adv-x="583" 
d="M389 0l101 575q7 41 -14 63t-54 22q-32 0 -58.5 -22t-33.5 -63l-18 -101h97l-19 -106h-97l-64 -368h-120l64 368h-93l19 106h93l20 111q15 87 74.5 135t148.5 48q90 0 140.5 -51t35.5 -137l-102 -580h-120z" />
    <glyph glyph-name="ffi" unicode="ffi" horiz-adv-x="860" 
d="M388 0l104 590l1 7q4 28 -15.5 45.5t-53.5 17.5q-33 0 -59.5 -22t-33.5 -63l-18 -101h95l-19 -106h-95l-64 -368h-120l64 368h-94l19 106h94l20 111q15 86 76 134.5t147 48.5q92 0 138 -46q63 46 145 46q93 0 139 -50t34 -117l-2 -11q-4 -25 -25.5 -42t-46.5 -17
t-38.5 17t-9.5 42l1 7q4 27 -17 45t-55 18q-32 0 -57.5 -22t-32.5 -63l-18 -101h97l-19 -106h-97l-64 -368h-120zM666 0l83 474h120l-83 -474h-120z" />
    <glyph glyph-name="ffl" unicode="ffl" horiz-adv-x="853" 
d="M659 0l101 575q7 41 -14 63t-54 22q-32 0 -58.5 -22t-33.5 -63l-18 -101h97l-19 -106h-97l-64 -368h-120l64 368h-158l-64 -368h-120l64 368h-85l19 106h85l20 111q15 87 74.5 135t148.5 48q91 0 137 -46q63 46 142 46q87 0 138.5 -51.5t36.5 -136.5l-102 -580h-120z
M304 474h158l22 123q5 27 -16 45t-55 18q-32 0 -58 -22t-33 -63z" />
    <glyph glyph-name=".notdef" horiz-adv-x="600" 
d="M36 0l123 700h528l-123 -700h-528zM221 628l-98 -556h378l98 556h-378zM378 375q22 14 34 27.5t12 35.5q0 17 -13 28.5t-34 11.5q-23 0 -40 -13t-23 -26l-5 -13l-54 26q1 4 4 9.5t13 20.5t22.5 26.5t35 21t47.5 9.5q50 0 81 -27t31 -74q0 -34 -18.5 -58t-59.5 -50
q-23 -14 -26 -35l-5 -27h-64l7 39q4 27 12.5 37t42.5 31zM291 194q0 17 12.5 29.5t29.5 12.5t29.5 -12.5t12.5 -29.5q0 -18 -12.5 -30.5t-29.5 -12.5t-29.5 12.5t-12.5 30.5z" />
    <glyph glyph-name=".null" horiz-adv-x="0" 
 />
    <glyph glyph-name="nonmarkingreturn" horiz-adv-x="333" 
 />
    <glyph glyph-name="space" unicode=" " horiz-adv-x="294" 
 />
    <glyph glyph-name="exclam" unicode="!" horiz-adv-x="306" 
d="M338 700l-93 -500h-114l83 500h124zM90 67q0 33 23 56t56 23t56 -23t23 -56t-23 -56t-56 -23t-56 23t-23 56z" />
    <glyph glyph-name="quotedbl" unicode="&#x22;" horiz-adv-x="400" 
d="M139 452l44 248h106l-44 -248h-106zM313 452l44 248h106l-44 -248h-106z" />
    <glyph glyph-name="numbersign" unicode="#" horiz-adv-x="634" 
d="M675 418h-128l-38 -120h115l-15 -88h-128l-73 -233l-84 24l66 209h-107l-73 -233l-84 24l66 209h-116l15 88h129l38 120h-116l16 88h128l69 217l83 -24l-61 -193h107l69 217l83 -24l-61 -193h116zM349 418l-38 -120h107l38 120h-107z" />
    <glyph glyph-name="dollar" unicode="$" 
d="M254 -94l15 85q-39 6 -74.5 22t-58.5 34.5t-40.5 36.5t-25.5 30l-8 12l90 82q6 -10 17 -25.5t46.5 -44t73.5 -34.5l34 195q-76 31 -122 77t-46 123q0 80 68.5 145.5t172.5 67.5l15 82h63l-16 -87q34 -6 64.5 -19t49.5 -27.5t33.5 -28t20.5 -22.5l6 -9l-84 -79
q-5 6 -14 15.5t-37.5 29t-58.5 27.5l-34 -193l9 -3q79 -33 120.5 -75.5t41.5 -119.5q0 -96 -71.5 -152t-172.5 -62l-14 -83h-63zM451 200q0 28 -16.5 45t-52.5 32l-30 -172q42 8 70.5 31.5t28.5 63.5zM279 499q0 -26 16 -42t51 -32l30 170q-42 -7 -69.5 -33.5t-27.5 -62.5z
" />
    <glyph glyph-name="percent" unicode="%" horiz-adv-x="712" 
d="M577 306q71 0 110 -42t39 -102q0 -68 -56 -121t-121 -53q-71 0 -110 42t-39 102q0 68 56 121t121 53zM549 65q41 0 69 28.5t28 68.5q0 30 -19 48.5t-50 18.5q-42 0 -69.5 -28.5t-27.5 -68.5q0 -30 18.5 -48.5t50.5 -18.5zM285 712q71 0 110 -42t39 -102q0 -68 -56 -121
t-121 -53q-71 0 -110 42t-39 102q0 68 56 121t121 53zM257 471q41 0 69 28.5t28 68.5q0 30 -19 48.5t-50 18.5q-42 0 -69.5 -28.5t-27.5 -68.5q0 -30 18.5 -48.5t50.5 -18.5zM90 9l597 724l51 -44l-598 -724z" />
    <glyph glyph-name="ampersand" unicode="&#x26;" horiz-adv-x="695" 
d="M574 384h117q-9 -67 -28.5 -121.5t-34.5 -74.5l-15 -21l94 -97l-83 -80l-85 90q-44 -41 -110 -66.5t-125 -25.5q-103 0 -163 47.5t-60 118.5q0 64 47 115t128 105q-38 44 -54 76.5t-16 69.5q0 80 62.5 136t140.5 56q75 0 129 -43t54 -114q0 -57 -35.5 -101.5
t-107.5 -94.5l105 -110q26 30 40 135zM304 98q43 0 86 17.5t73 43.5l-133 138q-4 -3 -25 -17t-34.5 -24.5t-31 -26t-26.5 -31.5t-9 -32q0 -31 29.5 -49.5t70.5 -18.5zM389 602q-37 0 -62 -22.5t-25 -57.5q0 -5 1 -10.5t2.5 -10t5 -10t6 -9.5t8.5 -11l9 -10.5t11 -13
t12 -13.5q4 3 21.5 15t27 20t22.5 21t19 26.5t6 28.5q0 26 -19.5 41.5t-44.5 15.5z" />
    <glyph glyph-name="quotesingle" unicode="'" horiz-adv-x="186" 
d="M120 454l43 246h106l-43 -246h-106z" />
    <glyph glyph-name="parenleft" unicode="(" horiz-adv-x="312" 
d="M329 759l88 -71q-93 -102 -151 -234.5t-58 -271.5q0 -76 16.5 -149t33.5 -108l16 -35l-103 -60l-8.5 17t-20 47t-25 74t-19.5 95t-9 114q0 158 64 307t176 275z" />
    <glyph glyph-name="parenright" unicode=")" horiz-adv-x="312" 
d="M86 -170l-88 71q93 102 151 234.5t58 271.5q0 76 -16.5 149t-32.5 108l-17 35l103 60l8.5 -17t20 -47t25 -74t19.5 -95t9 -114q0 -158 -64 -307t-176 -275z" />
    <glyph glyph-name="asterisk" unicode="*" horiz-adv-x="398" 
d="M284 453l-92 -105l-64 55l91 99l-113 39l31 82l121 -43l23 132h86l-23 -132l126 39l20 -82l-134 -40l60 -99l-74 -47z" />
    <glyph glyph-name="plus" unicode="+" horiz-adv-x="520" 
d="M550 302l-20 -112h-177l-33 -190h-120l33 190h-177l20 112h177l32 184h120l-32 -184h177z" />
    <glyph glyph-name="comma" unicode="," horiz-adv-x="241" 
d="M116 102l93 -46l-128 -233l-85 43z" />
    <glyph glyph-name="hyphen" unicode="-" horiz-adv-x="333" 
d="M66 190l20 114h267l-20 -114h-267z" />
    <glyph glyph-name="period" unicode="." horiz-adv-x="262" 
d="M63 67q0 33 23 56t56 23t56 -23t23 -56t-23 -56t-56 -23t-56 23t-23 56z" />
    <glyph glyph-name="slash" unicode="/" horiz-adv-x="520" 
d="M636 751l-558 -898l-90 55l558 898z" />
    <glyph glyph-name="zero" unicode="0" horiz-adv-x="606" 
d="M409 712q118 0 173 -74t55 -198q0 -78 -21.5 -156.5t-60 -145t-100 -108.5t-134.5 -42q-118 0 -173.5 74.5t-55.5 199.5q0 78 22 156.5t61 144.5t100.5 107.5t133.5 41.5zM321 100q58 0 104 56t68.5 132.5t22.5 151.5q0 73 -27 116.5t-80 43.5q-59 0 -105 -55.5
t-68.5 -131.5t-22.5 -151q0 -74 27 -118t81 -44z" />
    <glyph glyph-name="one" unicode="1" horiz-adv-x="444" 
d="M99 532l241 168h111l-123 -700h-120l95 540l-141 -98z" />
    <glyph glyph-name="two" unicode="2" horiz-adv-x="555" 
d="M40 0l314 326q3 4 20.5 22t23.5 24.5t20 23t19.5 27.5t14 27t11.5 31.5t3 31.5q0 37 -25 62t-67 25q-29 0 -54 -10.5t-40 -25.5t-25.5 -30t-14.5 -26l-4 -10l-105 43q2 7 7 18.5t24.5 41t44.5 52t69.5 41t97.5 18.5q108 0 161.5 -59t53.5 -140q0 -96 -86 -190l-197 -209
h215l-20 -114h-461z" />
    <glyph glyph-name="three" unicode="3" horiz-adv-x="570" 
d="M323 404q59 0 104.5 29t45.5 86q0 36 -27.5 58.5t-69.5 22.5q-25 0 -47 -9t-36 -21t-24.5 -24.5t-14.5 -21.5l-5 -9l-99 52q3 6 8 15.5t25 34.5t43.5 44.5t64 35t85.5 15.5q97 0 158.5 -52t61.5 -141q0 -108 -110 -166q3 -1 8 -4t18.5 -13.5t23.5 -24.5t18 -39.5t8 -55.5
q0 -105 -81 -166.5t-182 -61.5q-50 0 -93 16t-68 38.5t-43 45.5t-25 39l-7 16l99 61q1 -4 4 -11t14.5 -25t25.5 -32t39 -25t54 -11q55 0 98 30.5t43 85.5q0 78 -125 78h-35l20 110h23z" />
    <glyph glyph-name="four" unicode="4" horiz-adv-x="593" 
d="M22 152l453 548h134l-77 -436h87l-20 -112h-87l-26 -152h-120l26 152h-370zM243 264h171l47 265z" />
    <glyph glyph-name="five" unicode="5" horiz-adv-x="585" 
d="M587 256q0 -115 -80 -191.5t-197 -76.5q-52 0 -95.5 16t-68.5 38.5t-42.5 45.5t-23.5 39l-6 16l101 61q1 -4 4.5 -11t15 -25t25.5 -32t38 -25t52 -11q64 0 108.5 45t44.5 111q0 46 -36 75t-102 29q-42 0 -90.5 -19.5t-76.5 -38.5l-28 -20l73 418h434l-20 -114h-314
l-22 -127q30 11 90 11q102 0 159 -58t57 -156z" />
    <glyph glyph-name="six" unicode="6" horiz-adv-x="564" 
d="M510 663l-162 -204q15 3 26 3q88 0 143 -62.5t55 -148.5q0 -108 -82 -185.5t-189 -77.5q-113 0 -170 62.5t-57 149.5q0 79 74 184l270 349zM342 350q-59 0 -102 -44.5t-43 -105.5q0 -46 30 -73t77 -27q59 0 102 44t43 107q0 45 -30 72t-77 27z" />
    <glyph glyph-name="seven" unicode="7" horiz-adv-x="526" 
d="M139 586l20 114h500l-503 -724l-95 64l381 546h-303z" />
    <glyph glyph-name="eight" unicode="8" horiz-adv-x="576" 
d="M394 712q100 0 153.5 -50.5t53.5 -134.5q0 -52 -31.5 -97t-72.5 -62q3 -1 7.5 -3.5t16.5 -13.5t21.5 -25t17 -40t7.5 -58q0 -104 -77.5 -172t-184.5 -68q-117 0 -171 57.5t-54 142.5q0 59 34.5 110t92.5 75q-6 5 -14.5 14.5t-23 40.5t-14.5 64q0 91 69 155.5t170 64.5z
M305 98q55 0 97.5 37t42.5 93q0 38 -26.5 63t-75.5 25q-55 0 -97.5 -36t-42.5 -92q0 -39 26.5 -64.5t75.5 -25.5zM361 416q47 0 83 32t36 79q0 35 -24 55t-62 20q-46 0 -83 -31.5t-37 -78.5q0 -35 24.5 -55.5t62.5 -20.5z" />
    <glyph glyph-name="nine" unicode="9" horiz-adv-x="564" 
d="M180 43l158 199q-15 -3 -26 -3q-81 0 -139.5 60t-58.5 151q0 108 82 185.5t189 77.5q114 0 170.5 -62.5t56.5 -149.5q0 -79 -74 -184l-266 -344zM344 351q59 0 102 44.5t43 105.5q0 46 -30 73t-77 27q-59 0 -102 -44t-43 -107q0 -45 30 -72t77 -27z" />
    <glyph glyph-name="colon" unicode=":" horiz-adv-x="274" 
d="M69 67q0 33 23 56t56 23t56 -23t23 -56t-23 -56t-56 -23t-56 23t-23 56zM129 407q0 33 23 56t56 23t56 -23t23 -56t-23 -56t-56 -23t-56 23t-23 56z" />
    <glyph glyph-name="semicolon" unicode=";" horiz-adv-x="243" 
d="M114 406q0 33 23 56t56 23t56 -23t23 -56t-23 -56t-56 -23t-56 23t-23 56zM116 102l93 -46l-128 -233l-85 43z" />
    <glyph glyph-name="less" unicode="&#x3c;" horiz-adv-x="520" 
d="M56 221l18 100l497 197l-22 -128l-330 -124l286 -125l-21 -118z" />
    <glyph glyph-name="equal" unicode="=" horiz-adv-x="520" 
d="M65 116l19 110h430l-19 -110h-430zM98 302l19 110h430l-19 -110h-430z" />
    <glyph glyph-name="greater" unicode="&#x3e;" horiz-adv-x="520" 
d="M562 321l-18 -100l-496 -198l22 128l326 125l-282 124l21 118z" />
    <glyph glyph-name="question" unicode="?" horiz-adv-x="489" 
d="M334 407q42 25 64 51t22 67q0 31 -23.5 52t-61.5 21q-27 0 -50 -10t-37 -24t-24 -28t-14 -24l-4 -10l-101 49q2 7 7.5 17.5t25 38.5t43.5 49t65.5 38.5t88.5 17.5q93 0 150 -50t57 -137q0 -59 -35.5 -108t-111.5 -97q-21 -13 -31 -24t-12 -17.5t-5 -22.5l-9 -51h-120
l13 74q9 51 25 70.5t78 57.5zM179 67q0 33 23 56t56 23t56 -23t23 -56t-23 -56t-56 -23t-56 23t-23 56z" />
    <glyph glyph-name="at" unicode="@" horiz-adv-x="799" 
d="M586 110l30 -78q-90 -44 -194 -44q-146 0 -232.5 90t-86.5 222q0 169 123 290.5t290 121.5q143 0 224 -82t81 -210q0 -129 -57 -198.5t-130 -69.5q-34 0 -61 17t-34 49q-2 -3 -6 -7.5t-17 -15.5t-27 -20t-36.5 -16t-45.5 -7q-56 0 -88.5 34.5t-32.5 86.5q0 60 50.5 96.5
t113.5 36.5q27 0 52 -8.5t36 -17.5l12 -8l3 17q2 12 2 16q0 30 -19 45.5t-48 15.5q-26 0 -55.5 -7t-45.5 -14l-16 -7l-26 74q72 36 143 36q70 0 113 -31.5t43 -85.5q0 -13 -3 -28l-22 -121q-2 -14 -2 -19q0 -33 29 -33q34 0 60.5 52.5t26.5 137.5q0 93 -58.5 150.5
t-158.5 57.5q-137 0 -230.5 -94t-93.5 -234q0 -99 63.5 -163.5t166.5 -64.5q86 0 164 38zM441 232q26 0 49 10t33 20l10 11l5 29q-20 28 -79 28q-37 0 -59.5 -15.5t-22.5 -41.5q0 -19 16.5 -30t47.5 -11z" />
    <glyph glyph-name="A" unicode="A" horiz-adv-x="678" 
d="M6 0l395 700h122l149 -700h-118l-35 166h-292l-93 -166h-128zM439 546l-150 -270h206z" />
    <glyph glyph-name="B" unicode="B" horiz-adv-x="590" 
d="M74 0l123 700h222q90 0 143.5 -49t53.5 -134q0 -35 -13.5 -65.5t-32 -48.5t-33 -28t-21.5 -12q9 -3 19.5 -10t27 -22t27 -42.5t10.5 -62.5q0 -94 -72 -160t-182 -66h-272zM342 114h5q55 0 92 30t37 83q0 73 -102 73h-128l-32 -186h128zM266 414h103q56 0 89.5 26t33.5 77
q0 35 -25 52t-67 17h-103z" />
    <glyph glyph-name="C" unicode="C" horiz-adv-x="676" 
d="M406 100q34 0 67.5 9t57 21.5t41.5 25t27 21.5l9 9l70 -88q-4 -4 -12.5 -11.5t-36.5 -26.5t-57.5 -33.5t-75 -26.5t-90.5 -12q-151 0 -234 93.5t-83 229.5q0 166 121.5 283.5t283.5 117.5q50 0 95 -11.5t74 -27.5t50.5 -32t30.5 -27l10 -12l-79 -79q-3 3 -8 8.5
t-22.5 18.5t-37 23t-50.5 18.5t-63 8.5q-119 0 -200 -85.5t-81 -203.5q0 -90 50.5 -150.5t142.5 -60.5z" />
    <glyph glyph-name="D" unicode="D" horiz-adv-x="680" 
d="M423 700q134 0 212.5 -86.5t78.5 -214.5q0 -107 -44 -196.5t-133 -146t-207 -56.5h-256l123 700h226zM322 114q124 0 195.5 84t71.5 201q0 82 -49 134.5t-135 52.5h-108l-83 -472h108z" />
    <glyph glyph-name="E" unicode="E" horiz-adv-x="546" 
d="M297 586l-30 -170h280l-20 -114h-280l-33 -188h310l-20 -114h-430l123 700h424l-20 -114h-304z" />
    <glyph glyph-name="F" unicode="F" horiz-adv-x="527" 
d="M297 586l-30 -171h275l-20 -114h-275l-53 -301h-120l123 700h415l-20 -114h-295z" />
    <glyph glyph-name="G" unicode="G" horiz-adv-x="713" 
d="M419 100q44 0 80.5 7t50.5 15l15 7l27 153h-159l20 112h277l-60 -339q-12 -8 -33.5 -19t-87.5 -29.5t-130 -18.5q-156 0 -243 89t-87 228q0 171 121.5 289t291.5 118q52 0 98.5 -11t75 -26t49.5 -30.5t29 -26.5l9 -11l-83 -78q-2 3 -7 7.5t-21.5 17t-35.5 22t-50 17
t-64 7.5q-125 0 -207 -87.5t-82 -207.5q0 -89 56 -147t150 -58z" />
    <glyph glyph-name="H" unicode="H" horiz-adv-x="687" 
d="M566 415l50 285h120l-123 -700h-120l53 301h-299l-53 -301h-120l123 700h120l-50 -285h299z" />
    <glyph glyph-name="I" unicode="I" horiz-adv-x="296" 
d="M88 0l123 700h120l-123 -700h-120z" />
    <glyph glyph-name="J" unicode="J" horiz-adv-x="521" 
d="M365 216l85 484h120l-85 -480q-20 -111 -86.5 -171.5t-173.5 -60.5q-38 0 -73 12t-57.5 28.5t-40 33.5t-25.5 29l-8 12l87 77q2 -3 5 -8.5t14 -19t24 -23.5t33 -18.5t41 -8.5q62 0 96.5 33.5t43.5 80.5z" />
    <glyph glyph-name="K" unicode="K" horiz-adv-x="628" 
d="M317 700l-54 -305l298 305h156l-335 -344l246 -356h-146l-230 334l-58 -334h-120l123 700h120z" />
    <glyph glyph-name="L" unicode="L" horiz-adv-x="500" 
d="M74 0l123 700h120l-103 -586h298l-20 -114h-418z" />
    <glyph glyph-name="M" unicode="M" horiz-adv-x="826" 
d="M197 700h111l159 -353l284 353h124l-123 -700h-120l83 475l-278 -338l-161 333l-82 -470h-120z" />
    <glyph glyph-name="N" unicode="N" horiz-adv-x="726" 
d="M197 700h108l264 -490l86 490h120l-123 -700h-108l-265 489l-85 -489h-120z" />
    <glyph glyph-name="O" unicode="O" horiz-adv-x="776" 
d="M493 712q149 0 232.5 -89.5t83.5 -226.5q0 -164 -119.5 -286t-284.5 -122q-149 0 -232.5 90t-83.5 227q0 164 120 285.5t284 121.5zM405 102q121 0 201 90t80 204q0 87 -52 144.5t-141 57.5q-121 0 -201 -89.5t-80 -203.5q0 -87 52 -145t141 -58z" />
    <glyph glyph-name="P" unicode="P" horiz-adv-x="566" 
d="M361 366q67 0 106.5 37t39.5 97q0 40 -27 63t-80 23h-103l-39 -220h103zM74 0l123 700h233q91 0 146 -55.5t55 -144.5q0 -101 -73.5 -174.5t-198.5 -73.5h-121l-44 -252h-120z" />
    <glyph glyph-name="Q" unicode="Q" horiz-adv-x="791" 
d="M493 712q149 0 232.5 -89.5t83.5 -226.5q0 -149 -103 -268l78 -80l-79 -82l-85 87q-100 -65 -215 -65q-149 0 -232.5 90t-83.5 227q0 107 54.5 201t148 150t201.5 56zM438 240l79 82l106 -109q63 83 63 183q0 87 -52 144.5t-141 57.5q-121 0 -201 -89.5t-80 -203.5
q0 -87 52 -145t141 -58q71 0 133 35z" />
    <glyph glyph-name="R" unicode="R" horiz-adv-x="583" 
d="M74 0l123 700h227q91 0 145.5 -54t54.5 -140q0 -89 -58 -154.5t-140 -77.5l129 -274h-131l-120 264h-64l-46 -264h-120zM355 378q65 0 105 34.5t40 93.5q0 80 -108 80h-95l-37 -208h95z" />
    <glyph glyph-name="S" unicode="S" horiz-adv-x="595" 
d="M321 102q52 0 94.5 24t42.5 74q0 19 -6.5 32.5t-24 24.5t-32.5 17.5t-48 18.5q-39 15 -67 29.5t-57.5 38.5t-45 58.5t-15.5 77.5q0 82 71 148.5t177 66.5q45 0 85 -11.5t65 -28t44 -32.5t27 -28l8 -11l-84 -78q-2 3 -6.5 8t-19.5 18t-30.5 23t-40 18t-48.5 8
q-51 0 -87.5 -28.5t-36.5 -70.5q0 -13 5 -24t11.5 -18t22 -15t26 -12.5t34.5 -13.5t38 -15q79 -33 119 -75t40 -121q0 -101 -77 -159t-184 -58q-48 0 -91.5 14t-71.5 34.5t-49 41t-31 34.5l-9 14l90 82q2 -4 7 -11.5t21 -25.5t33.5 -32t45 -25.5t55.5 -11.5z" />
    <glyph glyph-name="T" unicode="T" horiz-adv-x="534" 
d="M207 0l103 586h-193l20 114h506l-20 -114h-193l-103 -586h-120z" />
    <glyph glyph-name="U" unicode="U" horiz-adv-x="688" 
d="M541 269l76 431h120l-80 -451q-21 -119 -99 -190t-202 -71q-133 0 -196.5 71.5t-42.5 189.5l80 451h120q-36 -205 -77 -436q-14 -76 16.5 -119t104.5 -43t120 45t60 122z" />
    <glyph glyph-name="V" unicode="V" horiz-adv-x="630" 
d="M751 700l-441 -724l-185 724h127l107 -446l258 446h134z" />
    <glyph glyph-name="W" unicode="W" horiz-adv-x="983" 
d="M1102 700l-403 -724l-118 525l-305 -525l-149 724h134l72 -408l230 408h106l81 -408l218 408h134z" />
    <glyph glyph-name="X" unicode="X" horiz-adv-x="612" 
d="M464 0l-108 256l-196 -256h-148l289 362l-152 338h137l99 -239l179 239h143l-269 -343l162 -357h-136z" />
    <glyph glyph-name="Y" unicode="Y" horiz-adv-x="614" 
d="M415 276l-48 -276h-120l48 276l-164 424h126l115 -312l224 312h133z" />
    <glyph glyph-name="Z" unicode="Z" horiz-adv-x="597" 
d="M171 700h535l-464 -586h341l-20 -114h-549l466 586h-329z" />
    <glyph glyph-name="bracketleft" unicode="[" horiz-adv-x="330" 
d="M300 660l-140 -794h114l-17 -96h-224l174 986h224l-17 -96h-114z" />
    <glyph glyph-name="backslash" unicode="\" horiz-adv-x="520" 
d="M390 -136l-241 898l108 34l241 -898z" />
    <glyph glyph-name="bracketright" unicode="]" horiz-adv-x="330" 
d="M122 -134l140 794h-114l17 96h224l-174 -986h-224l17 96h114z" />
    <glyph glyph-name="asciicircum" unicode="^" horiz-adv-x="537" 
d="M71 350l278 406h105l134 -406h-120l-83 274l-180 -274h-134z" />
    <glyph glyph-name="underscore" unicode="_" horiz-adv-x="500" 
d="M1 -230l20 114h416l-20 -114h-416z" />
    <glyph glyph-name="grave" unicode="`" horiz-adv-x="272" 
d="M113 688l88 74l150 -184l-84 -68z" />
    <glyph glyph-name="a" unicode="a" horiz-adv-x="536" 
d="M261 88q32 0 62 14t44 28l14 13l9 49q-39 24 -104 24q-37 0 -69 -19t-32 -56q0 -29 22.5 -41t53.5 -12zM331 486q102 0 157 -50.5t41 -131.5l-53 -304h-111l10 60q-7 -8 -20 -20t-54.5 -32t-83.5 -20q-71 0 -113.5 42.5t-42.5 106.5q0 76 61.5 121.5t144.5 45.5
q37 0 70.5 -10t48.5 -20l16 -9l6 32q8 43 -20.5 62.5t-73.5 19.5q-31 0 -67 -7.5t-57 -15.5l-21 -8l-31 102q94 36 193 36z" />
    <glyph glyph-name="b" unicode="b" horiz-adv-x="587" 
d="M74 0l133 756h120l-59 -332q2 3 6.5 7t18.5 14.5t30 19t40.5 15t49.5 6.5q84 0 137.5 -62.5t53.5 -156.5q0 -114 -80 -196.5t-182 -82.5q-46 0 -82.5 20t-49.5 40l-14 19l-11 -67h-111zM248 308l-25 -142q1 -3 3 -7.5t10 -15.5t18.5 -20t29 -16t40.5 -7q68 0 112.5 49
t44.5 118q0 48 -29 77.5t-80 29.5q-35 0 -66 -16.5t-44 -33.5z" />
    <glyph glyph-name="c" unicode="c" horiz-adv-x="497" 
d="M300 100q36 0 68 13t46 27l14 13l65 -91q-9 -8 -25 -20.5t-66 -33t-102 -20.5q-110 0 -172.5 64.5t-62.5 157.5q0 116 86 196t197 80q41 0 76 -9t56.5 -22t37 -26t22.5 -22l6 -9l-86 -73q-4 5 -12.5 13.5t-37.5 22t-62 13.5q-65 0 -112 -49.5t-47 -114.5q0 -47 31 -78.5
t80 -31.5z" />
    <glyph glyph-name="d" unicode="d" horiz-adv-x="587" 
d="M646 756l-133 -756h-111l10 62q-7 -8 -19 -20.5t-52.5 -33t-84.5 -20.5q-81 0 -136 60.5t-55 159.5q0 119 82.5 198.5t186.5 79.5q40 0 73.5 -15t46.5 -29l14 -15l58 329h120zM423 171l25 142q-1 2 -3 6.5t-10.5 15t-19 18.5t-29.5 14.5t-41 6.5q-66 0 -111 -49t-45 -117
q0 -49 28 -78.5t80 -29.5q36 0 67.5 18t45.5 36z" />
    <glyph glyph-name="e" unicode="e" horiz-adv-x="533" 
d="M332 486q99 0 159 -55t60 -145q0 -26 -13 -92h-356q1 -35 33.5 -65.5t84.5 -30.5q37 0 71 12t49 24l16 12l56 -92q-9 -7 -25 -18t-66 -29.5t-101 -18.5q-113 0 -174 65t-61 160q0 114 81.5 193.5t185.5 79.5zM195 281h239q0 1 0.5 4t0.5 5q0 34 -26 60.5t-77 26.5
q-52 0 -89 -29.5t-48 -66.5z" />
    <glyph glyph-name="f" unicode="f" horiz-adv-x="371" 
d="M80 366l19 108h94l21 116q16 91 71 134.5t121 43.5q32 0 59.5 -6t38.5 -12l12 -7l-51 -101q-20 14 -56 14q-23 0 -46.5 -16.5t-30.5 -55.5l-19 -110h116l-19 -108h-116l-64 -366h-120l64 366h-94z" />
    <glyph glyph-name="g" unicode="g" horiz-adv-x="573" 
d="M485 474h111l-84 -478q-21 -118 -98.5 -178t-183.5 -60q-38 0 -75 9t-63 22t-46 25.5t-30 21.5l-10 9l67 94l7.5 -7.5t20.5 -16.5t33 -21t43.5 -16.5t52.5 -7.5q68 0 109.5 33.5t51.5 88.5l10 57q-58 -61 -145 -61q-82 0 -136.5 60.5t-54.5 159.5q0 119 82.5 198.5
t186.5 79.5q27 0 52 -7t40.5 -17t27 -20.5t16.5 -17.5l5 -7zM423 171l25 142q-1 2 -3 6.5t-10.5 15t-19 18.5t-29 14.5t-40.5 6.5q-67 0 -112 -49t-45 -117q0 -49 27.5 -78.5t79.5 -29.5q36 0 68 18t46 36z" />
    <glyph glyph-name="h" unicode="h" horiz-adv-x="562" 
d="M408 486q74 0 117.5 -53t28.5 -136l-52 -297h-120l48 277q9 49 -11 73t-61 24q-28 0 -55 -14t-40 -28l-13 -14l-56 -318h-120l133 756h120l-60 -339q63 69 141 69z" />
    <glyph glyph-name="i" unicode="i" horiz-adv-x="278" 
d="M79 0l83 474h120l-83 -474h-120zM165 627q0 33 23 56t56 23t56 -23t23 -56t-23 -56t-56 -23t-56 23t-23 56z" />
    <glyph glyph-name="j" unicode="j" horiz-adv-x="332" 
d="M-72 -211l47 103q28 -21 62 -21q18 0 32.5 4t33 27.5t25.5 65.5l89 506h120l-91 -517q-10 -55 -32 -96t-51 -62.5t-59 -31t-62 -9.5q-33 0 -61.5 8t-40.5 16zM220 627q0 33 23 56t56 23t56 -23t23 -56t-23 -56t-56 -23t-56 23t-23 56z" />
    <glyph glyph-name="k" unicode="k" horiz-adv-x="535" 
d="M327 756l-81 -459l191 177h165l-247 -224l178 -250h-148l-153 218l-38 -218h-120l133 756h120z" />
    <glyph glyph-name="l" unicode="l" horiz-adv-x="268" 
d="M74 0l133 756h120l-133 -756h-120z" />
    <glyph glyph-name="m" unicode="m" horiz-adv-x="836" 
d="M675 486q77 0 122.5 -53.5t30.5 -137.5l-52 -295h-120l48 274q17 100 -68 100q-28 0 -53.5 -14t-36.5 -28l-12 -14l-56 -318h-120l48 274q17 100 -68 100q-28 0 -53.5 -14t-36.5 -28l-12 -14l-56 -318h-120l83 474h112l-12 -69q2 3 6 8.5t18 19.5t29.5 24.5t40 19.5
t50.5 9q30 0 54.5 -9.5t38.5 -22.5t23.5 -26t12.5 -22l4 -10q2 4 6.5 10t19.5 21.5t32 27.5t43.5 21.5t53.5 9.5z" />
    <glyph glyph-name="n" unicode="n" horiz-adv-x="548" 
d="M394 486q74 0 117.5 -53t28.5 -136l-52 -297h-120l48 277q9 49 -11 73t-61 24q-28 0 -55 -14t-40 -28l-13 -14l-56 -318h-120l83 474h112l-12 -69q7 9 19 22.5t51.5 36t80.5 22.5z" />
    <glyph glyph-name="o" unicode="o" horiz-adv-x="562" 
d="M343 486q112 0 174 -64t62 -158q0 -114 -86 -195t-192 -81q-112 0 -174 64t-62 158q0 115 86 195.5t192 80.5zM301 100q66 0 110 49t44 115q0 48 -29.5 79t-82.5 31q-66 0 -110 -49t-44 -115q0 -48 29.5 -79t82.5 -31z" />
    <glyph glyph-name="p" unicode="p" horiz-adv-x="573" 
d="M143 474h111l-10 -57q2 3 6.5 7.5t19.5 16.5t32 21t43.5 16.5t53.5 7.5q84 0 137.5 -62.5t53.5 -156.5q0 -119 -79 -199t-183 -80q-50 0 -88.5 20.5t-51.5 40.5l-49 -279h-120zM234 308l-26 -147q1 -2 3 -6.5t10 -15t18.5 -18.5t29.5 -14.5t41 -6.5q68 0 112.5 49
t44.5 118q0 48 -29 77.5t-80 29.5q-35 0 -66 -16.5t-44 -33.5z" />
    <glyph glyph-name="q" unicode="q" horiz-adv-x="573" 
d="M485 474h111l-124 -704h-120l48 275q-57 -57 -144 -57q-81 0 -136 60.5t-55 159.5q0 119 82.5 198.5t186.5 79.5q27 0 52 -7t40.5 -17t27 -20.5t16.5 -17.5l5 -7zM424 176l24 137q-1 2 -3 6.5t-10.5 15t-19 18.5t-29.5 14.5t-41 6.5q-66 0 -111 -49t-45 -117
q0 -49 28 -78.5t80 -29.5q36 0 68 19t45 38z" />
    <glyph glyph-name="r" unicode="r" horiz-adv-x="387" 
d="M388 486q19 0 39 -4t31 -8l10 -3l-51 -108q-31 11 -66 11q-32 0 -61.5 -16t-42.5 -32l-13 -16l-54 -310h-120l83 474h114l-12 -69q2 3 6.5 8.5t18.5 19.5t29.5 24.5t39.5 19.5t49 9z" />
    <glyph glyph-name="s" unicode="s" horiz-adv-x="483" 
d="M43 74l70 86q2 -3 6.5 -7.5t19 -16t30.5 -20.5t39.5 -16t47.5 -7q98 0 98 49q0 19 -18 27.5t-72 20.5q-151 33 -151 140q0 65 56.5 110.5t146.5 45.5q53 0 100 -15t68 -29l21 -15l-62 -91q-63 45 -127 45q-33 0 -59 -12t-26 -37q0 -17 21 -27t78 -23q146 -32 146 -137
q0 -73 -65.5 -115t-154.5 -42q-37 0 -72.5 9t-59.5 21.5t-43.5 25t-28.5 21.5z" />
    <glyph glyph-name="t" unicode="t" horiz-adv-x="416" 
d="M76 366l19 108h103l25 141h120l-25 -141h143l-19 -108h-143l-35 -196q-12 -70 51 -70q12 0 25 4t20 8l7 5l34 -100q-48 -29 -117 -29q-70 0 -112 49.5t-29 123.5l36 205h-103z" />
    <glyph glyph-name="u" unicode="u" horiz-adv-x="548" 
d="M240 -12q-72 0 -117.5 53.5t-31.5 135.5l52 297h120l-48 -274q-19 -100 76 -100q29 0 55 16t38 32l12 15l55 311h120l-83 -474h-112l11 64q-2 -3 -6.5 -8t-19 -18.5t-30 -23.5t-40.5 -18t-51 -8z" />
    <glyph glyph-name="v" unicode="v" horiz-adv-x="506" 
d="M85 474h129l77 -256l161 256h135l-338 -494z" />
    <glyph glyph-name="w" unicode="w" horiz-adv-x="768" 
d="M87 474h130l54 -238l142 238h110l53 -238l139 238h132l-316 -498l-93 338l-209 -338z" />
    <glyph glyph-name="x" unicode="x" horiz-adv-x="525" 
d="M234 247l-122 227h134l71 -145l121 145h144l-206 -230l133 -244h-136l-78 157l-132 -157h-147z" />
    <glyph glyph-name="y" unicode="y" horiz-adv-x="557" 
d="M-13 -194l56 95q31 -31 70 -31q31 0 50 14t45 59l28 49l-145 482h130l97 -345l184 345h136l-332 -580q-44 -76 -87.5 -106t-102.5 -30q-33 0 -65.5 12t-48.5 24z" />
    <glyph glyph-name="z" unicode="z" horiz-adv-x="495" 
d="M130 474h422l-295 -362h220l-19 -112h-428l294 362h-214z" />
    <glyph glyph-name="braceleft" unicode="{" horiz-adv-x="350" 
d="M447 756l-19 -108q-25 0 -37 -2t-24.5 -17t-17.5 -45l-35 -196q-22 -124 -127 -128v-4q103 -4 81 -128l-31 -176q-8 -45 10 -59.5t55 -14.5l-19 -108h-54q-59 0 -93.5 42.5t-24.5 102.5l34 198q11 61 -12.5 81t-69.5 20l16 88q46 0 76.5 20t41.5 81l36 208q11 63 50 104
t95 41h69z" />
    <glyph glyph-name="bar" unicode="|" horiz-adv-x="260" 
d="M31 -230l171 970h116l-171 -970h-116z" />
    <glyph glyph-name="braceright" unicode="}" horiz-adv-x="350" 
d="M140 648l19 108h54q59 0 93.5 -42.5t24.5 -102.5l-36 -208q-11 -61 12.5 -81t69.5 -20l-16 -88q-46 0 -76.5 -20t-41.5 -81l-36 -208q-11 -62 -48.5 -98.5t-94.5 -36.5h-68l18 108q25 0 37 2t24.5 17t17.5 45l33 186q22 124 127 128v4q-103 4 -81 128l33 186
q7 45 -10.5 59.5t-54.5 14.5z" />
    <glyph glyph-name="asciitilde" unicode="~" horiz-adv-x="489" 
d="M156 258l-82 58q2 4 5.5 11.5t16.5 26t28.5 33t42.5 26t58 11.5q32 0 86 -23.5t72 -23.5q24 0 41.5 14t23.5 28l6 14l81 -59q-2 -4 -5 -11.5t-15.5 -26t-28 -32.5t-42.5 -25.5t-58 -11.5q-34 0 -88.5 23.5t-69.5 23.5q-24 0 -42 -14t-24 -28z" />
    <glyph glyph-name="nbspace" unicode="&#xa0;" horiz-adv-x="0" 
 />
    <glyph glyph-name="exclamdown" unicode="&#xa1;" horiz-adv-x="306" 
d="M51 -226l93 500h114l-83 -500h-124zM299 407q0 -33 -23 -56t-56 -23t-56 23t-23 56t23 56t56 23t56 -23t23 -56z" />
    <glyph glyph-name="cent" unicode="&#xa2;" 
d="M269 -94l15 88q-82 16 -129.5 76.5t-47.5 139.5q0 110 79.5 188.5t184.5 86.5l15 85h63l-16 -87q32 -4 60 -14.5t44.5 -22t29 -22.5t17.5 -18l5 -8l-87 -74q-3 4 -9.5 11t-29 20t-49.5 17l-48 -270q29 4 55 18t37 26l11 12l73 -83l-9 -9t-25.5 -20.5t-40.5 -26t-54 -21
t-67 -10.5l-14 -82h-63zM231 210q0 -38 19 -66.5t54 -38.5l46 264q-52 -14 -85.5 -59.5t-33.5 -99.5z" />
    <glyph glyph-name="sterling" unicode="&#xa3;" 
d="M406 600q-51 0 -88 -31t-37 -82q0 -32 37 -117v-1q1 -1 1 -2h185l-15 -84h-143q4 -16 4 -31q0 -57 -35 -105q17 -6 50 -26.5t54 -20.5t39.5 15.5t26.5 30.5l8 16l91 -58q-2 -5 -6 -12.5t-18.5 -27.5t-32 -35.5t-46.5 -28t-62 -12.5q-51 0 -100.5 28t-78.5 28
q-32 0 -57 -16t-34 -32l-9 -16l-88 64q2 4 5.5 10t17 23t28 30.5t37.5 27.5t48 19q13 12 26.5 37t13.5 47q0 9 -2.5 20t-5.5 18l-2 7h-124l15 84h78q-26 66 -26 120q0 92 71.5 158.5t173.5 66.5q46 0 84.5 -11.5t61 -28t38.5 -33t22 -27.5l6 -12l-93 -64q-2 3 -4.5 7
t-13.5 15t-23.5 19.5t-33.5 15.5t-44 7z" />
    <glyph glyph-name="currency" unicode="&#xa4;" 
d="M111 303q0 81 56 152l-56 69l78 66l56 -68q60 35 124 35q74 0 131 -44l91 77l63 -76l-92 -78q22 -46 22 -92q0 -89 -61 -160l52 -63l-78 -66l-54 65q-55 -30 -117 -30q-70 0 -124 38l-87 -73l-63 76l84 72q-25 47 -25 100zM369 445q-57 0 -101 -42.5t-44 -99.5
q0 -43 28.5 -72t73.5 -29q59 0 101.5 42t42.5 100q0 42 -28.5 71.5t-72.5 29.5z" />
    <glyph glyph-name="yen" unicode="&#xa5;" 
d="M622 385h-143l-52 -70h183l-15 -84h-205l-40 -231h-120l40 231h-205l15 84h183l-27 70h-144l15 84h96l-89 231h124l116 -313l226 313h132l-171 -231h96z" />
    <glyph glyph-name="brokenbar" unicode="&#xa6;" horiz-adv-x="260" 
d="M133 350l69 390h116l-69 -390h-116zM31 -230l69 390h116l-69 -390h-116z" />
    <glyph glyph-name="section" unicode="&#xa7;" horiz-adv-x="508" 
d="M497 272q0 -51 -39.5 -96.5t-95.5 -63.5q61 -49 61 -127q0 -75 -57 -127t-141 -52q-34 0 -65 8.5t-50.5 20t-34 23.5t-21.5 20l-6 9l80 79q4 -6 12 -14t33 -22t52 -14q31 0 54.5 20.5t23.5 48.5q0 21 -18.5 37.5t-70.5 49.5q-1 0 -3 2t-3 2q-54 36 -85.5 75t-31.5 96
q0 51 39.5 96t95.5 62q-62 50 -62 129q0 72 62 125t138 53q35 0 66 -8.5t50 -20.5t33.5 -24t20.5 -21l6 -8l-82 -74q-4 5 -11 12.5t-31.5 20.5t-51.5 13q-28 0 -53.5 -19.5t-25.5 -48.5q0 -15 11.5 -29.5t26 -24.5t51.5 -34q58 -37 90.5 -76t32.5 -98zM279 172l4 -3
q91 34 91 103q0 20 -13.5 36t-50.5 38l-5 2q-90 -30 -90 -101q0 -20 13.5 -36t50.5 -39z" />
    <glyph glyph-name="dieresis" unicode="&#xa8;" horiz-adv-x="392" 
d="M123 621q0 33 23 56t56 23t56 -23t23 -56t-23 -56t-56 -23t-56 23t-23 56zM329 621q0 33 23 56t56 23t56 -23t23 -56t-23 -56t-56 -23t-56 23t-23 56z" />
    <glyph glyph-name="copyright" unicode="&#xa9;" horiz-adv-x="819" 
d="M104 304q0 168 120 288t296 120q148 0 232.5 -89.5t84.5 -224.5q0 -169 -119 -289.5t-295 -120.5q-148 0 -233.5 90.5t-85.5 225.5zM520 626q-142 0 -235.5 -94.5t-93.5 -227.5q0 -99 64.5 -164.5t167.5 -65.5q141 0 234 96t93 228q0 99 -63.5 163.5t-166.5 64.5z
M458 241q28 0 53.5 10.5t36.5 20.5l11 11l52 -72q-7 -7 -19.5 -16.5t-52.5 -26t-81 -16.5q-87 0 -136.5 51.5t-49.5 125.5q0 91 68 154.5t156 63.5q51 0 90.5 -17.5t53.5 -34.5l13 -17l-68 -58q-3 4 -10 10.5t-30 17.5t-49 11q-52 0 -89 -39.5t-37 -90.5q0 -38 24.5 -63
t63.5 -25z" />
    <glyph glyph-name="ordfeminine" unicode="&#xaa;" horiz-adv-x="325" 
d="M228 464q20 0 39 9t29 18l9 9l4 22q-27 16 -67 16q-23 0 -41 -11t-18 -33q0 -30 45 -30zM279 712q61 0 94 -31.5t24 -79.5l-34 -195h-70l7 39q-4 -5 -11.5 -12.5t-32.5 -20.5t-52 -13q-41 0 -71 24t-30 71t38 75t91 28q24 0 45.5 -7.5t30.5 -14.5l9 -7l4 22
q4 25 -11.5 37t-46.5 12q-19 0 -42.5 -4.5t-36.5 -9.5l-14 -5l-20 68q54 24 129 24z" />
    <glyph glyph-name="guillemotleft" unicode="&#xab;" horiz-adv-x="529" 
d="M46 250l215 236l74 -74l-159 -169l108 -178l-91 -62zM266 250l215 236l74 -74l-159 -169l108 -178l-91 -62z" />
    <glyph glyph-name="logicalnot" unicode="&#xac;" horiz-adv-x="674" 
d="M87 394l20 114h600l-56 -316h-118l36 202h-482z" />
    <glyph glyph-name="softhyphen" unicode="&#xad;" horiz-adv-x="333" 
d="M66 190l20 114h267l-20 -114h-267z" />
    <glyph glyph-name="registered" unicode="&#xae;" horiz-adv-x="425" 
d="M210 417l34 190h88q30 0 46.5 -17t16.5 -41q0 -25 -17 -42.5t-38 -19.5l38 -70h-60l-29 61h-14l-11 -61h-54zM307 524q11 0 17.5 1t12 7t5.5 17q0 17 -27 17h-25l-7 -42h24zM91 485q0 94 69 164.5t168 70.5q91 0 139 -53t48 -132q0 -94 -69 -163.5t-169 -69.5
q-91 0 -138.5 52t-47.5 131zM328 654q-75 0 -123 -49t-48 -120q0 -52 31 -85t89 -33q75 0 123 48.5t48 119.5q0 53 -31 86t-89 33z" />
    <glyph glyph-name="macron" unicode="&#xaf;" horiz-adv-x="334" 
d="M106 572l19 108h322l-19 -108h-322z" />
    <glyph glyph-name="degree" unicode="&#xb0;" horiz-adv-x="357" 
d="M117 543q0 68 52 118.5t118 50.5q71 0 109.5 -42.5t38.5 -101.5q0 -68 -51.5 -118.5t-117.5 -50.5q-71 0 -110 42.5t-39 101.5zM287 626q-34 0 -58.5 -24t-24.5 -59q0 -25 18 -42t44 -17q34 0 58 24.5t24 59.5q0 25 -17.5 41.5t-43.5 16.5z" />
    <glyph glyph-name="plusminus" unicode="&#xb1;" horiz-adv-x="520" 
d="M38 0l17 102h444l-17 -102h-444zM85 269l18 102h167l23 130h110l-23 -130h167l-18 -102h-167l-22 -123h-110l22 123h-167z" />
    <glyph glyph-name="twosuperior" unicode="&#xb2;" horiz-adv-x="362" 
d="M15 394l185 184l14 14t18 19t14 18.5t13 23.5t4 22q0 20 -15.5 33t-40.5 13q-17 0 -31 -6t-22 -14.5t-13.5 -17.5t-7.5 -15l-2 -6l-77 30l5 12.5t16 27t29 34.5t43.5 27.5t59.5 12.5q76 0 112 -39.5t36 -91.5q0 -55 -47 -106l-85 -93h111l-15 -82h-304z" />
    <glyph glyph-name="threesuperior" unicode="&#xb3;" horiz-adv-x="368" 
d="M264 686q0 17 -14 28t-38 11t-41.5 -10.5t-23.5 -21.5l-6 -11l-69 41q2 3 5.5 9t16 20t27.5 25t39.5 20t51.5 9q63 0 103.5 -30.5t40.5 -89.5q0 -25 -17 -51t-43 -35q5 -2 12 -6t18.5 -23t11.5 -47q0 -63 -50.5 -99.5t-113.5 -36.5q-32 0 -59 10t-42 24t-25.5 28
t-14.5 24l-4 10l69 41q2 -6 6.5 -15.5t24 -25t45.5 -15.5q27 0 50 14t23 41q0 40 -64 40h-22l12 70h15q30 0 53 12t23 40z" />
    <glyph glyph-name="acute" unicode="&#xb4;" horiz-adv-x="272" 
d="M311 758l74 -88l-199 -164l-69 79z" />
    <glyph glyph-name="mu" unicode="&#xb5;" horiz-adv-x="548" 
d="M236 -12q-30 0 -57 11l-40 -229h-120l124 704h120l-48 -274q-19 -100 76 -100q27 0 53 14.5t38 29.5l13 14l56 316h120l-83 -474h-112l12 69q-2 -3 -7 -8.5t-20 -19.5t-31.5 -24.5t-42 -19.5t-51.5 -9z" />
    <glyph glyph-name="mu" unicode="&#x3bc;" horiz-adv-x="548" 
d="M236 -12q-30 0 -57 11l-40 -229h-120l124 704h120l-48 -274q-19 -100 76 -100q27 0 53 14.5t38 29.5l13 14l56 316h120l-83 -474h-112l12 69q-2 -3 -7 -8.5t-20 -19.5t-31.5 -24.5t-42 -19.5t-51.5 -9z" />
    <glyph glyph-name="paragraph" unicode="&#xb6;" horiz-adv-x="672" 
d="M491 598l-139 -786h-111l73 414q-78 0 -138.5 59t-60.5 142q0 131 73.5 202t209.5 71h323l-157 -888h-112l139 786h-100z" />
    <glyph glyph-name="periodcentered" unicode="&#xb7;" horiz-adv-x="262" 
d="M113 350q0 33 23 56t56 23t56 -23t23 -56t-23 -56t-56 -23t-56 23t-23 56z" />
    <glyph glyph-name="cedilla" unicode="&#xb8;" horiz-adv-x="315" 
d="M232 -54l-99 -217l-111 29l101 197z" />
    <glyph glyph-name="onesuperior" unicode="&#xb9;" horiz-adv-x="323" 
d="M34 674l174 126h98l-72 -406h-93l51 289l-111 -80z" />
    <glyph glyph-name="ordmasculine" unicode="&#xba;" horiz-adv-x="357" 
d="M117 543q0 68 52.5 118.5t118.5 50.5q67 0 107 -41.5t40 -102.5q0 -72 -52 -121t-119 -49t-107 42t-40 103zM288 626q-34 0 -59.5 -24.5t-25.5 -58.5q0 -25 17.5 -42t43.5 -17q34 0 59.5 25t25.5 59q0 25 -17.5 41.5t-43.5 16.5z" />
    <glyph glyph-name="guillemotright" unicode="&#xbb;" horiz-adv-x="529" 
d="M416 481l149 -246l-214 -232l-77 77l161 171l-108 168zM196 481l147 -241l-212 -237l-77 77l161 171l-108 168z" />
    <glyph glyph-name="onequarter" unicode="&#xbc;" horiz-adv-x="830" 
d="M182 9l597 724l51 -44l-598 -724zM462 78l266 328h98l-44 -250h50l-14 -78h-50l-14 -78h-86l14 78h-220zM612 156h84l23 134zM120 574l174 126h98l-72 -406h-93l51 289l-111 -80z" />
    <glyph glyph-name="onehalf" unicode="&#xbd;" horiz-adv-x="830" 
d="M479 0l185 184l14 14t18 19t14 18.5t13 23.5t4 22q0 20 -15.5 33t-40.5 13q-17 0 -31 -6t-22 -14.5t-13.5 -17.5t-7.5 -15l-2 -6l-77 30l5 12.5t16 27t29 34.5t43.5 27.5t59.5 12.5q76 0 112 -39.5t36 -91.5q0 -55 -47 -106l-85 -93h111l-15 -82h-304zM122 9l597 724
l51 -44l-598 -724zM110 574l174 126h98l-72 -406h-93l51 289l-111 -80z" />
    <glyph glyph-name="threequarters" unicode="&#xbe;" horiz-adv-x="830" 
d="M191 9l597 724l51 -44l-598 -724zM342 586q0 17 -14 28t-38 11t-41.5 -10.5t-23.5 -21.5l-6 -11l-69 41q2 3 5.5 9t16 20t27.5 25t39.5 20t51.5 9q63 0 103.5 -30.5t40.5 -89.5q0 -25 -17 -51t-43 -35q5 -2 12 -6t18.5 -23t11.5 -47q0 -63 -50.5 -99.5t-113.5 -36.5
q-32 0 -59 10t-42 24t-25.5 28t-14.5 24l-4 10l69 41q2 -6 6.5 -15.5t24 -25t45.5 -15.5q27 0 50 14t23 41q0 40 -64 40h-22l12 70h15q30 0 53 12t23 40zM462 78l266 328h98l-44 -250h50l-14 -78h-50l-14 -78h-86l14 78h-220zM612 156h84l23 134z" />
    <glyph glyph-name="questiondown" unicode="&#xbf;" horiz-adv-x="489" 
d="M238 67q-42 -25 -64 -51t-22 -67q0 -31 23.5 -52t61.5 -21q27 0 50 10t37 24t24 28t14 24l4 10l101 -49q-2 -7 -7.5 -17.5t-25 -38.5t-43.5 -49t-65.5 -38.5t-88.5 -17.5q-93 0 -150 50t-57 137q0 59 35.5 108t111.5 97q21 13 31 24t12 17.5t5 22.5l9 51h120l-13 -74
q-9 -51 -25 -70.5t-78 -57.5zM393 407q0 -33 -23 -56t-56 -23t-56 23t-23 56t23 56t56 23t56 -23t23 -56z" />
    <glyph glyph-name="Agrave" unicode="&#xc0;" horiz-adv-x="678" 
d="M6 0l395 700h122l149 -700h-118l-35 166h-292l-93 -166h-128zM439 546l-150 -270h206zM334 926l88 74l150 -184l-84 -68z" />
    <glyph glyph-name="Aacute" unicode="&#xc1;" horiz-adv-x="678" 
d="M6 0l395 700h122l149 -700h-118l-35 166h-292l-93 -166h-128zM439 546l-150 -270h206zM549 996l74 -88l-199 -164l-69 79z" />
    <glyph glyph-name="Acircumflex" unicode="&#xc2;" horiz-adv-x="678" 
d="M6 0l395 700h122l149 -700h-118l-35 166h-292l-93 -166h-128zM439 546l-150 -270h206zM277 827l199 131l181 -140l-73 -76l-114 97l-133 -95z" />
    <glyph glyph-name="Atilde" unicode="&#xc3;" horiz-adv-x="678" 
d="M6 0l395 700h122l149 -700h-118l-35 166h-292l-93 -166h-128zM439 546l-150 -270h206zM336 777l-81 57q2 4 5 11.5t16 25.5t28 32t41 25.5t55 11.5q32 0 77 -29t61 -29q19 0 35.5 16t22.5 32l7 15l79 -61q-2 -4 -5 -11.5t-15.5 -26t-27 -33t-39.5 -26t-54 -11.5
q-31 0 -77 28.5t-62 28.5q-19 0 -35.5 -14t-23.5 -28z" />
    <glyph glyph-name="Adieresis" unicode="&#xc4;" horiz-adv-x="678" 
d="M6 0l395 700h122l149 -700h-118l-35 166h-292l-93 -166h-128zM439 546l-150 -270h206zM296 859q0 33 23 56t56 23t56 -23t23 -56t-23 -56t-56 -23t-56 23t-23 56zM502 859q0 33 23 56t56 23t56 -23t23 -56t-23 -56t-56 -23t-56 23t-23 56z" />
    <glyph glyph-name="Aring" unicode="&#xc5;" horiz-adv-x="678" 
d="M6 0l395 700h122l149 -700h-118l-35 166h-292l-93 -166h-128zM439 546l-150 -270h206zM353 854q0 52 40.5 90.5t92.5 38.5q53 0 84 -33t31 -78q0 -52 -41 -90.5t-93 -38.5q-53 0 -83.5 33t-30.5 78zM486 917q-28 0 -46 -18.5t-18 -44.5q0 -19 12.5 -32t32.5 -13
q28 0 46.5 18.5t18.5 44.5q0 20 -13 32.5t-33 12.5z" />
    <glyph glyph-name="AE" unicode="&#xc6;" horiz-adv-x="915" 
d="M609 605l-267 -348h206zM726 588l-30 -172h220l-20 -114h-220l-34 -190h250l-19 -112h-370l25 143h-272l-110 -143h-140l536 700h448l-20 -112h-244z" />
    <glyph glyph-name="Ccedilla" unicode="&#xc7;" horiz-adv-x="676" 
d="M424 -59l-99 -217l-111 29l101 197zM406 100q34 0 67.5 9t57 21.5t41.5 25t27 21.5l9 9l70 -88q-4 -4 -12.5 -11.5t-36.5 -26.5t-57.5 -33.5t-75 -26.5t-90.5 -12q-151 0 -234 93.5t-83 229.5q0 166 121.5 283.5t283.5 117.5q50 0 95 -11.5t74 -27.5t50.5 -32t30.5 -27
l10 -12l-79 -79q-3 3 -8 8.5t-22.5 18.5t-37 23t-50.5 18.5t-63 8.5q-119 0 -200 -85.5t-81 -203.5q0 -90 50.5 -150.5t142.5 -60.5z" />
    <glyph glyph-name="Egrave" unicode="&#xc8;" horiz-adv-x="546" 
d="M297 586l-30 -170h280l-20 -114h-280l-33 -188h310l-20 -114h-430l123 700h424l-20 -114h-304zM260 926l88 74l150 -184l-84 -68z" />
    <glyph glyph-name="Eacute" unicode="&#xc9;" horiz-adv-x="546" 
d="M297 586l-30 -170h280l-20 -114h-280l-33 -188h310l-20 -114h-430l123 700h424l-20 -114h-304zM511 996l74 -88l-199 -164l-69 79z" />
    <glyph glyph-name="Ecircumflex" unicode="&#xca;" horiz-adv-x="546" 
d="M297 586l-30 -170h280l-20 -114h-280l-33 -188h310l-20 -114h-430l123 700h424l-20 -114h-304zM227 827l199 131l181 -140l-73 -76l-114 97l-133 -95z" />
    <glyph glyph-name="Edieresis" unicode="&#xcb;" horiz-adv-x="546" 
d="M297 586l-30 -170h280l-20 -114h-280l-33 -188h310l-20 -114h-430l123 700h424l-20 -114h-304zM246 859q0 33 23 56t56 23t56 -23t23 -56t-23 -56t-56 -23t-56 23t-23 56zM452 859q0 33 23 56t56 23t56 -23t23 -56t-23 -56t-56 -23t-56 23t-23 56z" />
    <glyph glyph-name="Igrave" unicode="&#xcc;" horiz-adv-x="296" 
d="M88 0l123 700h120l-123 -700h-120zM107 926l88 74l150 -184l-84 -68z" />
    <glyph glyph-name="Iacute" unicode="&#xcd;" horiz-adv-x="296" 
d="M85 0l123 700h120l-123 -700h-120zM361 996l74 -88l-199 -164l-69 79z" />
    <glyph glyph-name="Icircumflex" unicode="&#xce;" horiz-adv-x="296" 
d="M88 0l123 700h120l-123 -700h-120zM94 837l199 131l181 -140l-73 -76l-114 97l-133 -95z" />
    <glyph glyph-name="Idieresis" unicode="&#xcf;" horiz-adv-x="296" 
d="M74 0l123 700h120l-123 -700h-120zM90 859q0 33 23 56t56 23t56 -23t23 -56t-23 -56t-56 -23t-56 23t-23 56zM296 859q0 33 23 56t56 23t56 -23t23 -56t-23 -56t-56 -23t-56 23t-23 56z" />
    <glyph glyph-name="Eth" unicode="&#xd0;" horiz-adv-x="708" 
d="M451 700q131 0 211 -87t80 -214q0 -107 -44 -196.5t-133 -146t-207 -56.5h-256l53 305h-90l19 104h90l51 291h226zM350 114q124 0 195.5 84t71.5 201q0 82 -49 134.5t-135 52.5h-108l-31 -177h202l-19 -104h-202l-33 -191h108z" />
    <glyph glyph-name="Ntilde" unicode="&#xd1;" horiz-adv-x="726" 
d="M197 700h108l264 -490l86 490h120l-123 -700h-108l-265 489l-85 -489h-120zM363 777l-81 57q2 4 5 11.5t16 25.5t28 32t41 25.5t55 11.5q32 0 77 -29t61 -29q19 0 35.5 16t23.5 32l6 15l79 -61q-2 -4 -5 -11.5t-15.5 -26t-27 -33t-39.5 -26t-54 -11.5q-32 0 -77 28.5
t-62 28.5q-19 0 -35.5 -14t-23.5 -28z" />
    <glyph glyph-name="Ograve" unicode="&#xd2;" horiz-adv-x="776" 
d="M493 712q149 0 232.5 -89.5t83.5 -226.5q0 -164 -119.5 -286t-284.5 -122q-149 0 -232.5 90t-83.5 227q0 164 120 285.5t284 121.5zM405 102q121 0 201 90t80 204q0 87 -52 144.5t-141 57.5q-121 0 -201 -89.5t-80 -203.5q0 -87 52 -145t141 -58zM412 926l88 74l150 -184
l-84 -68z" />
    <glyph glyph-name="Oacute" unicode="&#xd3;" horiz-adv-x="776" 
d="M551 996l74 -88l-199 -164l-69 79zM493 712q149 0 232.5 -89.5t83.5 -226.5q0 -164 -119.5 -286t-284.5 -122q-149 0 -232.5 90t-83.5 227q0 164 120 285.5t284 121.5zM405 102q121 0 201 90t80 204q0 87 -52 144.5t-141 57.5q-121 0 -201 -89.5t-80 -203.5
q0 -87 52 -145t141 -58z" />
    <glyph glyph-name="Ocircumflex" unicode="&#xd4;" horiz-adv-x="776" 
d="M493 712q149 0 232.5 -89.5t83.5 -226.5q0 -164 -119.5 -286t-284.5 -122q-149 0 -232.5 90t-83.5 227q0 164 120 285.5t284 121.5zM405 102q121 0 201 90t80 204q0 87 -52 144.5t-141 57.5q-121 0 -201 -89.5t-80 -203.5q0 -87 52 -145t141 -58zM330 837l199 131
l181 -140l-73 -76l-114 97l-133 -95z" />
    <glyph glyph-name="Otilde" unicode="&#xd5;" horiz-adv-x="776" 
d="M493 712q149 0 232.5 -89.5t83.5 -226.5q0 -164 -119.5 -286t-284.5 -122q-149 0 -232.5 90t-83.5 227q0 164 120 285.5t284 121.5zM405 102q121 0 201 90t80 204q0 87 -52 144.5t-141 57.5q-121 0 -201 -89.5t-80 -203.5q0 -87 52 -145t141 -58zM394 777l-81 57
q2 4 5 11.5t16 25.5t28 32t41 25.5t55 11.5q32 0 77 -29t61 -29q19 0 35.5 16t22.5 32l7 15l79 -61q-2 -4 -5 -11.5t-15.5 -26t-27 -33t-39.5 -26t-54 -11.5q-31 0 -76.5 28.5t-62.5 28.5q-19 0 -35.5 -14t-23.5 -28z" />
    <glyph glyph-name="Odieresis" unicode="&#xd6;" horiz-adv-x="776" 
d="M493 712q149 0 232.5 -89.5t83.5 -226.5q0 -164 -119.5 -286t-284.5 -122q-149 0 -232.5 90t-83.5 227q0 164 120 285.5t284 121.5zM405 102q121 0 201 90t80 204q0 87 -52 144.5t-141 57.5q-121 0 -201 -89.5t-80 -203.5q0 -87 52 -145t141 -58zM337 859q0 33 23 56
t56 23t56 -23t23 -56t-23 -56t-56 -23t-56 23t-23 56zM543 859q0 33 23 56t56 23t56 -23t23 -56t-23 -56t-56 -23t-56 23t-23 56z" />
    <glyph glyph-name="multiply" unicode="&#xd7;" horiz-adv-x="520" 
d="M114 21l-71 84l182 155l-123 150l88 74l123 -150l182 155l70 -84l-182 -155l123 -150l-87 -74l-123 150z" />
    <glyph glyph-name="Oslash" unicode="&#xd8;" horiz-adv-x="784" 
d="M493 712q128 0 212 -71l92 91l44 -47l-93 -91q61 -82 61 -198q0 -164 -119.5 -286t-284.5 -122q-126 0 -207 67l-89 -87l-44 47l88 86q-64 84 -64 204q0 164 120 285.5t284 121.5zM212 305q0 -67 30 -117l375 368q-50 42 -124 42q-121 0 -201 -89.5t-80 -203.5zM405 102
q121 0 201 90t80 204q0 60 -28 110l-373 -366q49 -38 120 -38z" />
    <glyph glyph-name="Ugrave" unicode="&#xd9;" horiz-adv-x="688" 
d="M542 269l76 431h120l-80 -451q-21 -119 -99 -190t-202 -71q-133 0 -196.5 71.5t-42.5 189.5l80 451h120q-36 -205 -77 -436q-14 -76 16.5 -119t104.5 -43t120 45t60 122zM322 926l88 74l150 -184l-84 -68z" />
    <glyph glyph-name="Uacute" unicode="&#xda;" horiz-adv-x="688" 
d="M541 269l76 431h120l-80 -451q-21 -119 -99 -190t-202 -71q-133 0 -196.5 71.5t-42.5 189.5l80 451h120q-36 -205 -77 -436q-14 -76 16.5 -119t104.5 -43t120 45t60 122zM563 996l74 -88l-199 -164l-69 79z" />
    <glyph glyph-name="Ucircumflex" unicode="&#xdb;" horiz-adv-x="688" 
d="M541 269l76 431h120l-80 -451q-21 -119 -99 -190t-202 -71q-133 0 -196.5 71.5t-42.5 189.5l80 451h120q-36 -205 -77 -436q-14 -76 16.5 -119t104.5 -43t120 45t60 122zM286 837l199 131l181 -140l-73 -76l-114 97l-133 -95z" />
    <glyph glyph-name="Udieresis" unicode="&#xdc;" horiz-adv-x="688" 
d="M541 269l76 431h120l-80 -451q-21 -119 -99 -190t-202 -71q-133 0 -196.5 71.5t-42.5 189.5l80 451h120q-36 -205 -77 -436q-14 -76 16.5 -119t104.5 -43t120 45t60 122zM293 859q0 33 23 56t56 23t56 -23t23 -56t-23 -56t-56 -23t-56 23t-23 56zM499 859q0 33 23 56
t56 23t56 -23t23 -56t-23 -56t-56 -23t-56 23t-23 56z" />
    <glyph glyph-name="Yacute" unicode="&#xdd;" horiz-adv-x="614" 
d="M415 276l-48 -276h-120l48 276l-164 424h126l115 -312l224 312h133zM526 996l74 -88l-199 -164l-69 79z" />
    <glyph glyph-name="Thorn" unicode="&#xde;" horiz-adv-x="545" 
d="M74 0l123 700h120l-20 -111h83q101 0 159 -51.5t58 -139.5q0 -61 -23 -107.5t-63.5 -74t-90 -41.5t-107.5 -14h-91l-28 -161h-120zM328 273q147 0 147 125q0 79 -121 79h-76l-36 -204h86z" />
    <glyph glyph-name="germandbls" unicode="&#xdf;" horiz-adv-x="601" 
d="M64 0q50 284 96 543q18 105 81 165t164 60q94 0 153.5 -51.5t59.5 -144.5q0 -51 -32 -98t-80 -62q4 -1 11 -3t25 -13.5t31.5 -27t24.5 -45.5t11 -68q0 -124 -79.5 -195.5t-224.5 -71.5h-45l20 112h20q185 0 185 155q0 97 -152 97l18 106q55 1 98.5 30t43.5 84
q0 32 -22.5 57t-65.5 25q-52 0 -84.5 -29.5t-41.5 -81.5l-95 -543h-120z" />
    <glyph glyph-name="agrave" unicode="&#xe0;" horiz-adv-x="536" 
d="M261 88q32 0 62 14t44 28l14 13l9 49q-39 24 -104 24q-37 0 -69 -19t-32 -56q0 -29 22.5 -41t53.5 -12zM331 486q102 0 157 -50.5t41 -131.5l-53 -304h-111l10 60q-7 -8 -20 -20t-54.5 -32t-83.5 -20q-71 0 -113.5 42.5t-42.5 106.5q0 76 61.5 121.5t144.5 45.5
q37 0 70.5 -10t48.5 -20l16 -9l6 32q8 43 -20.5 62.5t-73.5 19.5q-31 0 -67 -7.5t-57 -15.5l-21 -8l-31 102q94 36 193 36zM246 717l88 74l150 -184l-84 -68z" />
    <glyph glyph-name="aacute" unicode="&#xe1;" horiz-adv-x="536" 
d="M434 788l74 -88l-199 -164l-69 79zM261 88q32 0 62 14t44 28l14 13l9 49q-39 24 -104 24q-37 0 -69 -19t-32 -56q0 -29 22.5 -41t53.5 -12zM331 486q102 0 157 -50.5t41 -131.5l-53 -304h-111l10 60q-7 -8 -20 -20t-54.5 -32t-83.5 -20q-71 0 -113.5 42.5t-42.5 106.5
q0 76 61.5 121.5t144.5 45.5q37 0 70.5 -10t48.5 -20l16 -9l6 32q8 43 -20.5 62.5t-73.5 19.5q-31 0 -67 -7.5t-57 -15.5l-21 -8l-31 102q94 36 193 36z" />
    <glyph glyph-name="acircumflex" unicode="&#xe2;" horiz-adv-x="536" 
d="M261 88q32 0 62 14t44 28l14 13l9 49q-39 24 -104 24q-37 0 -69 -19t-32 -56q0 -29 22.5 -41t53.5 -12zM331 486q102 0 157 -50.5t41 -131.5l-53 -304h-111l10 60q-7 -8 -20 -20t-54.5 -32t-83.5 -20q-71 0 -113.5 42.5t-42.5 106.5q0 76 61.5 121.5t144.5 45.5
q37 0 70.5 -10t48.5 -20l16 -9l6 32q8 43 -20.5 62.5t-73.5 19.5q-31 0 -67 -7.5t-57 -15.5l-21 -8l-31 102q94 36 193 36zM170 608l199 131l181 -140l-73 -76l-114 97l-133 -95z" />
    <glyph glyph-name="atilde" unicode="&#xe3;" horiz-adv-x="536" 
d="M261 88q32 0 62 14t44 28l14 13l9 49q-39 24 -104 24q-37 0 -69 -19t-32 -56q0 -29 22.5 -41t53.5 -12zM331 486q102 0 157 -50.5t41 -131.5l-53 -304h-111l10 60q-7 -8 -20 -20t-54.5 -32t-83.5 -20q-71 0 -113.5 42.5t-42.5 106.5q0 76 61.5 121.5t144.5 45.5
q37 0 70.5 -10t48.5 -20l16 -9l6 32q8 43 -20.5 62.5t-73.5 19.5q-31 0 -67 -7.5t-57 -15.5l-21 -8l-31 102q94 36 193 36zM246 556l-81 57q2 4 5 11.5t16 25.5t28 32t41 25.5t55 11.5q32 0 77 -29t61 -29q19 0 35.5 15.5t22.5 31.5l7 16l79 -61q-2 -4 -5 -11.5t-15.5 -26
t-27 -33t-39.5 -26t-54 -11.5q-31 0 -77 28.5t-62 28.5q-19 0 -35.5 -14t-23.5 -28z" />
    <glyph glyph-name="adieresis" unicode="&#xe4;" horiz-adv-x="536" 
d="M261 88q32 0 62 14t44 28l14 13l9 49q-39 24 -104 24q-37 0 -69 -19t-32 -56q0 -29 22.5 -41t53.5 -12zM331 486q102 0 157 -50.5t41 -131.5l-53 -304h-111l10 60q-7 -8 -20 -20t-54.5 -32t-83.5 -20q-71 0 -113.5 42.5t-42.5 106.5q0 76 61.5 121.5t144.5 45.5
q37 0 70.5 -10t48.5 -20l16 -9l6 32q8 43 -20.5 62.5t-73.5 19.5q-31 0 -67 -7.5t-57 -15.5l-21 -8l-31 102q94 36 193 36zM184 631q0 33 23 56t56 23t56 -23t23 -56t-23 -56t-56 -23t-56 23t-23 56zM390 631q0 33 23 56t56 23t56 -23t23 -56t-23 -56t-56 -23t-56 23t-23 56
z" />
    <glyph glyph-name="aring" unicode="&#xe5;" horiz-adv-x="536" 
d="M261 88q32 0 62 14t44 28l14 13l9 49q-39 24 -104 24q-37 0 -69 -19t-32 -56q0 -29 22.5 -41t53.5 -12zM331 486q102 0 157 -50.5t41 -131.5l-53 -304h-111l10 60q-7 -8 -20 -20t-54.5 -32t-83.5 -20q-71 0 -113.5 42.5t-42.5 106.5q0 76 61.5 121.5t144.5 45.5
q37 0 70.5 -10t48.5 -20l16 -9l6 32q8 43 -20.5 62.5t-73.5 19.5q-31 0 -67 -7.5t-57 -15.5l-21 -8l-31 102q94 36 193 36zM247 638q0 52 40.5 90.5t92.5 38.5q53 0 84 -33t31 -78q0 -52 -41 -90.5t-93 -38.5q-53 0 -83.5 33t-30.5 78zM380 701q-28 0 -46 -18.5t-18 -44.5
q0 -19 12.5 -32t32.5 -13q28 0 46.5 18.5t18.5 44.5q0 20 -13 32.5t-33 12.5z" />
    <glyph glyph-name="ae" unicode="&#xe6;" horiz-adv-x="865" 
d="M666 486q99 0 159 -55t60 -145q0 -26 -13 -92h-356q1 -35 33.5 -65.5t84.5 -30.5q37 0 71 12t49 24l16 12l56 -92q-9 -7 -25 -18t-66 -29.5t-101 -18.5q-130 0 -196 93q-75 -93 -198 -93q-84 0 -132 40.5t-48 106.5q0 60 48 102.5t137 42.5h168q1 5 1 14q0 38 -29.5 60
t-77.5 22q-32 0 -69.5 -8t-58.5 -16l-21 -7l-32 103q97 38 191 38q128 0 170 -72q74 72 179 72zM529 281h239q0 1 0.5 4t0.5 5q0 34 -26 60.5t-77 26.5q-52 0 -89 -29.5t-48 -66.5zM255 94q62 0 101 29t47 71h-148q-73 0 -73 -51q0 -49 73 -49z" />
    <glyph glyph-name="ccedilla" unicode="&#xe7;" horiz-adv-x="497" 
d="M340 -59l-99 -217l-111 29l101 197zM300 100q36 0 68 13t46 27l14 13l65 -91q-9 -8 -25 -20.5t-66 -33t-102 -20.5q-110 0 -172.5 64.5t-62.5 157.5q0 116 86 196t197 80q41 0 76 -9t56.5 -22t37 -26t22.5 -22l6 -9l-86 -73q-4 5 -12.5 13.5t-37.5 22t-62 13.5
q-65 0 -112 -49.5t-47 -114.5q0 -47 31 -78.5t80 -31.5z" />
    <glyph glyph-name="egrave" unicode="&#xe8;" horiz-adv-x="533" 
d="M332 486q99 0 159 -55t60 -145q0 -26 -13 -92h-356q1 -35 33.5 -65.5t84.5 -30.5q37 0 71 12t49 24l16 12l56 -92q-9 -7 -25 -18t-66 -29.5t-101 -18.5q-113 0 -174 65t-61 160q0 114 81.5 193.5t185.5 79.5zM195 281h239q0 1 0.5 4t0.5 5q0 34 -26 60.5t-77 26.5
q-52 0 -89 -29.5t-48 -66.5zM245 707l88 74l150 -184l-84 -68z" />
    <glyph glyph-name="eacute" unicode="&#xe9;" horiz-adv-x="533" 
d="M332 486q99 0 159 -55t60 -145q0 -26 -13 -92h-356q1 -35 33.5 -65.5t84.5 -30.5q37 0 71 12t49 24l16 12l56 -92q-9 -7 -25 -18t-66 -29.5t-101 -18.5q-113 0 -174 65t-61 160q0 114 81.5 193.5t185.5 79.5zM195 281h239q0 1 0.5 4t0.5 5q0 34 -26 60.5t-77 26.5
q-52 0 -89 -29.5t-48 -66.5zM435 778l74 -88l-199 -164l-69 79z" />
    <glyph glyph-name="ecircumflex" unicode="&#xea;" horiz-adv-x="533" 
d="M169 608l199 131l181 -140l-73 -76l-114 97l-133 -95zM332 486q99 0 159 -55t60 -145q0 -26 -13 -92h-356q1 -35 33.5 -65.5t84.5 -30.5q37 0 71 12t49 24l16 12l56 -92q-9 -7 -25 -18t-66 -29.5t-101 -18.5q-113 0 -174 65t-61 160q0 114 81.5 193.5t185.5 79.5z
M195 281h239q0 1 0.5 4t0.5 5q0 34 -26 60.5t-77 26.5q-52 0 -89 -29.5t-48 -66.5z" />
    <glyph glyph-name="edieresis" unicode="&#xeb;" horiz-adv-x="533" 
d="M183 631q0 33 23 56t56 23t56 -23t23 -56t-23 -56t-56 -23t-56 23t-23 56zM389 631q0 33 23 56t56 23t56 -23t23 -56t-23 -56t-56 -23t-56 23t-23 56zM332 486q99 0 159 -55t60 -145q0 -26 -13 -92h-356q1 -35 33.5 -65.5t84.5 -30.5q37 0 71 12t49 24l16 12l56 -92
q-9 -7 -25 -18t-66 -29.5t-101 -18.5q-113 0 -174 65t-61 160q0 114 81.5 193.5t185.5 79.5zM195 281h239q0 1 0.5 4t0.5 5q0 34 -26 60.5t-77 26.5q-52 0 -89 -29.5t-48 -66.5z" />
    <glyph glyph-name="igrave" unicode="&#xec;" horiz-adv-x="278" 
d="M93 708l88 74l150 -184l-84 -68zM77 0l81 462h120l-81 -462h-120z" />
    <glyph glyph-name="iacute" unicode="&#xed;" horiz-adv-x="278" 
d="M317 778l74 -88l-199 -164l-69 79zM73 0l81 462h120l-81 -462h-120z" />
    <glyph glyph-name="icircumflex" unicode="&#xee;" horiz-adv-x="308" 
d="M94 0l81 462h120l-81 -462h-120zM61 621l199 131l181 -140l-73 -76l-114 97l-133 -95z" />
    <glyph glyph-name="idieresis" unicode="&#xef;" horiz-adv-x="278" 
d="M79 0l81 462h120l-81 -462h-120zM48 631q0 33 23 56t56 23t56 -23t23 -56t-23 -56t-56 -23t-56 23t-23 56zM254 631q0 33 23 56t56 23t56 -23t23 -56t-23 -56t-56 -23t-56 23t-23 56z" />
    <glyph glyph-name="eth" unicode="&#xf0;" horiz-adv-x="577" 
d="M216 516l-31 74l111 48q-25 16 -86 48l51 93q100 -54 149 -92l137 59l32 -73l-105 -46q55 -59 82.5 -126t27.5 -160q0 -92 -31 -170.5t-98 -130.5t-159 -52q-108 0 -169.5 64t-61.5 158q0 112 82.5 194t196.5 82q68 0 107 -27q-24 64 -83 121zM296 100q62 0 109.5 48.5
t47.5 115.5q0 48 -29 79t-80 31q-62 0 -109.5 -48.5t-47.5 -115.5q0 -48 29 -79t80 -31z" />
    <glyph glyph-name="ntilde" unicode="&#xf1;" horiz-adv-x="548" 
d="M394 486q74 0 117.5 -53t28.5 -136l-52 -297h-120l48 277q9 49 -11 73t-61 24q-28 0 -55 -14t-40 -28l-13 -14l-56 -318h-120l83 474h112l-12 -69q7 9 19 22.5t51.5 36t80.5 22.5zM246 556l-81 57q2 4 5 11.5t16 25.5t28 32t41 25.5t55 11.5q32 0 77 -29t61 -29
q19 0 35.5 15.5t22.5 31.5l7 16l79 -61q-2 -4 -5 -11.5t-15.5 -26t-27 -33t-39.5 -26t-54 -11.5q-31 0 -77 28.5t-62 28.5q-19 0 -35.5 -14t-23.5 -28z" />
    <glyph glyph-name="ograve" unicode="&#xf2;" horiz-adv-x="562" 
d="M343 486q112 0 174 -64t62 -158q0 -114 -86 -195t-192 -81q-112 0 -174 64t-62 158q0 115 86 195.5t192 80.5zM301 100q66 0 110 49t44 115q0 48 -29.5 79t-82.5 31q-66 0 -110 -49t-44 -115q0 -48 29.5 -79t82.5 -31zM238 708l88 74l150 -184l-84 -68z" />
    <glyph glyph-name="oacute" unicode="&#xf3;" horiz-adv-x="562" 
d="M456 778l74 -88l-199 -164l-69 79zM343 486q112 0 174 -64t62 -158q0 -114 -86 -195t-192 -81q-112 0 -174 64t-62 158q0 115 86 195.5t192 80.5zM301 100q66 0 110 49t44 115q0 48 -29.5 79t-82.5 31q-66 0 -110 -49t-44 -115q0 -48 29.5 -79t82.5 -31z" />
    <glyph glyph-name="ocircumflex" unicode="&#xf4;" horiz-adv-x="562" 
d="M343 486q112 0 174 -64t62 -158q0 -114 -86 -195t-192 -81q-112 0 -174 64t-62 158q0 115 86 195.5t192 80.5zM301 100q66 0 110 49t44 115q0 48 -29.5 79t-82.5 31q-66 0 -110 -49t-44 -115q0 -48 29.5 -79t82.5 -31zM178 608l199 131l181 -140l-73 -76l-114 97
l-133 -95z" />
    <glyph glyph-name="otilde" unicode="&#xf5;" horiz-adv-x="562" 
d="M343 486q112 0 174 -64t62 -158q0 -114 -86 -195t-192 -81q-112 0 -174 64t-62 158q0 115 86 195.5t192 80.5zM301 100q66 0 110 49t44 115q0 48 -29.5 79t-82.5 31q-66 0 -110 -49t-44 -115q0 -48 29.5 -79t82.5 -31zM253 556l-81 57q2 4 5 11.5t16 25.5t28 32t41 25.5
t55 11.5q32 0 77 -29t61 -29q19 0 35.5 15.5t23.5 31.5l6 16l79 -61q-2 -4 -5 -11.5t-15.5 -26t-27 -33t-39.5 -26t-54 -11.5q-32 0 -77 28.5t-62 28.5q-19 0 -35.5 -14t-23.5 -28z" />
    <glyph glyph-name="odieresis" unicode="&#xf6;" horiz-adv-x="562" 
d="M343 486q112 0 174 -64t62 -158q0 -114 -86 -195t-192 -81q-112 0 -174 64t-62 158q0 115 86 195.5t192 80.5zM301 100q66 0 110 49t44 115q0 48 -29.5 79t-82.5 31q-66 0 -110 -49t-44 -115q0 -48 29.5 -79t82.5 -31zM188 631q0 33 23 56t56 23t56 -23t23 -56t-23 -56
t-56 -23t-56 23t-23 56zM394 631q0 33 23 56t56 23t56 -23t23 -56t-23 -56t-56 -23t-56 23t-23 56z" />
    <glyph glyph-name="divide" unicode="&#xf7;" horiz-adv-x="520" 
d="M67 182l19 110h450l-19 -110h-450zM202 67q0 33 23 56t56 23t56 -23t23 -56t-23 -56t-56 -23t-56 23t-23 56zM241 407q0 33 23 56t56 23t56 -23t23 -56t-23 -56t-56 -23t-56 23t-23 56z" />
    <glyph glyph-name="oslash" unicode="&#xf8;" horiz-adv-x="570" 
d="M343 486q87 0 148 -42l58 57l45 -44l-58 -57q43 -58 43 -136q0 -114 -86 -195t-192 -81q-86 0 -145 40l-58 -57l-45 44l57 56q-45 57 -45 139q0 115 86 195.5t192 80.5zM189 210q0 -29 10 -52l205 201q-27 15 -61 15q-66 0 -110 -49t-44 -115zM301 100q66 0 110 49
t44 115q0 26 -9 48l-203 -199q23 -13 58 -13z" />
    <glyph glyph-name="ugrave" unicode="&#xf9;" horiz-adv-x="548" 
d="M240 -12q-72 0 -117.5 53.5t-31.5 135.5l52 297h120l-48 -274q-19 -100 76 -100q29 0 55 16t38 32l12 15l55 311h120l-83 -474h-112l11 64q-2 -3 -6.5 -8t-19 -18.5t-30 -23.5t-40.5 -18t-51 -8zM219 708l88 74l150 -184l-84 -68z" />
    <glyph glyph-name="uacute" unicode="&#xfa;" horiz-adv-x="548" 
d="M470 778l74 -88l-199 -164l-69 79zM240 -12q-72 0 -117.5 53.5t-31.5 135.5l52 297h120l-48 -274q-19 -100 76 -100q29 0 55 16t38 32l12 15l55 311h120l-83 -474h-112l11 64q-2 -3 -6.5 -8t-19 -18.5t-30 -23.5t-40.5 -18t-51 -8z" />
    <glyph glyph-name="ucircumflex" unicode="&#xfb;" horiz-adv-x="548" 
d="M240 -12q-72 0 -117.5 53.5t-31.5 135.5l52 297h120l-48 -274q-19 -100 76 -100q29 0 55 16t38 32l12 15l55 311h120l-83 -474h-112l11 64q-2 -3 -6.5 -8t-19 -18.5t-30 -23.5t-40.5 -18t-51 -8zM180 608l199 131l181 -140l-73 -76l-114 97l-133 -95z" />
    <glyph glyph-name="udieresis" unicode="&#xfc;" horiz-adv-x="548" 
d="M240 -12q-72 0 -117.5 53.5t-31.5 135.5l52 297h120l-48 -274q-19 -100 76 -100q29 0 55 16t38 32l12 15l55 311h120l-83 -474h-112l11 64q-2 -3 -6.5 -8t-19 -18.5t-30 -23.5t-40.5 -18t-51 -8zM186 631q0 33 23 56t56 23t56 -23t23 -56t-23 -56t-56 -23t-56 23t-23 56z
M392 631q0 33 23 56t56 23t56 -23t23 -56t-23 -56t-56 -23t-56 23t-23 56z" />
    <glyph glyph-name="yacute" unicode="&#xfd;" horiz-adv-x="557" 
d="M468 778l74 -88l-199 -164l-69 79zM-13 -194l56 95q31 -31 70 -31q31 0 50 14t45 59l28 49l-145 482h130l97 -345l184 345h136l-332 -580q-44 -76 -87.5 -106t-102.5 -30q-33 0 -65.5 12t-48.5 24z" />
    <glyph glyph-name="thorn" unicode="&#xfe;" horiz-adv-x="583" 
d="M207 756h120l-58 -327q57 57 144 57q84 0 137.5 -62.5t53.5 -156.5q0 -119 -79 -199t-183 -80q-50 0 -88.5 20t-51.5 40l-49 -278h-120zM248 308l-26 -147q1 -2 3 -6.5t10 -15t18.5 -18.5t29.5 -14.5t41 -6.5q68 0 112.5 49t44.5 118q0 48 -29 77.5t-80 29.5
q-35 0 -66 -16.5t-44 -33.5z" />
    <glyph glyph-name="ydieresis" unicode="&#xff;" horiz-adv-x="557" 
d="M-12 -194l56 95q31 -31 70 -31q31 0 50 14t45 59l28 49l-145 482h130l97 -345l184 345h136l-332 -580q-44 -76 -87.5 -106t-102.5 -30q-33 0 -65.5 12t-47.5 24zM196 631q0 33 23 56t56 23t56 -23t23 -56t-23 -56t-56 -23t-56 23t-23 56zM402 631q0 33 23 56t56 23
t56 -23t23 -56t-23 -56t-56 -23t-56 23t-23 56z" />
    <glyph glyph-name="Amacron" unicode="&#x100;" horiz-adv-x="678" 
d="M6 0l395 700h122l149 -700h-118l-35 166h-292l-93 -166h-128zM439 546l-150 -270h206zM303 790l19 108h322l-19 -108h-322z" />
    <glyph glyph-name="amacron" unicode="&#x101;" horiz-adv-x="536" 
d="M261 88q32 0 62 14t44 28l14 13l9 49q-39 24 -104 24q-37 0 -69 -19t-32 -56q0 -29 22.5 -41t53.5 -12zM331 486q102 0 157 -50.5t41 -131.5l-53 -304h-111l10 60q-7 -8 -20 -20t-54.5 -32t-83.5 -20q-71 0 -113.5 42.5t-42.5 106.5q0 76 61.5 121.5t144.5 45.5
q37 0 70.5 -10t48.5 -20l16 -9l6 32q8 43 -20.5 62.5t-73.5 19.5q-31 0 -67 -7.5t-57 -15.5l-21 -8l-31 102q94 36 193 36zM210 567l19 108h322l-19 -108h-322z" />
    <glyph glyph-name="Abreve" unicode="&#x102;" horiz-adv-x="678" 
d="M6 0l395 700h122l149 -700h-118l-35 166h-292l-93 -166h-128zM439 546l-150 -270h206zM310 918h108q-1 -3 -1.5 -8t1 -17t6.5 -21.5t18.5 -17.5t33.5 -8q32 0 53 18t26 36l5 18h108q-1 -7 -3 -18t-15 -39t-32.5 -50t-58 -39.5t-88.5 -17.5q-54 0 -90.5 17t-50 41t-19 48
t-3.5 41z" />
    <glyph glyph-name="abreve" unicode="&#x103;" horiz-adv-x="536" 
d="M261 88q32 0 62 14t44 28l14 13l9 49q-39 24 -104 24q-37 0 -69 -19t-32 -56q0 -29 22.5 -41t53.5 -12zM331 486q102 0 157 -50.5t41 -131.5l-53 -304h-111l10 60q-7 -8 -20 -20t-54.5 -32t-83.5 -20q-71 0 -113.5 42.5t-42.5 106.5q0 76 61.5 121.5t144.5 45.5
q37 0 70.5 -10t48.5 -20l16 -9l6 32q8 43 -20.5 62.5t-73.5 19.5q-31 0 -67 -7.5t-57 -15.5l-21 -8l-31 102q94 36 193 36zM212 712h108q-1 -3 -1.5 -8t1 -17t6.5 -21.5t18.5 -17.5t33.5 -8q32 0 53 18t26 36l5 18h108q-1 -7 -3 -18t-15 -39t-32.5 -50t-58 -39.5
t-88.5 -17.5q-54 0 -90.5 17t-50 41t-19 48t-3.5 41z" />
    <glyph glyph-name="Aogonek" unicode="&#x104;" horiz-adv-x="678" 
d="M8 0l393 700h122l149 -700q-4 -1 -11 -4t-25.5 -12t-32 -18.5t-25 -25t-11.5 -30.5q0 -37 44 -37q9 0 20 2t17 4l7 2l-16 -95q-31 -9 -58 -9q-51 0 -81.5 30t-30.5 77q0 44 27.5 74.5t56.5 46.5l-34 161h-292l-93 -166h-126zM439 549l-150 -273h206z" />
    <glyph glyph-name="aogonek" unicode="&#x105;" horiz-adv-x="536" 
d="M331 486q102 0 157 -50.5t41 -131.5l-53 -304q-4 -1 -11 -4t-25.5 -12t-32 -18.5t-25 -25t-11.5 -30.5q0 -37 44 -37q9 0 20 2t17 4l7 2l-16 -95q-31 -9 -58 -9q-51 0 -81.5 30t-30.5 77q0 23 10 44t21.5 34.5t27.5 25.5t22 15.5t12 6.5l9 50q-7 -8 -20 -20t-54.5 -32
t-83.5 -20q-71 0 -113.5 42.5t-42.5 106.5q0 76 61.5 121.5t144.5 45.5q37 0 70.5 -10t48.5 -20l16 -9l6 32q8 43 -20.5 62.5t-73.5 19.5q-31 0 -67 -7.5t-57 -15.5l-21 -8l-31 102q94 36 193 36zM261 88q32 0 62 14t44 28l14 13l9 49q-39 24 -104 24q-37 0 -69 -19t-32 -56
q0 -29 22.5 -41t53.5 -12z" />
    <glyph glyph-name="Cacute" unicode="&#x106;" horiz-adv-x="676" 
d="M406 100q34 0 67.5 9t57 21.5t41.5 25t27 21.5l9 9l70 -88q-4 -4 -12.5 -11.5t-36.5 -26.5t-57.5 -33.5t-75 -26.5t-90.5 -12q-151 0 -234 93.5t-83 229.5q0 166 121.5 283.5t283.5 117.5q50 0 95 -11.5t74 -27.5t50.5 -32t30.5 -27l10 -12l-79 -79q-3 3 -8 8.5
t-22.5 18.5t-37 23t-50.5 18.5t-63 8.5q-119 0 -200 -85.5t-81 -203.5q0 -90 50.5 -150.5t142.5 -60.5zM567 996l74 -88l-199 -164l-69 79z" />
    <glyph glyph-name="cacute" unicode="&#x107;" horiz-adv-x="494" 
d="M437 778l74 -88l-199 -164l-69 79zM300 100q36 0 68 13t46 27l14 13l65 -91q-9 -8 -25 -20.5t-66 -33t-102 -20.5q-110 0 -172.5 64.5t-62.5 157.5q0 116 86 196t197 80q41 0 76 -9t56.5 -22t37 -26t22.5 -22l6 -9l-86 -73q-4 5 -12.5 13.5t-37.5 22t-62 13.5
q-65 0 -112 -49.5t-47 -114.5q0 -47 31 -78.5t80 -31.5z" />
    <glyph glyph-name="Ccircumflex" unicode="&#x108;" horiz-adv-x="676" 
d="M406 100q34 0 67.5 9t57 21.5t41.5 25t27 21.5l9 9l70 -88q-4 -4 -12.5 -11.5t-36.5 -26.5t-57.5 -33.5t-75 -26.5t-90.5 -12q-151 0 -234 93.5t-83 229.5q0 166 121.5 283.5t283.5 117.5q50 0 95 -11.5t74 -27.5t50.5 -32t30.5 -27l10 -12l-79 -79q-3 3 -8 8.5
t-22.5 18.5t-37 23t-50.5 18.5t-63 8.5q-119 0 -200 -85.5t-81 -203.5q0 -90 50.5 -150.5t142.5 -60.5zM314 837l199 131l181 -140l-73 -76l-114 97l-133 -95z" />
    <glyph glyph-name="ccircumflex" unicode="&#x109;" horiz-adv-x="497" 
d="M178 608l199 131l181 -140l-73 -76l-114 97l-133 -95zM300 100q36 0 68 13t46 27l14 13l65 -91q-9 -8 -25 -20.5t-66 -33t-102 -20.5q-110 0 -172.5 64.5t-62.5 157.5q0 116 86 196t197 80q41 0 76 -9t56.5 -22t37 -26t22.5 -22l6 -9l-86 -73q-4 5 -12.5 13.5t-37.5 22
t-62 13.5q-65 0 -112 -49.5t-47 -114.5q0 -47 31 -78.5t80 -31.5z" />
    <glyph glyph-name="Cdotaccent" unicode="&#x10a;" horiz-adv-x="676" 
d="M406 100q34 0 67.5 9t57 21.5t41.5 25t27 21.5l9 9l70 -88q-4 -4 -12.5 -11.5t-36.5 -26.5t-57.5 -33.5t-75 -26.5t-90.5 -12q-151 0 -234 93.5t-83 229.5q0 166 121.5 283.5t283.5 117.5q50 0 95 -11.5t74 -27.5t50.5 -32t30.5 -27l10 -12l-79 -79q-3 3 -8 8.5
t-22.5 18.5t-37 23t-50.5 18.5t-63 8.5q-119 0 -200 -85.5t-81 -203.5q0 -90 50.5 -150.5t142.5 -60.5zM430 851q0 33 23 56t56 23t56 -23t23 -56t-23 -56t-56 -23t-56 23t-23 56z" />
    <glyph glyph-name="cdotaccent" unicode="&#x10b;" horiz-adv-x="494" 
d="M286 627q0 33 23 56t56 23t56 -23t23 -56t-23 -56t-56 -23t-56 23t-23 56zM300 100q36 0 68 13t46 27l14 13l65 -91q-9 -8 -25 -20.5t-66 -33t-102 -20.5q-110 0 -172.5 64.5t-62.5 157.5q0 116 86 196t197 80q41 0 76 -9t56.5 -22t37 -26t22.5 -22l6 -9l-86 -73
q-4 5 -12.5 13.5t-37.5 22t-62 13.5q-65 0 -112 -49.5t-47 -114.5q0 -47 31 -78.5t80 -31.5z" />
    <glyph glyph-name="Ccaron" unicode="&#x10c;" horiz-adv-x="676" 
d="M406 100q34 0 67.5 9t57 21.5t41.5 25t27 21.5l9 9l70 -88q-4 -4 -12.5 -11.5t-36.5 -26.5t-57.5 -33.5t-75 -26.5t-90.5 -12q-151 0 -234 93.5t-83 229.5q0 166 121.5 283.5t283.5 117.5q50 0 95 -11.5t74 -27.5t50.5 -32t30.5 -27l10 -12l-79 -79q-3 3 -8 8.5
t-22.5 18.5t-37 23t-50.5 18.5t-63 8.5q-119 0 -200 -85.5t-81 -203.5q0 -90 50.5 -150.5t142.5 -60.5zM502 745l-178 134l74 79l115 -93l133 96l59 -82z" />
    <glyph glyph-name="ccaron" unicode="&#x10d;" horiz-adv-x="497" 
d="M354 536l-178 134l74 79l115 -93l133 96l59 -82zM300 100q36 0 68 13t46 27l14 13l65 -91q-9 -8 -25 -20.5t-66 -33t-102 -20.5q-110 0 -172.5 64.5t-62.5 157.5q0 116 86 196t197 80q41 0 76 -9t56.5 -22t37 -26t22.5 -22l6 -9l-86 -73q-4 5 -12.5 13.5t-37.5 22
t-62 13.5q-65 0 -112 -49.5t-47 -114.5q0 -47 31 -78.5t80 -31.5z" />
    <glyph glyph-name="Dcaron" unicode="&#x10e;" horiz-adv-x="680" 
d="M423 700q134 0 212.5 -86.5t78.5 -214.5q0 -107 -44 -196.5t-133 -146t-207 -56.5h-256l123 700h226zM322 114q124 0 195.5 84t71.5 201q0 82 -49 134.5t-135 52.5h-108l-83 -472h108zM432 743l-178 134l74 79l115 -93l133 96l59 -82z" />
    <glyph glyph-name="dcaron" unicode="&#x10f;" horiz-adv-x="705" 
d="M646 756l-133 -756h-111l10 62q-7 -8 -19 -20.5t-52.5 -33t-84.5 -20.5q-81 0 -136 60.5t-55 159.5q0 119 82.5 198.5t186.5 79.5q40 0 73.5 -15t46.5 -29l14 -15l58 329h120zM423 171l25 142q-1 2 -3 6.5t-10.5 15t-19 18.5t-29.5 14.5t-41 6.5q-66 0 -111 -49t-45 -117
q0 -49 28 -78.5t80 -29.5q36 0 67.5 18t45.5 36zM673 454l43 246h106l-43 -246h-106z" />
    <glyph glyph-name="Dcroat" unicode="&#x110;" horiz-adv-x="703" 
d="M451 700q131 0 211 -87t80 -214q0 -107 -44 -196.5t-133 -146t-207 -56.5h-256l53 305h-90l19 104h90l51 291h226zM350 114q124 0 195.5 84t71.5 201q0 82 -49 134.5t-135 52.5h-108l-31 -177h202l-19 -104h-202l-33 -191h108z" />
    <glyph glyph-name="dcroat" unicode="&#x111;" horiz-adv-x="605" 
d="M646 756l-18 -101h80l-18 -100h-80l-97 -555h-111l11 67q-2 -3 -7 -8.5t-20 -19t-32 -24t-44 -19t-54 -8.5q-82 0 -136.5 60.5t-54.5 159.5q0 120 82 199t185 79q40 0 74 -15.5t48 -30.5l13 -16l23 131h-155l18 100h155l18 101h120zM422 166l26 147q-1 2 -3 6.5t-10.5 15
t-19 18.5t-29.5 14.5t-41 6.5q-67 0 -112 -49t-45 -117q0 -49 28.5 -78.5t80.5 -29.5q35 0 66.5 16.5t44.5 33.5z" />
    <glyph glyph-name="Emacron" unicode="&#x112;" horiz-adv-x="546" 
d="M297 586l-30 -170h280l-20 -114h-280l-33 -188h310l-20 -114h-430l123 700h424l-20 -114h-304zM255 795l19 108h322l-19 -108h-322z" />
    <glyph glyph-name="emacron" unicode="&#x113;" horiz-adv-x="533" 
d="M197 567l19 108h322l-19 -108h-322zM332 486q99 0 159 -55t60 -145q0 -26 -13 -92h-356q1 -35 33.5 -65.5t84.5 -30.5q37 0 71 12t49 24l16 12l56 -92q-9 -7 -25 -18t-66 -29.5t-101 -18.5q-113 0 -174 65t-61 160q0 114 81.5 193.5t185.5 79.5zM195 281h239q0 1 0.5 4
t0.5 5q0 34 -26 60.5t-77 26.5q-52 0 -89 -29.5t-48 -66.5z" />
    <glyph glyph-name="Ebreve" unicode="&#x114;" horiz-adv-x="546" 
d="M297 586l-30 -170h280l-20 -114h-280l-33 -188h310l-20 -114h-430l123 700h424l-20 -114h-304zM251 918h108q-1 -3 -1.5 -8t1 -17t6.5 -21.5t18.5 -17.5t33.5 -8q32 0 53 18t26 36l5 18h108q-1 -7 -3 -18t-15 -39t-32.5 -50t-58 -39.5t-88.5 -17.5q-54 0 -90.5 17t-50 41
t-19 48t-3.5 41z" />
    <glyph glyph-name="ebreve" unicode="&#x115;" horiz-adv-x="533" 
d="M200 712h108q-1 -3 -1.5 -8t1 -17t6.5 -21.5t18.5 -17.5t33.5 -8q32 0 53 18t26 36l5 18h108q-1 -7 -3 -18t-15 -39t-32.5 -50t-58 -39.5t-88.5 -17.5q-54 0 -90.5 17t-50 41t-19 48t-3.5 41zM332 486q99 0 159 -55t60 -145q0 -26 -13 -92h-356q1 -35 33.5 -65.5
t84.5 -30.5q37 0 71 12t49 24l16 12l56 -92q-9 -7 -25 -18t-66 -29.5t-101 -18.5q-113 0 -174 65t-61 160q0 114 81.5 193.5t185.5 79.5zM195 281h239q0 1 0.5 4t0.5 5q0 34 -26 60.5t-77 26.5q-52 0 -89 -29.5t-48 -66.5z" />
    <glyph glyph-name="Edotaccent" unicode="&#x116;" horiz-adv-x="546" 
d="M297 586l-30 -170h280l-20 -114h-280l-33 -188h310l-20 -114h-430l123 700h424l-20 -114h-304zM345 851q0 33 23 56t56 23t56 -23t23 -56t-23 -56t-56 -23t-56 23t-23 56z" />
    <glyph glyph-name="edotaccent" unicode="&#x117;" horiz-adv-x="533" 
d="M286 627q0 33 23 56t56 23t56 -23t23 -56t-23 -56t-56 -23t-56 23t-23 56zM332 486q99 0 159 -55t60 -145q0 -26 -13 -92h-356q1 -35 33.5 -65.5t84.5 -30.5q37 0 71 12t49 24l16 12l56 -92q-9 -7 -25 -18t-66 -29.5t-101 -18.5q-113 0 -174 65t-61 160q0 114 81.5 193.5
t185.5 79.5zM195 281h239q0 1 0.5 4t0.5 5q0 34 -26 60.5t-77 26.5q-52 0 -89 -29.5t-48 -66.5z" />
    <glyph glyph-name="Eogonek" unicode="&#x118;" horiz-adv-x="546" 
d="M297 586l-30 -170h280l-20 -114h-280l-33 -188h310l-20 -114h-430l123 700h424l-20 -114h-304zM393 0h111q-4 -1 -11 -4t-25.5 -12t-32 -18.5t-25 -25t-11.5 -30.5q0 -37 44 -37q9 0 20 2t17 4l7 2l-16 -95q-31 -9 -58 -9q-51 0 -81.5 30t-30.5 77q0 34 23 63t46 41z" />
    <glyph glyph-name="eogonek" unicode="&#x119;" horiz-adv-x="533" 
d="M332 486q99 0 159 -55t60 -145q0 -26 -13 -92h-356q1 -35 33.5 -65.5t84.5 -30.5q37 0 71 12t49 24l16 12l56 -92q-59 -49 -148 -62q-83 -35 -83 -82q0 -37 44 -37q9 0 20 2t17 4l7 2l-16 -95q-31 -9 -58 -9q-51 0 -81.5 30t-30.5 77q0 39 25.5 67t53.5 43
q-82 17 -129.5 78.5t-47.5 140.5q0 115 80 194t187 79zM195 281h239q0 1 0.5 4t0.5 5q0 34 -26 60.5t-77 26.5q-52 0 -89 -29.5t-48 -66.5z" />
    <glyph glyph-name="Ecaron" unicode="&#x11a;" horiz-adv-x="546" 
d="M297 586l-30 -170h280l-20 -114h-280l-33 -188h310l-20 -114h-430l123 700h424l-20 -114h-304zM414 745l-178 134l74 79l115 -93l133 96l59 -82z" />
    <glyph glyph-name="ecaron" unicode="&#x11b;" horiz-adv-x="533" 
d="M332 486q99 0 159 -55t60 -145q0 -26 -13 -92h-356q1 -35 33.5 -65.5t84.5 -30.5q37 0 71 12t49 24l16 12l56 -92q-9 -7 -25 -18t-66 -29.5t-101 -18.5q-113 0 -174 65t-61 160q0 114 81.5 193.5t185.5 79.5zM195 281h239q0 1 0.5 4t0.5 5q0 34 -26 60.5t-77 26.5
q-52 0 -89 -29.5t-48 -66.5zM356 526l-178 134l74 79l115 -93l133 96l59 -82z" />
    <glyph glyph-name="Gcircumflex" unicode="&#x11c;" horiz-adv-x="713" 
d="M419 100q44 0 80.5 7t50.5 15l15 7l27 153h-159l20 112h277l-60 -339q-12 -8 -33.5 -19t-87.5 -29.5t-130 -18.5q-156 0 -243 89t-87 228q0 171 121.5 289t291.5 118q52 0 98.5 -11t75 -26t49.5 -30.5t29 -26.5l9 -11l-83 -78q-2 3 -7 7.5t-21.5 17t-35.5 22t-50 17
t-64 7.5q-125 0 -207 -87.5t-82 -207.5q0 -89 56 -147t150 -58zM333 847l199 131l181 -140l-73 -76l-114 97l-133 -95z" />
    <glyph glyph-name="gcircumflex" unicode="&#x11d;" horiz-adv-x="573" 
d="M485 474h111l-84 -478q-21 -118 -98.5 -178t-183.5 -60q-38 0 -75 9t-63 22t-46 25.5t-30 21.5l-10 9l67 94l7.5 -7.5t20.5 -16.5t33 -21t43.5 -16.5t52.5 -7.5q68 0 109.5 33.5t51.5 88.5l10 57q-58 -61 -145 -61q-82 0 -136.5 60.5t-54.5 159.5q0 119 82.5 198.5
t186.5 79.5q27 0 52 -7t40.5 -17t27 -20.5t16.5 -17.5l5 -7zM423 171l25 142q-1 2 -3 6.5t-10.5 15t-19 18.5t-29 14.5t-40.5 6.5q-67 0 -112 -49t-45 -117q0 -49 27.5 -78.5t79.5 -29.5q36 0 68 18t46 36zM184 608l199 131l181 -140l-73 -76l-114 97l-133 -95z" />
    <glyph glyph-name="Gbreve" unicode="&#x11e;" horiz-adv-x="713" 
d="M419 100q44 0 80.5 7t50.5 15l15 7l27 153h-159l20 112h277l-60 -339q-12 -8 -33.5 -19t-87.5 -29.5t-130 -18.5q-156 0 -243 89t-87 228q0 171 121.5 289t291.5 118q52 0 98.5 -11t75 -26t49.5 -30.5t29 -26.5l9 -11l-83 -78q-2 3 -7 7.5t-21.5 17t-35.5 22t-50 17
t-64 7.5q-125 0 -207 -87.5t-82 -207.5q0 -89 56 -147t150 -58zM346 928h108q-1 -3 -1.5 -8t1 -17t6.5 -21.5t18.5 -17.5t33.5 -8q32 0 53 18t26 36l5 18h108q-1 -7 -3 -18t-15 -39t-32.5 -50t-58 -39.5t-88.5 -17.5q-54 0 -90.5 17t-50 41t-19 48t-3.5 41z" />
    <glyph glyph-name="gbreve" unicode="&#x11f;" horiz-adv-x="573" 
d="M485 474h111l-84 -478q-21 -118 -98.5 -178t-183.5 -60q-38 0 -75 9t-63 22t-46 25.5t-30 21.5l-10 9l67 94l7.5 -7.5t20.5 -16.5t33 -21t43.5 -16.5t52.5 -7.5q68 0 109.5 33.5t51.5 88.5l10 57q-58 -61 -145 -61q-82 0 -136.5 60.5t-54.5 159.5q0 119 82.5 198.5
t186.5 79.5q27 0 52 -7t40.5 -17t27 -20.5t16.5 -17.5l5 -7zM423 171l25 142q-1 2 -3 6.5t-10.5 15t-19 18.5t-29 14.5t-40.5 6.5q-67 0 -112 -49t-45 -117q0 -49 27.5 -78.5t79.5 -29.5q36 0 68 18t46 36zM213 712h108q-1 -3 -1.5 -8t1 -17t6.5 -21.5t18.5 -17.5t33.5 -8
q32 0 53 18t26 36l5 18h108q-1 -7 -3 -18t-15 -39t-32.5 -50t-58 -39.5t-88.5 -17.5q-54 0 -90.5 17t-50 41t-19 48t-3.5 41z" />
    <glyph glyph-name="Gdotaccent" unicode="&#x120;" horiz-adv-x="713" 
d="M419 100q44 0 80.5 7t50.5 15l15 7l27 153h-159l20 112h277l-60 -339q-12 -8 -33.5 -19t-87.5 -29.5t-130 -18.5q-156 0 -243 89t-87 228q0 171 121.5 289t291.5 118q52 0 98.5 -11t75 -26t49.5 -30.5t29 -26.5l9 -11l-83 -78q-2 3 -7 7.5t-21.5 17t-35.5 22t-50 17
t-64 7.5q-125 0 -207 -87.5t-82 -207.5q0 -89 56 -147t150 -58zM433 851q0 33 23 56t56 23t56 -23t23 -56t-23 -56t-56 -23t-56 23t-23 56z" />
    <glyph glyph-name="gdotaccent" unicode="&#x121;" horiz-adv-x="573" 
d="M485 474h111l-84 -478q-21 -118 -98.5 -178t-183.5 -60q-38 0 -75 9t-63 22t-46 25.5t-30 21.5l-10 9l67 94l7.5 -7.5t20.5 -16.5t33 -21t43.5 -16.5t52.5 -7.5q68 0 109.5 33.5t51.5 88.5l10 57q-58 -61 -145 -61q-82 0 -136.5 60.5t-54.5 159.5q0 119 82.5 198.5
t186.5 79.5q27 0 52 -7t40.5 -17t27 -20.5t16.5 -17.5l5 -7zM423 171l25 142q-1 2 -3 6.5t-10.5 15t-19 18.5t-29 14.5t-40.5 6.5q-67 0 -112 -49t-45 -117q0 -49 27.5 -78.5t79.5 -29.5q36 0 68 18t46 36zM287 627q0 33 23 56t56 23t56 -23t23 -56t-23 -56t-56 -23t-56 23
t-23 56z" />
    <glyph glyph-name="Gcedilla" unicode="&#x122;" horiz-adv-x="713" 
d="M419 100q44 0 80.5 7t50.5 15l15 7l27 153h-159l20 112h277l-60 -339q-12 -8 -33.5 -19t-87.5 -29.5t-130 -18.5q-156 0 -243 89t-87 228q0 171 121.5 289t291.5 118q52 0 98.5 -11t75 -26t49.5 -30.5t29 -26.5l9 -11l-83 -78q-2 3 -7 7.5t-21.5 17t-35.5 22t-50 17
t-64 7.5q-125 0 -207 -87.5t-82 -207.5q0 -89 56 -147t150 -58zM443 -54l-99 -217l-111 29l101 197z" />
    <glyph glyph-name="gcedilla" unicode="&#x123;" horiz-adv-x="573" 
d="M485 474h111l-84 -478q-21 -118 -98.5 -178t-183.5 -60q-38 0 -75 9t-63 22t-46 25.5t-30 21.5l-10 9l67 94l7.5 -7.5t20.5 -16.5t33 -21t43.5 -16.5t52.5 -7.5q68 0 109.5 33.5t51.5 88.5l10 57q-58 -61 -145 -61q-82 0 -136.5 60.5t-54.5 159.5q0 119 82.5 198.5
t186.5 79.5q27 0 52 -7t40.5 -17t27 -20.5t16.5 -17.5l5 -7zM423 171l25 142q-1 2 -3 6.5t-10.5 15t-19 18.5t-29 14.5t-40.5 6.5q-67 0 -112 -49t-45 -117q0 -49 27.5 -78.5t79.5 -29.5q36 0 68 18t46 36zM289 551l99 217l111 -29l-101 -197z" />
    <glyph glyph-name="Hcircumflex" unicode="&#x124;" horiz-adv-x="687" 
d="M566 415l50 285h120l-123 -700h-120l53 301h-299l-53 -301h-120l123 700h120l-50 -285h299zM287 837l199 131l181 -140l-73 -76l-114 97l-133 -95z" />
    <glyph glyph-name="hcircumflex" unicode="&#x125;" horiz-adv-x="562" 
d="M408 486q74 0 117.5 -53t28.5 -136l-52 -297h-120l48 277q9 49 -11 73t-61 24q-28 0 -55 -14t-40 -28l-13 -14l-56 -318h-120l133 756h120l-60 -339q63 69 141 69zM82 867l199 131l181 -140l-73 -76l-114 97l-133 -95z" />
    <glyph glyph-name="Hbar" unicode="&#x126;" horiz-adv-x="701" 
d="M114 606h73l17 94h120l-17 -94h299l17 94h120l-17 -94h73l-17 -100h-73l-89 -506h-120l53 301h-299l-53 -301h-120l89 506h-73zM573 415l16 91h-299l-16 -91h299z" />
    <glyph glyph-name="hbar" unicode="&#x127;" horiz-adv-x="576" 
d="M105 555l18 100h80l18 101h120l-18 -101h145l-18 -100h-145l-24 -138q63 69 141 69q74 0 117.5 -53t28.5 -136l-52 -297h-120l48 277q9 49 -11 73t-61 24q-28 0 -55 -14t-40 -28l-13 -14l-56 -318h-120l97 555h-80z" />
    <glyph glyph-name="Itilde" unicode="&#x128;" horiz-adv-x="296" 
d="M88 0l123 700h120l-123 -700h-120zM154 767l-81 57q2 4 5 11.5t16 25.5t28 32t41 25.5t55 11.5q32 0 77 -29t61 -29q19 0 35.5 16t22.5 32l7 15l79 -61q-2 -4 -5 -11.5t-15.5 -26t-27 -33t-39.5 -26t-54 -11.5q-31 0 -77 28.5t-62 28.5q-19 0 -35.5 -14t-23.5 -28z" />
    <glyph glyph-name="itilde" unicode="&#x129;" horiz-adv-x="343" 
d="M112 0l81 462h120l-81 -462h-120zM138 529l-81 57q2 4 5 11.5t16 25.5t28 32t41 25.5t55 11.5q32 0 77 -29t61 -29q19 0 35.5 16t22.5 32l7 15l79 -61q-2 -4 -5 -11.5t-15.5 -26t-27 -33t-39.5 -26t-54 -11.5q-31 0 -77 28.5t-62 28.5q-19 0 -35.5 -14t-23.5 -28z" />
    <glyph glyph-name="Imacron" unicode="&#x12a;" horiz-adv-x="296" 
d="M88 0l123 700h120l-123 -700h-120zM115 790l19 108h322l-19 -108h-322z" />
    <glyph glyph-name="imacron" unicode="&#x12b;" horiz-adv-x="286" 
d="M82 0l81 462h120l-81 -462h-120zM72 568l19 108h322l-19 -108h-322z" />
    <glyph glyph-name="Ibreve" unicode="&#x12c;" horiz-adv-x="296" 
d="M88 0l123 700h120l-123 -700h-120zM122 918h108q-1 -3 -1.5 -8t1 -17t6.5 -21.5t18.5 -17.5t33.5 -8q32 0 53 18t26 36l5 18h108q-1 -7 -3 -18t-15 -39t-32.5 -50t-58 -39.5t-88.5 -17.5q-54 0 -90.5 17t-50 41t-19 48t-3.5 41z" />
    <glyph glyph-name="ibreve" unicode="&#x12d;" horiz-adv-x="294" 
d="M85 0l81 462h120l-81 -462h-120zM85 712h108q-1 -3 -1.5 -8t1 -17t6.5 -21.5t18.5 -17.5t33.5 -8q32 0 53 18t26 36l5 18h108q-1 -7 -3 -18t-15 -39t-32.5 -50t-58 -39.5t-88.5 -17.5q-54 0 -90.5 17t-50 41t-19 48t-3.5 41z" />
    <glyph glyph-name="Iogonek" unicode="&#x12e;" horiz-adv-x="296" 
d="M88 5l123 695h120l-123 -700q-4 -1 -11 -4t-25.5 -12t-32 -18.5t-25 -25t-11.5 -30.5q0 -37 44 -37q9 0 20 2t17 4l7 2l-16 -95q-31 -9 -58 -9q-51 0 -81.5 30t-30.5 77q0 22 8.5 42t21 34t24.5 24.5t21 15.5z" />
    <glyph glyph-name="iogonek" unicode="&#x12f;" horiz-adv-x="278" 
d="M170 627q6 33 33 56t60 23t52 -23t13 -56t-33 -56t-60 -23t-52 23t-13 56zM79 5l83 469h120l-83 -474q-4 -1 -11 -4t-25.5 -12t-32 -18.5t-25 -25t-11.5 -30.5q0 -37 44 -37q9 0 20 2t18 4l6 2l-16 -95q-31 -9 -58 -9q-51 0 -81.5 30t-30.5 77q0 34 21 64.5t41 43.5z" />
    <glyph glyph-name="Idotaccent" unicode="&#x130;" horiz-adv-x="296" 
d="M89 0l123 700h120l-123 -700h-120zM208 835q0 33 23 56t56 23t56 -23t23 -56t-23 -56t-56 -23t-56 23t-23 56z" />
    <glyph glyph-name="dotlessi" unicode="&#x131;" horiz-adv-x="278" 
d="M79 0l81 462h120l-81 -462h-120z" />
    <glyph glyph-name="IJ" unicode="&#x132;" horiz-adv-x="748" 
d="M88 0l123 700h120l-123 -700h-120zM592 216l85 484h120l-85 -480q-20 -111 -86.5 -171.5t-173.5 -60.5q-38 0 -73 12t-57.5 28.5t-40 33.5t-25.5 29l-8 12l87 77q2 -3 5 -8.5t14 -19t24 -23.5t33 -18.5t41 -8.5q62 0 96.5 33.5t43.5 80.5z" />
    <glyph glyph-name="ij" unicode="&#x133;" horiz-adv-x="494" 
d="M79 0l83 474h120l-83 -474h-120zM165 627q0 33 23 56t56 23t56 -23t23 -56t-23 -56t-56 -23t-56 23t-23 56zM90 -211l47 103q28 -21 62 -21q18 0 32.5 4t33 27.5t25.5 65.5l89 506h120l-91 -517q-10 -55 -32 -96t-51 -62.5t-59 -31t-62 -9.5q-33 0 -61.5 8t-40.5 16z
M382 627q0 33 23 56t56 23t56 -23t23 -56t-23 -56t-56 -23t-56 23t-23 56z" />
    <glyph glyph-name="Jcircumflex" unicode="&#x134;" horiz-adv-x="521" 
d="M365 216l85 484h120l-85 -480q-20 -111 -86.5 -171.5t-173.5 -60.5q-38 0 -73 12t-57.5 28.5t-40 33.5t-25.5 29l-8 12l87 77q2 -3 5 -8.5t14 -19t24 -23.5t33 -18.5t41 -8.5q62 0 96.5 33.5t43.5 80.5zM329 824l199 131l181 -140l-73 -76l-114 97l-133 -95z" />
    <glyph glyph-name="jcircumflex" unicode="&#x135;" horiz-adv-x="331" 
d="M-72 -211l62 100q24 -19 46 -19q21 0 35.5 4.5t31.5 27.5t24 66l89 506h120l-91 -517q-10 -55 -34 -96t-55.5 -62t-62 -31t-59.5 -10q-60 0 -106 31zM95 608l199 131l181 -140l-73 -76l-114 97l-133 -95z" />
    <glyph glyph-name="Kcedilla" unicode="&#x136;" horiz-adv-x="628" 
d="M317 700l-54 -305l298 305h156l-335 -344l246 -356h-146l-230 334l-58 -334h-120l123 700h120zM385 -44l-99 -217l-111 29l101 197z" />
    <glyph glyph-name="kcedilla" unicode="&#x137;" horiz-adv-x="535" 
d="M327 756l-81 -459l191 177h165l-247 -224l178 -250h-148l-153 218l-38 -218h-120l133 756h120zM350 -54l-99 -217l-111 29l101 197z" />
    <glyph glyph-name="kgreenlandic" unicode="&#x138;" horiz-adv-x="521" 
d="M369 0l-152 217l-37 -217h-120l83 474h120l-33 -184l199 184h159l-247 -224l178 -250h-150z" />
    <glyph glyph-name="Lacute" unicode="&#x139;" horiz-adv-x="500" 
d="M74 0l123 700h120l-103 -586h298l-20 -114h-418zM351 996l74 -88l-199 -164l-69 79z" />
    <glyph glyph-name="lacute" unicode="&#x13a;" horiz-adv-x="268" 
d="M74 0l133 756h120l-133 -756h-120zM351 1038l74 -88l-199 -164l-69 79z" />
    <glyph glyph-name="Lcedilla" unicode="&#x13b;" horiz-adv-x="500" 
d="M74 0l123 700h120l-103 -586h298l-20 -114h-418zM353 -54l-99 -217l-111 29l101 197z" />
    <glyph glyph-name="lcedilla" unicode="&#x13c;" horiz-adv-x="268" 
d="M74 0l133 756h120l-133 -756h-120zM204 -54l-99 -217l-111 29l101 197z" />
    <glyph glyph-name="Lcaron" unicode="&#x13d;" horiz-adv-x="500" 
d="M74 0l123 700h120l-103 -586h298l-20 -114h-418zM371 454l43 246h106l-43 -246h-106z" />
    <glyph glyph-name="lcaron" unicode="&#x13e;" horiz-adv-x="387" 
d="M74 0l133 756h120l-133 -756h-120zM355 454l43 246h106l-43 -246h-106z" />
    <glyph glyph-name="Ldot" unicode="&#x13f;" horiz-adv-x="500" 
d="M74 0l123 700h120l-103 -586h298l-20 -114h-418zM372 370q0 33 23 56t56 23t56 -23t23 -56t-23 -56t-56 -23t-56 23t-23 56z" />
    <glyph glyph-name="ldot" unicode="&#x140;" horiz-adv-x="394" 
d="M74 0l133 756h120l-133 -756h-120zM339 370q0 33 23 56t56 23t56 -23t23 -56t-23 -56t-56 -23t-56 23t-23 56z" />
    <glyph glyph-name="Lslash" unicode="&#x141;" horiz-adv-x="541" 
d="M83 148l-40 66l125 86l71 400h120l-54 -307l193 133l40 -66l-252 -173l-30 -173h297l-20 -114h-417l34 194z" />
    <glyph glyph-name="lslash" unicode="&#x142;" horiz-adv-x="360" 
d="M93 213l-38 67l127 87l69 389h120l-52 -296l75 52l38 -67l-132 -91l-62 -354h-120l46 261z" />
    <glyph glyph-name="Nacute" unicode="&#x143;" horiz-adv-x="726" 
d="M197 700h108l264 -490l86 490h120l-123 -700h-108l-265 489l-85 -489h-120zM604 996l74 -88l-199 -164l-69 79z" />
    <glyph glyph-name="nacute" unicode="&#x144;" horiz-adv-x="548" 
d="M394 486q74 0 117.5 -53t28.5 -136l-52 -297h-120l48 277q9 49 -11 73t-61 24q-28 0 -55 -14t-40 -28l-13 -14l-56 -318h-120l83 474h112l-12 -69q7 9 19 22.5t51.5 36t80.5 22.5zM458 778l74 -88l-199 -164l-69 79z" />
    <glyph glyph-name="Ncedilla" unicode="&#x145;" horiz-adv-x="726" 
d="M197 700h108l264 -490l86 490h120l-123 -700h-108l-265 489l-85 -489h-120zM427 -44l-99 -217l-111 29l101 197z" />
    <glyph glyph-name="ncedilla" unicode="&#x146;" horiz-adv-x="548" 
d="M394 486q74 0 117.5 -53t28.5 -136l-52 -297h-120l48 277q9 49 -11 73t-61 24q-28 0 -55 -14t-40 -28l-13 -14l-56 -318h-120l83 474h112l-12 -69q7 9 19 22.5t51.5 36t80.5 22.5zM351 -44l-99 -217l-111 29l101 197z" />
    <glyph glyph-name="Ncaron" unicode="&#x147;" horiz-adv-x="726" 
d="M197 700h108l264 -490l86 490h120l-123 -700h-108l-265 489l-85 -489h-120zM483 741l-178 134l74 79l115 -93l133 96l59 -82z" />
    <glyph glyph-name="ncaron" unicode="&#x148;" horiz-adv-x="548" 
d="M394 486q74 0 117.5 -53t28.5 -136l-52 -297h-120l48 277q9 49 -11 73t-61 24q-28 0 -55 -14t-40 -28l-13 -14l-56 -318h-120l83 474h112l-12 -69q7 9 19 22.5t51.5 36t80.5 22.5zM367 526l-178 134l74 79l115 -93l133 96l59 -82z" />
    <glyph glyph-name="napostrophe" unicode="&#x149;" horiz-adv-x="656" 
d="M502 486q74 0 117.5 -53t28.5 -136l-52 -297h-120l48 277q9 49 -11 73t-61 24q-28 0 -55 -14t-40 -28l-13 -14l-56 -318h-120l83 474h112l-12 -69q7 9 19 22.5t51.5 36t80.5 22.5zM82 454l43 246h106l-43 -246h-106z" />
    <glyph glyph-name="Eng" unicode="&#x14a;" horiz-adv-x="726" 
d="M197 700h108l263 -492l87 492h120l-123 -700l-8 -43q-10 -55 -32 -96t-51 -62.5t-59 -31t-62 -9.5q-33 0 -61.5 8t-40.5 16l-12 7l47 103q28 -21 62 -21q18 0 32.5 4t33 27.5t25.5 65.5l8 48l-254 475l-86 -491h-120z" />
    <glyph glyph-name="eng" unicode="&#x14b;" horiz-adv-x="548" 
d="M394 486q74 0 117.5 -53t28.5 -136l-60 -340q-10 -55 -32 -96t-51 -62.5t-59 -31t-62 -9.5q-33 0 -61.5 8t-40.5 16l-12 7l47 103q28 -21 62 -21q18 0 32.5 4t33 27.5t25.5 65.5l6 32l48 277q9 49 -11 73t-61 24q-28 0 -55 -14t-40 -28l-13 -14l-56 -318h-120l83 474h112
l-12 -69q7 9 19 22.5t51.5 36t80.5 22.5z" />
    <glyph glyph-name="Omacron" unicode="&#x14c;" horiz-adv-x="776" 
d="M493 712q149 0 232.5 -89.5t83.5 -226.5q0 -164 -119.5 -286t-284.5 -122q-149 0 -232.5 90t-83.5 227q0 164 120 285.5t284 121.5zM405 102q121 0 201 90t80 204q0 87 -52 144.5t-141 57.5q-121 0 -201 -89.5t-80 -203.5q0 -87 52 -145t141 -58zM352 790l19 108h322
l-19 -108h-322z" />
    <glyph glyph-name="omacron" unicode="&#x14d;" horiz-adv-x="562" 
d="M343 486q112 0 174 -64t62 -158q0 -114 -86 -195t-192 -81q-112 0 -174 64t-62 158q0 115 86 195.5t192 80.5zM301 100q66 0 110 49t44 115q0 48 -29.5 79t-82.5 31q-66 0 -110 -49t-44 -115q0 -48 29.5 -79t82.5 -31zM200 568l19 108h322l-19 -108h-322z" />
    <glyph glyph-name="Obreve" unicode="&#x14e;" horiz-adv-x="776" 
d="M493 712q149 0 232.5 -89.5t83.5 -226.5q0 -164 -119.5 -286t-284.5 -122q-149 0 -232.5 90t-83.5 227q0 164 120 285.5t284 121.5zM405 102q121 0 201 90t80 204q0 87 -52 144.5t-141 57.5q-121 0 -201 -89.5t-80 -203.5q0 -87 52 -145t141 -58zM354 928h108
q-1 -3 -1.5 -8t1 -17t6.5 -21.5t18.5 -17.5t33.5 -8q32 0 53 18t26 36l5 18h108q-1 -7 -3 -18t-15 -39t-32.5 -50t-58 -39.5t-88.5 -17.5q-54 0 -90.5 17t-50 41t-19 48t-3.5 41z" />
    <glyph glyph-name="obreve" unicode="&#x14f;" horiz-adv-x="562" 
d="M343 486q112 0 174 -64t62 -158q0 -114 -86 -195t-192 -81q-112 0 -174 64t-62 158q0 115 86 195.5t192 80.5zM301 100q66 0 110 49t44 115q0 48 -29.5 79t-82.5 31q-66 0 -110 -49t-44 -115q0 -48 29.5 -79t82.5 -31zM215 712h108q-1 -3 -1.5 -8t1 -17t6.5 -21.5
t18.5 -17.5t33.5 -8q32 0 53 18t26 36l5 18h108q-1 -7 -3 -18t-15 -39t-32.5 -50t-58 -39.5t-88.5 -17.5q-54 0 -90.5 17t-50 41t-19 48t-3.5 41z" />
    <glyph glyph-name="Ohungarumlaut" unicode="&#x150;" horiz-adv-x="776" 
d="M493 712q149 0 232.5 -89.5t83.5 -226.5q0 -164 -119.5 -286t-284.5 -122q-149 0 -232.5 90t-83.5 227q0 164 120 285.5t284 121.5zM405 102q121 0 201 90t80 204q0 87 -52 144.5t-141 57.5q-121 0 -201 -89.5t-80 -203.5q0 -87 52 -145t141 -58zM519 976l84 -49
l-159 -177l-78 42zM693 976l84 -49l-159 -177l-78 42z" />
    <glyph glyph-name="ohungarumlaut" unicode="&#x151;" horiz-adv-x="562" 
d="M343 486q112 0 174 -64t62 -158q0 -114 -86 -195t-192 -81q-112 0 -174 64t-62 158q0 115 86 195.5t192 80.5zM301 100q66 0 110 49t44 115q0 48 -29.5 79t-82.5 31q-66 0 -110 -49t-44 -115q0 -48 29.5 -79t82.5 -31zM361 742l84 -49l-159 -177l-78 42zM535 742l84 -49
l-159 -177l-78 42z" />
    <glyph glyph-name="OE" unicode="&#x152;" horiz-adv-x="826" 
d="M627 588l-30 -172h230l-20 -114h-230l-34 -190h260l-19 -112h-386q-135 0 -224 81t-89 225q0 172 114.5 283t282.5 111h419l-20 -112h-254zM423 112l84 476h-25q-115 0 -194 -77t-79 -205q0 -89 51 -141.5t138 -52.5h25z" />
    <glyph glyph-name="oe" unicode="&#x153;" horiz-adv-x="916" 
d="M715 486q99 0 159 -55t60 -145q0 -26 -13 -92h-356q1 -35 33.5 -65.5t84.5 -30.5q37 0 71 12t50 24l15 12l56 -92q-9 -7 -25 -18t-66 -29.5t-101 -18.5q-121 0 -189 85q-87 -85 -193 -85q-112 0 -174 64t-62 158q0 115 86 195.5t192 80.5q120 0 188 -80q80 80 184 80z
M301 100q66 0 110 49t44 115q0 48 -29.5 79t-82.5 31q-66 0 -110 -49t-44 -115q0 -48 29.5 -79t82.5 -31zM578 281h239q0 1 0.5 4t0.5 5q0 34 -26 60.5t-77 26.5q-52 0 -89 -29.5t-48 -66.5z" />
    <glyph glyph-name="Racute" unicode="&#x154;" horiz-adv-x="583" 
d="M74 0l123 700h227q91 0 145.5 -54t54.5 -140q0 -89 -58 -154.5t-140 -77.5l129 -274h-131l-120 264h-64l-46 -264h-120zM355 378q65 0 105 34.5t40 93.5q0 80 -108 80h-95l-37 -208h95zM495 996l74 -88l-199 -164l-69 79z" />
    <glyph glyph-name="racute" unicode="&#x155;" horiz-adv-x="387" 
d="M388 486q19 0 39 -4t31 -8l10 -3l-51 -108q-31 11 -66 11q-32 0 -61.5 -16t-42.5 -32l-13 -16l-54 -310h-120l83 474h114l-12 -69q2 3 6.5 8.5t18.5 19.5t29.5 24.5t39.5 19.5t49 9zM373 778l74 -88l-199 -164l-69 79z" />
    <glyph glyph-name="Rcedilla" unicode="&#x156;" horiz-adv-x="583" 
d="M74 0l123 700h227q91 0 145.5 -54t54.5 -140q0 -89 -58 -154.5t-140 -77.5l129 -274h-131l-120 264h-64l-46 -264h-120zM355 378q65 0 105 34.5t40 93.5q0 80 -108 80h-95l-37 -208h95zM380 -44l-99 -217l-111 29l101 197z" />
    <glyph glyph-name="rcedilla" unicode="&#x157;" horiz-adv-x="387" 
d="M388 486q19 0 39 -4t31 -8l10 -3l-51 -108q-31 11 -66 11q-32 0 -61.5 -16t-42.5 -32l-13 -16l-54 -310h-120l83 474h114l-12 -69q2 3 6.5 8.5t18.5 19.5t29.5 24.5t39.5 19.5t49 9zM201 -54l-99 -217l-111 29l101 197z" />
    <glyph glyph-name="Rcaron" unicode="&#x158;" horiz-adv-x="583" 
d="M74 0l123 700h227q91 0 145.5 -54t54.5 -140q0 -89 -58 -154.5t-140 -77.5l129 -274h-131l-120 264h-64l-46 -264h-120zM355 378q65 0 105 34.5t40 93.5q0 80 -108 80h-95l-37 -208h95zM402 751l-178 134l74 79l115 -93l133 96l59 -82z" />
    <glyph glyph-name="rcaron" unicode="&#x159;" horiz-adv-x="387" 
d="M388 486q19 0 39 -4t31 -8l10 -3l-51 -108q-31 11 -66 11q-32 0 -61.5 -16t-42.5 -32l-13 -16l-54 -310h-120l83 474h114l-12 -69q2 3 6.5 8.5t18.5 19.5t29.5 24.5t39.5 19.5t49 9zM297 526l-178 134l74 79l115 -93l133 96l59 -82z" />
    <glyph glyph-name="Sacute" unicode="&#x15a;" horiz-adv-x="595" 
d="M321 102q52 0 94.5 24t42.5 74q0 19 -6.5 32.5t-24 24.5t-32.5 17.5t-48 18.5q-39 15 -67 29.5t-57.5 38.5t-45 58.5t-15.5 77.5q0 82 71 148.5t177 66.5q45 0 85 -11.5t65 -28t44 -32.5t27 -28l8 -11l-84 -78q-2 3 -6.5 8t-19.5 18t-30.5 23t-40 18t-48.5 8
q-51 0 -87.5 -28.5t-36.5 -70.5q0 -13 5 -24t11.5 -18t22 -15t26 -12.5t34.5 -13.5t38 -15q79 -33 119 -75t40 -121q0 -101 -77 -159t-184 -58q-48 0 -91.5 14t-71.5 34.5t-49 41t-31 34.5l-9 14l90 82q2 -4 7 -11.5t21 -25.5t33.5 -32t45 -25.5t55.5 -11.5zM521 996l74 -88
l-199 -164l-69 79z" />
    <glyph glyph-name="sacute" unicode="&#x15b;" horiz-adv-x="483" 
d="M43 74l70 86q2 -3 6.5 -7.5t19 -16t30.5 -20.5t39.5 -16t47.5 -7q98 0 98 49q0 19 -18 27.5t-72 20.5q-151 33 -151 140q0 65 56.5 110.5t146.5 45.5q53 0 100 -15t68 -29l21 -15l-62 -91q-63 45 -127 45q-33 0 -59 -12t-26 -37q0 -17 21 -27t78 -23q146 -32 146 -137
q0 -73 -65.5 -115t-154.5 -42q-37 0 -72.5 9t-59.5 21.5t-43.5 25t-28.5 21.5zM415 778l74 -88l-199 -164l-69 79z" />
    <glyph glyph-name="Scircumflex" unicode="&#x15c;" horiz-adv-x="595" 
d="M321 102q52 0 94.5 24t42.5 74q0 19 -6.5 32.5t-24 24.5t-32.5 17.5t-48 18.5q-39 15 -67 29.5t-57.5 38.5t-45 58.5t-15.5 77.5q0 82 71 148.5t177 66.5q45 0 85 -11.5t65 -28t44 -32.5t27 -28l8 -11l-84 -78q-2 3 -6.5 8t-19.5 18t-30.5 23t-40 18t-48.5 8
q-51 0 -87.5 -28.5t-36.5 -70.5q0 -13 5 -24t11.5 -18t22 -15t26 -12.5t34.5 -13.5t38 -15q79 -33 119 -75t40 -121q0 -101 -77 -159t-184 -58q-48 0 -91.5 14t-71.5 34.5t-49 41t-31 34.5l-9 14l90 82q2 -4 7 -11.5t21 -25.5t33.5 -32t45 -25.5t55.5 -11.5zM243 847
l199 131l181 -140l-73 -76l-114 97l-133 -95z" />
    <glyph glyph-name="scircumflex" unicode="&#x15d;" horiz-adv-x="483" 
d="M43 74l70 86q2 -3 6.5 -7.5t19 -16t30.5 -20.5t39.5 -16t47.5 -7q98 0 98 49q0 19 -18 27.5t-72 20.5q-151 33 -151 140q0 65 56.5 110.5t146.5 45.5q53 0 100 -15t68 -29l21 -15l-62 -91q-63 45 -127 45q-33 0 -59 -12t-26 -37q0 -17 21 -27t78 -23q146 -32 146 -137
q0 -73 -65.5 -115t-154.5 -42q-37 0 -72.5 9t-59.5 21.5t-43.5 25t-28.5 21.5zM152 611l199 131l181 -140l-73 -76l-114 97l-133 -95z" />
    <glyph glyph-name="Scedilla" unicode="&#x15e;" horiz-adv-x="595" 
d="M321 102q52 0 94.5 24t42.5 74q0 19 -6.5 32.5t-24 24.5t-32.5 17.5t-48 18.5q-39 15 -67 29.5t-57.5 38.5t-45 58.5t-15.5 77.5q0 82 71 148.5t177 66.5q45 0 85 -11.5t65 -28t44 -32.5t27 -28l8 -11l-84 -78q-2 3 -6.5 8t-19.5 18t-30.5 23t-40 18t-48.5 8
q-51 0 -87.5 -28.5t-36.5 -70.5q0 -13 5 -24t11.5 -18t22 -15t26 -12.5t34.5 -13.5t38 -15q79 -33 119 -75t40 -121q0 -101 -77 -159t-184 -58q-48 0 -91.5 14t-71.5 34.5t-49 41t-31 34.5l-9 14l90 82q2 -4 7 -11.5t21 -25.5t33.5 -32t45 -25.5t55.5 -11.5zM344 -54
l-99 -217l-111 29l101 197z" />
    <glyph glyph-name="scedilla" unicode="&#x15f;" horiz-adv-x="483" 
d="M43 74l70 86q2 -3 6.5 -7.5t19 -16t30.5 -20.5t39.5 -16t47.5 -7q98 0 98 49q0 19 -18 27.5t-72 20.5q-151 33 -151 140q0 65 56.5 110.5t146.5 45.5q53 0 100 -15t68 -29l21 -15l-62 -91q-63 45 -127 45q-33 0 -59 -12t-26 -37q0 -17 21 -27t78 -23q146 -32 146 -137
q0 -73 -65.5 -115t-154.5 -42q-37 0 -72.5 9t-59.5 21.5t-43.5 25t-28.5 21.5zM304 -54l-99 -217l-111 29l101 197z" />
    <glyph glyph-name="Scaron" unicode="&#x160;" horiz-adv-x="595" 
d="M321 102q52 0 94.5 24t42.5 74q0 19 -6.5 32.5t-24 24.5t-32.5 17.5t-48 18.5q-39 15 -67 29.5t-57.5 38.5t-45 58.5t-15.5 77.5q0 82 71 148.5t177 66.5q45 0 85 -11.5t65 -28t44 -32.5t27 -28l8 -11l-84 -78q-2 3 -6.5 8t-19.5 18t-30.5 23t-40 18t-48.5 8
q-51 0 -87.5 -28.5t-36.5 -70.5q0 -13 5 -24t11.5 -18t22 -15t26 -12.5t34.5 -13.5t38 -15q79 -33 119 -75t40 -121q0 -101 -77 -159t-184 -58q-48 0 -91.5 14t-71.5 34.5t-49 41t-31 34.5l-9 14l90 82q2 -4 7 -11.5t21 -25.5t33.5 -32t45 -25.5t55.5 -11.5zM444 745
l-178 134l74 79l115 -93l133 96l59 -82z" />
    <glyph glyph-name="scaron" unicode="&#x161;" horiz-adv-x="483" 
d="M43 74l70 86q2 -3 6.5 -7.5t19 -16t30.5 -20.5t39.5 -16t47.5 -7q98 0 98 49q0 19 -18 27.5t-72 20.5q-151 33 -151 140q0 65 56.5 110.5t146.5 45.5q53 0 100 -15t68 -29l21 -15l-62 -91q-63 45 -127 45q-33 0 -59 -12t-26 -37q0 -17 21 -27t78 -23q146 -32 146 -137
q0 -73 -65.5 -115t-154.5 -42q-37 0 -72.5 9t-59.5 21.5t-43.5 25t-28.5 21.5zM340 526l-178 134l74 79l115 -93l133 96l59 -82z" />
    <glyph glyph-name="Tcedilla" unicode="&#x162;" horiz-adv-x="534" 
d="M207 0l103 586h-193l20 114h506l-20 -114h-193l-103 -586h-120zM335 -54l-99 -217l-111 29l101 197z" />
    <glyph glyph-name="tcedilla" unicode="&#x163;" horiz-adv-x="416" 
d="M76 366l19 108h103l25 141h120l-25 -141h143l-19 -108h-143l-35 -196q-12 -70 51 -70q12 0 25 4t20 8l7 5l34 -100q-48 -29 -117 -29q-70 0 -112 49.5t-29 123.5l36 205h-103zM303 -54l-99 -217l-111 29l101 197z" />
    <glyph glyph-name="Tcaron" unicode="&#x164;" horiz-adv-x="534" 
d="M207 0l103 586h-193l20 114h506l-20 -114h-193l-103 -586h-120zM388 743l-178 134l74 79l115 -93l133 96l59 -82z" />
    <glyph glyph-name="tcaron" unicode="&#x165;" horiz-adv-x="428" 
d="M76 366l19 108h103l25 141h120l-25 -141h143l-19 -108h-143l-35 -196q-12 -70 51 -70q12 0 25 4t20 8l7 5l34 -100q-48 -29 -117 -29q-70 0 -112 49.5t-29 123.5l36 205h-103zM400 534l43 246h106l-43 -246h-106z" />
    <glyph glyph-name="Tbar" unicode="&#x166;" horiz-adv-x="534" 
d="M149 374l18 100h123l20 112h-193l20 114h506l-20 -114h-193l-20 -112h123l-18 -100h-123l-65 -374h-120l65 374h-123z" />
    <glyph glyph-name="tbar" unicode="&#x167;" horiz-adv-x="406" 
d="M86 366l19 108h83l25 141h120l-25 -141h143l-19 -108h-143l-14 -76h144l-18 -100h-144l-3 -20q-12 -70 51 -70q12 0 25 4t20 8l7 5l34 -100q-48 -29 -117 -29q-71 0 -112.5 49.5t-28.5 123.5l5 29h-83l18 100h82l14 76h-83z" />
    <glyph glyph-name="Utilde" unicode="&#x168;" horiz-adv-x="688" 
d="M541 269l76 431h120l-80 -451q-21 -119 -99 -190t-202 -71q-133 0 -196.5 71.5t-42.5 189.5l80 451h120q-36 -205 -77 -436q-14 -76 16.5 -119t104.5 -43t120 45t60 122zM350 777l-81 57q2 4 5 11.5t16 25.5t28 32t41 25.5t55 11.5q32 0 77 -29t61 -29q19 0 35.5 16
t22.5 32l7 15l79 -61q-2 -4 -5 -11.5t-15.5 -26t-27 -33t-39.5 -26t-54 -11.5q-31 0 -77 28.5t-62 28.5q-19 0 -35.5 -14t-23.5 -28z" />
    <glyph glyph-name="utilde" unicode="&#x169;" horiz-adv-x="548" 
d="M240 -12q-72 0 -117.5 53.5t-31.5 135.5l52 297h120l-48 -274q-19 -100 76 -100q29 0 55 16t38 32l12 15l55 311h120l-83 -474h-112l11 64q-2 -3 -6.5 -8t-19 -18.5t-30 -23.5t-40.5 -18t-51 -8zM241 556l-81 57q2 4 5 11.5t16 25.5t28 32t41 25.5t55 11.5q32 0 77 -29
t61 -29q19 0 35.5 15.5t23.5 31.5l6 16l79 -61q-2 -4 -5 -11.5t-15.5 -26t-27 -33t-39.5 -26t-54 -11.5q-32 0 -77 28.5t-62 28.5q-19 0 -35.5 -14t-23.5 -28z" />
    <glyph glyph-name="Umacron" unicode="&#x16a;" horiz-adv-x="688" 
d="M541 269l76 431h120l-80 -451q-21 -119 -99 -190t-202 -71q-133 0 -196.5 71.5t-42.5 189.5l80 451h120q-36 -205 -77 -436q-14 -76 16.5 -119t104.5 -43t120 45t60 122zM316 800l19 108h322l-19 -108h-322z" />
    <glyph glyph-name="umacron" unicode="&#x16b;" horiz-adv-x="548" 
d="M240 -12q-72 0 -117.5 53.5t-31.5 135.5l52 297h120l-48 -274q-19 -100 76 -100q29 0 55 16t38 32l12 15l55 311h120l-83 -474h-112l11 64q-2 -3 -6.5 -8t-19 -18.5t-30 -23.5t-40.5 -18t-51 -8zM209 577l19 108h322l-19 -108h-322z" />
    <glyph glyph-name="Ubreve" unicode="&#x16c;" horiz-adv-x="688" 
d="M541 269l76 431h120l-80 -451q-21 -119 -99 -190t-202 -71q-133 0 -196.5 71.5t-42.5 189.5l80 451h120q-36 -205 -77 -436q-14 -76 16.5 -119t104.5 -43t120 45t60 122zM320 918h108q-1 -3 -1.5 -8t1 -17t6.5 -21.5t18.5 -17.5t33.5 -8q32 0 53 18t26 36l5 18h108
q-1 -7 -3 -18t-15 -39t-32.5 -50t-58 -39.5t-88.5 -17.5q-54 0 -90.5 17t-50 41t-19 48t-3.5 41z" />
    <glyph glyph-name="ubreve" unicode="&#x16d;" horiz-adv-x="548" 
d="M240 -12q-72 0 -117.5 53.5t-31.5 135.5l52 297h120l-48 -274q-19 -100 76 -100q29 0 55 16t38 32l12 15l55 311h120l-83 -474h-112l11 64q-2 -3 -6.5 -8t-19 -18.5t-30 -23.5t-40.5 -18t-51 -8zM214 700h108q-1 -3 -1.5 -8t1 -17t6.5 -21.5t18.5 -17.5t33.5 -8
q32 0 53 18t26 36l5 18h108q-1 -7 -3 -18t-15 -39t-32.5 -50t-58 -39.5t-88.5 -17.5q-54 0 -90.5 17t-50 41t-19 48t-3.5 41z" />
    <glyph glyph-name="Uring" unicode="&#x16e;" horiz-adv-x="688" 
d="M541 269l76 431h120l-80 -451q-21 -119 -99 -190t-202 -71q-133 0 -196.5 71.5t-42.5 189.5l80 451h120q-36 -205 -77 -436q-14 -76 16.5 -119t104.5 -43t120 45t60 122zM353 841q0 52 40.5 90.5t92.5 38.5q53 0 84 -33t31 -78q0 -52 -41 -90.5t-93 -38.5q-53 0 -83.5 33
t-30.5 78zM486 904q-28 0 -46 -18t-18 -45q0 -19 12.5 -32t32.5 -13q28 0 46.5 18.5t18.5 44.5q0 20 -13 32.5t-33 12.5z" />
    <glyph glyph-name="uring" unicode="&#x16f;" horiz-adv-x="548" 
d="M240 -12q-72 0 -117.5 53.5t-31.5 135.5l52 297h120l-48 -274q-19 -100 76 -100q29 0 55 16t38 32l12 15l55 311h120l-83 -474h-112l11 64q-2 -3 -6.5 -8t-19 -18.5t-30 -23.5t-40.5 -18t-51 -8zM253 639q0 52 40.5 90.5t92.5 38.5q53 0 84 -33t31 -78q0 -52 -41 -90.5
t-93 -38.5q-53 0 -83.5 33t-30.5 78zM386 702q-28 0 -46 -18t-18 -45q0 -19 12.5 -32t32.5 -13q28 0 46.5 18.5t18.5 44.5q0 20 -13 32.5t-33 12.5z" />
    <glyph glyph-name="Uhungarumlaut" unicode="&#x170;" horiz-adv-x="688" 
d="M541 269l76 431h120l-80 -451q-21 -119 -99 -190t-202 -71q-133 0 -196.5 71.5t-42.5 189.5l80 451h120q-36 -205 -77 -436q-14 -76 16.5 -119t104.5 -43t120 45t60 122zM464 978l84 -49l-159 -177l-78 42zM638 978l84 -49l-159 -177l-78 42z" />
    <glyph glyph-name="uhungarumlaut" unicode="&#x171;" horiz-adv-x="548" 
d="M240 -12q-72 0 -117.5 53.5t-31.5 135.5l52 297h120l-48 -274q-19 -100 76 -100q29 0 55 16t38 32l12 15l55 311h120l-83 -474h-112l11 64q-2 -3 -6.5 -8t-19 -18.5t-30 -23.5t-40.5 -18t-51 -8zM361 740l84 -49l-159 -177l-78 42zM535 740l84 -49l-159 -177l-78 42z" />
    <glyph glyph-name="Uogonek" unicode="&#x172;" horiz-adv-x="688" 
d="M541 269l76 431h120l-80 -451q-18 -105 -82.5 -174.5t-162.5 -82.5q-26 -3 -55.5 -28.5t-29.5 -53.5q0 -37 44 -37q9 0 20 2t17 4l7 2l-16 -95q-31 -9 -58 -9q-51 0 -81.5 30t-30.5 77q0 38 23 65.5t52 41.5q-107 14 -156 83.5t-31 174.5l80 451h120q-36 -205 -77 -436
q-14 -76 16.5 -119t104.5 -43t120 45t60 122z" />
    <glyph glyph-name="uogonek" unicode="&#x173;" horiz-adv-x="548" 
d="M236 -12q-71 0 -115 53t-30 136l52 297h120l-48 -274q-19 -100 76 -100q27 0 53 14.5t38 29.5l13 14l56 316h120l-83 -474q-4 -1 -11 -4t-25.5 -12t-32 -18.5t-25 -25t-11.5 -30.5q0 -37 44 -37q9 0 20 2t17 4l7 2l-16 -95q-31 -9 -58 -9q-51 0 -81.5 30t-30.5 77
q0 27 12.5 51.5t31.5 40.5t29.5 23t18.5 11l11 59q-2 -3 -7 -8.5t-20 -19.5t-31.5 -24.5t-42 -19.5t-51.5 -9z" />
    <glyph glyph-name="Wcircumflex" unicode="&#x174;" horiz-adv-x="983" 
d="M1102 700l-403 -724l-118 525l-305 -525l-149 724h134l72 -408l230 408h106l81 -408l218 408h134zM433 827l199 131l181 -140l-73 -76l-114 97l-133 -95z" />
    <glyph glyph-name="wcircumflex" unicode="&#x175;" horiz-adv-x="768" 
d="M87 474h130l54 -238l142 238h110l53 -238l139 238h132l-316 -498l-93 338l-209 -338zM286 608l199 131l181 -140l-73 -76l-114 97l-133 -95z" />
    <glyph glyph-name="Ycircumflex" unicode="&#x176;" horiz-adv-x="614" 
d="M415 276l-48 -276h-120l48 276l-164 424h126l115 -312l224 312h133zM244 827l199 131l181 -140l-73 -76l-114 97l-133 -95z" />
    <glyph glyph-name="ycircumflex" unicode="&#x177;" horiz-adv-x="557" 
d="M-13 -194l56 95q31 -31 70 -31q31 0 50 14t45 59l28 49l-145 482h130l97 -345l184 345h136l-332 -580q-44 -76 -87.5 -106t-102.5 -30q-33 0 -65.5 12t-48.5 24zM174 608l199 131l181 -140l-73 -76l-114 97l-133 -95z" />
    <glyph glyph-name="Ydieresis" unicode="&#x178;" horiz-adv-x="614" 
d="M415 276l-48 -276h-120l48 276l-164 424h126l115 -312l224 312h133zM254 851q0 33 23 56t56 23t56 -23t23 -56t-23 -56t-56 -23t-56 23t-23 56zM460 851q0 33 23 56t56 23t56 -23t23 -56t-23 -56t-56 -23t-56 23t-23 56z" />
    <glyph glyph-name="Zacute" unicode="&#x179;" horiz-adv-x="597" 
d="M171 700h535l-464 -586h341l-20 -114h-549l466 586h-329zM529 1003l74 -88l-199 -164l-69 79z" />
    <glyph glyph-name="zacute" unicode="&#x17a;" horiz-adv-x="495" 
d="M130 474h422l-295 -362h220l-19 -112h-428l294 362h-214zM452 778l74 -88l-199 -164l-69 79z" />
    <glyph glyph-name="Zdotaccent" unicode="&#x17b;" horiz-adv-x="597" 
d="M171 700h535l-464 -586h341l-20 -114h-549l466 586h-329zM359 841q0 33 23 56t56 23t56 -23t23 -56t-23 -56t-56 -23t-56 23t-23 56z" />
    <glyph glyph-name="zdotaccent" unicode="&#x17c;" horiz-adv-x="495" 
d="M130 474h422l-295 -362h220l-19 -112h-428l294 362h-214zM266 627q0 33 23 56t56 23t56 -23t23 -56t-23 -56t-56 -23t-56 23t-23 56z" />
    <glyph glyph-name="Zcaron" unicode="&#x17d;" horiz-adv-x="597" 
d="M171 700h535l-464 -586h341l-20 -114h-549l466 586h-329zM437 746l-178 134l74 79l115 -93l133 96l59 -82z" />
    <glyph glyph-name="zcaron" unicode="&#x17e;" horiz-adv-x="495" 
d="M130 474h422l-295 -362h220l-19 -112h-428l294 362h-214zM353 526l-178 134l74 79l115 -93l133 96l59 -82z" />
    <glyph glyph-name="longs" unicode="&#x17f;" horiz-adv-x="342" 
d="M79 366l19 108h94l21 116q16 91 71 134.5t121 43.5q32 0 59.5 -6t39.5 -12l11 -7l-51 -101q-20 14 -56 14q-24 0 -47 -16.5t-30 -55.5l-102 -584h-120l64 366h-94z" />
    <glyph glyph-name="florin" unicode="&#x192;" 
d="M415 366l-116 -330q-31 -91 -97 -137t-154 -46h-51l18 112h40q61 0 92 29t50 81l102 291h-90l37 108h90l53 147q52 147 197 147q32 0 60 -6t40 -12l11 -7l-51 -100q-21 13 -60 13q-69 0 -95 -74l-39 -108h114l-37 -108h-114z" />
    <glyph glyph-name="apostrophemod" unicode="&#x2bc;" horiz-adv-x="186" 
d="M120 454l43 246h106l-43 -246h-106z" />
    <glyph glyph-name="circumflex" unicode="&#x2c6;" horiz-adv-x="424" 
d="M124 599l199 131l181 -140l-73 -76l-114 97l-133 -95z" />
    <glyph glyph-name="caron" unicode="&#x2c7;" horiz-adv-x="424" 
d="M313 513l-178 134l74 79l115 -93l133 96l59 -82z" />
    <glyph glyph-name="breve" unicode="&#x2d8;" horiz-adv-x="410" 
d="M149 700h108q-1 -3 -1.5 -8t1 -17t6.5 -21.5t18.5 -17.5t33.5 -8q32 0 53 18t26 36l5 18h108q-1 -7 -3 -18t-15 -39t-32.5 -50t-58 -39.5t-88.5 -17.5q-54 0 -90.5 17t-50 41t-19 48t-3.5 41z" />
    <glyph glyph-name="dotaccent" unicode="&#x2d9;" horiz-adv-x="240" 
d="M150 623q0 33 23 56t56 23t56 -23t23 -56t-23 -56t-56 -23t-56 23t-23 56z" />
    <glyph glyph-name="ring" unicode="&#x2da;" horiz-adv-x="256" 
d="M117 634q0 52 40.5 90.5t92.5 38.5q53 0 84 -33t31 -78q0 -52 -41 -90.5t-93 -38.5q-53 0 -83.5 33t-30.5 78zM250 697q-28 0 -46 -18.5t-18 -44.5q0 -19 12.5 -32t32.5 -13q28 0 46.5 18.5t18.5 44.5q0 20 -13 32.5t-33 12.5z" />
    <glyph glyph-name="ogonek" unicode="&#x2db;" horiz-adv-x="256" 
d="M85 0h111q-4 -1 -11 -4t-25.5 -12t-32 -18.5t-25 -25t-11.5 -30.5q0 -37 44 -37q9 0 20 2t17 4l7 2l-16 -95q-31 -9 -58 -9q-51 0 -81.5 30t-30.5 77q0 34 23 63t46 41z" />
    <glyph glyph-name="tilde" unicode="&#x2dc;" horiz-adv-x="425" 
d="M189 539l-81 57q2 4 5 11.5t16 25.5t28 32t41 25.5t55 11.5q32 0 77 -29t61 -29q19 0 35.5 16t23.5 32l6 15l79 -61q-2 -4 -5 -11.5t-15.5 -26t-27 -33t-39.5 -26t-54 -11.5q-32 0 -77 28.5t-62 28.5q-19 0 -35.5 -14t-23.5 -28z" />
    <glyph glyph-name="hungarumlaut" unicode="&#x2dd;" horiz-adv-x="382" 
d="M249 740l84 -49l-159 -177l-78 42zM423 740l84 -49l-159 -177l-78 42z" />
    <glyph glyph-name="Delta" unicode="&#x394;" horiz-adv-x="836" 
d="M4 0l547 756l281 -756h-828zM218 114h454l-154 414z" />
    <glyph glyph-name="Delta" unicode="&#x2206;" horiz-adv-x="836" 
d="M4 0l547 756l281 -756h-828zM218 114h454l-154 414z" />
    <glyph glyph-name="Omega" unicode="&#x3a9;" horiz-adv-x="788" 
d="M500 712q141 0 227.5 -76.5t86.5 -209.5q0 -102 -55 -186.5t-139 -125.5h120l-20 -114h-259l20 114q86 28 148 121t62 191q0 78 -51 127t-140 49q-116 0 -196 -84.5t-80 -202.5q0 -70 33 -125t90 -76l-20 -114h-259l20 114h123q-48 32 -79 85t-31 116q0 169 118.5 283
t280.5 114z" />
    <glyph glyph-name="Omega" unicode="&#x2126;" horiz-adv-x="788" 
d="M500 712q141 0 227.5 -76.5t86.5 -209.5q0 -102 -55 -186.5t-139 -125.5h120l-20 -114h-259l20 114q86 28 148 121t62 191q0 78 -51 127t-140 49q-116 0 -196 -84.5t-80 -202.5q0 -70 33 -125t90 -76l-20 -114h-259l20 114h123q-48 32 -79 85t-31 116q0 169 118.5 283
t280.5 114z" />
    <glyph glyph-name="pi" unicode="&#x3c0;" horiz-adv-x="571" 
d="M347 153l36 207h-90l-63 -360h-120l63 360h-84l20 114h513l-20 -114h-99l-37 -207q-9 -53 33 -53q10 0 19 2.5t13 5.5l4 2l31 -99q-34 -23 -94 -23q-59 0 -99 42.5t-26 122.5z" />
    <glyph glyph-name="Wgrave" unicode="&#x1e80;" horiz-adv-x="983" 
d="M1102 700l-403 -724l-118 525l-305 -525l-149 724h134l72 -408l230 408h106l81 -408l218 408h134zM490 926l88 74l150 -184l-84 -68z" />
    <glyph glyph-name="wgrave" unicode="&#x1e81;" horiz-adv-x="768" 
d="M87 474h130l54 -238l142 238h110l53 -238l139 238h132l-316 -498l-93 338l-209 -338zM342 707l88 74l150 -184l-84 -68z" />
    <glyph glyph-name="Wacute" unicode="&#x1e82;" horiz-adv-x="983" 
d="M1102 700l-403 -724l-118 525l-305 -525l-149 724h134l72 -408l230 408h106l81 -408l218 408h134zM717 996l74 -88l-199 -164l-69 79z" />
    <glyph glyph-name="wacute" unicode="&#x1e83;" horiz-adv-x="768" 
d="M87 474h130l54 -238l142 238h110l53 -238l139 238h132l-316 -498l-93 338l-209 -338zM572 778l74 -88l-199 -164l-69 79z" />
    <glyph glyph-name="Ygrave" unicode="&#x1ef2;" horiz-adv-x="614" 
d="M415 276l-48 -276h-120l48 276l-164 424h126l115 -312l224 312h133zM263 906l88 74l150 -184l-84 -68z" />
    <glyph glyph-name="ygrave" unicode="&#x1ef3;" horiz-adv-x="557" 
d="M-13 -194l56 95q31 -31 70 -31q31 0 50 14t45 59l28 49l-145 482h130l97 -345l184 345h136l-332 -580q-44 -76 -87.5 -106t-102.5 -30q-33 0 -65.5 12t-48.5 24zM209 708l88 74l150 -184l-84 -68z" />
    <glyph glyph-name="endash" unicode="&#x2013;" horiz-adv-x="500" 
d="M34 194l19 110h500l-19 -110h-500z" />
    <glyph glyph-name="emdash" unicode="&#x2014;" horiz-adv-x="1000" 
d="M34 194l19 110h1000l-19 -110h-1000z" />
    <glyph glyph-name="quoteleft" unicode="&#x2018;" horiz-adv-x="186" 
d="M120 454l43 246h106l-43 -246h-106z" />
    <glyph glyph-name="quoteright" unicode="&#x2019;" horiz-adv-x="186" 
d="M120 454l43 246h106l-43 -246h-106z" />
    <glyph glyph-name="quotesinglbase" unicode="&#x201a;" horiz-adv-x="186" 
d="M15 -140l44 248h106l-44 -248h-106z" />
    <glyph glyph-name="quotedblleft" unicode="&#x201c;" horiz-adv-x="400" 
d="M139 452l44 248h106l-44 -248h-106zM313 452l44 248h106l-44 -248h-106z" />
    <glyph glyph-name="quotedblright" unicode="&#x201d;" horiz-adv-x="400" 
d="M139 452l44 248h106l-44 -248h-106zM313 452l44 248h106l-44 -248h-106z" />
    <glyph glyph-name="quotedblbase" unicode="&#x201e;" horiz-adv-x="400" 
d="M35 -140l44 248h106l-44 -248h-106zM209 -140l44 248h106l-44 -248h-106z" />
    <glyph glyph-name="dagger" unicode="&#x2020;" horiz-adv-x="520" 
d="M135 412l20 114h136l31 174h120l-31 -174h138l-20 -114h-138l-87 -492h-120l87 492h-136z" />
    <glyph glyph-name="daggerdbl" unicode="&#x2021;" horiz-adv-x="520" 
d="M79 94l20 114h136l36 204h-136l20 114h136l31 174h120l-31 -174h138l-20 -114h-138l-36 -204h138l-20 -114h-138l-31 -174h-120l31 174h-136z" />
    <glyph glyph-name="bullet" unicode="&#x2022;" horiz-adv-x="500" 
d="M167 350q0 59 42.5 101.5t101.5 42.5t101.5 -42.5t42.5 -101.5t-42.5 -101.5t-101.5 -42.5t-101.5 42.5t-42.5 101.5z" />
    <glyph glyph-name="ellipsis" unicode="&#x2026;" horiz-adv-x="1000" 
d="M111 67q0 33 23 56t56 23t56 -23t23 -56t-23 -56t-56 -23t-56 23t-23 56zM431 67q0 33 23 56t56 23t56 -23t23 -56t-23 -56t-56 -23t-56 23t-23 56zM751 67q0 33 23 56t56 23t56 -23t23 -56t-23 -56t-56 -23t-56 23t-23 56z" />
    <glyph glyph-name="perthousand" unicode="&#x2030;" horiz-adv-x="1072" 
d="M577 306q71 0 110 -42t39 -102q0 -68 -56 -121t-121 -53q-71 0 -110 42t-39 102q0 68 56 121t121 53zM549 65q41 0 69 28.5t28 68.5q0 30 -19 48.5t-50 18.5q-42 0 -69.5 -28.5t-27.5 -68.5q0 -30 18.5 -48.5t50.5 -18.5zM285 712q71 0 110 -42t39 -102q0 -68 -56 -121
t-121 -53q-71 0 -110 42t-39 102q0 68 56 121t121 53zM257 471q41 0 69 28.5t28 68.5q0 30 -19 48.5t-50 18.5q-42 0 -69.5 -28.5t-27.5 -68.5q0 -30 18.5 -48.5t50.5 -18.5zM937 306q71 0 110 -42t39 -102q0 -68 -56 -121t-121 -53q-71 0 -110 42t-39 102q0 68 56 121
t121 53zM909 65q41 0 69 28.5t28 68.5q0 30 -19 48.5t-50 18.5q-42 0 -69.5 -28.5t-27.5 -68.5q0 -30 18.5 -48.5t50.5 -18.5zM84 9l597 724l51 -44l-598 -724z" />
    <glyph glyph-name="guilsinglleft" unicode="&#x2039;" horiz-adv-x="322" 
d="M46 250l215 236l74 -74l-159 -169l108 -178l-91 -62z" />
    <glyph glyph-name="guilsinglright" unicode="&#x203a;" horiz-adv-x="322" 
d="M215 481l147 -241l-212 -237l-77 77l161 171l-108 168z" />
    <glyph glyph-name="fraction" unicode="&#x2044;" horiz-adv-x="168" 
d="M-178 9l597 724l51 -44l-598 -724z" />
    <glyph glyph-name="zerosuperior" unicode="&#x2070;" horiz-adv-x="386" 
d="M234 806q75 0 110.5 -44t35.5 -117q0 -106 -51 -181.5t-139 -75.5q-75 0 -110.5 44t-35.5 117q0 106 51 181.5t139 75.5zM190 473q47 0 73 56.5t26 115.5q0 77 -55 77q-48 0 -73.5 -56t-25.5 -117q0 -76 55 -76z" />
    <glyph glyph-name="foursuperior" unicode="&#x2074;" horiz-adv-x="386" 
d="M1 472l266 328h98l-44 -250h50l-14 -78h-50l-14 -78h-86l14 78h-220zM151 550h84l23 134z" />
    <glyph glyph-name="fivesuperior" unicode="&#x2075;" horiz-adv-x="383" 
d="M355 540q0 -67 -50 -109.5t-118 -42.5q-33 0 -60.5 9t-42.5 22t-26 25.5t-14 21.5l-4 9l70 49q1 -2 2.5 -5.5t7.5 -12.5t14 -16t22 -12.5t31 -5.5q29 0 52.5 19t23.5 49q0 24 -19 38.5t-55 14.5q-25 0 -53 -9.5t-44 -19.5l-15 -10l42 246h265l-15 -84h-175l-10 -54
q15 4 45 4q56 0 91 -35t35 -91z" />
    <glyph glyph-name="sixsuperior" unicode="&#x2076;" horiz-adv-x="355" 
d="M304 780l-91 -115q53 0 90 -36t37 -90q0 -63 -51 -107t-111 -44q-73 0 -109 39.5t-36 91.5q0 49 31 95q11 17 54 72t80 101l38 46zM192 587q-28 0 -50 -19.5t-22 -48.5q0 -22 16.5 -35t41.5 -13q28 0 49.5 19t21.5 49q0 22 -16 35t-41 13z" />
    <glyph glyph-name="sevensuperior" unicode="&#x2077;" horiz-adv-x="333" 
d="M56 716l15 84h313l-294 -423l-71 49l204 290h-167z" />
    <glyph glyph-name="eightsuperior" unicode="&#x2078;" horiz-adv-x="368" 
d="M226 806q68 0 101.5 -35t33.5 -82q0 -34 -22 -56.5t-42 -30.5q5 -2 12 -6.5t19 -25t12 -47.5q0 -63 -47.5 -99t-112.5 -36q-74 0 -109 34.5t-35 85.5q0 37 25 64.5t52 33.5q-38 30 -38 72q0 57 46 92.5t105 35.5zM180 468q31 0 51 15t20 40q0 18 -14.5 28.5t-39.5 10.5
q-30 0 -51 -15t-21 -39q0 -18 14.5 -29t40.5 -11zM226 726q-25 0 -43.5 -12t-18.5 -36q0 -18 13 -28t33 -10q26 0 44 12.5t18 36.5q0 18 -13 27.5t-33 9.5z" />
    <glyph glyph-name="ninesuperior" unicode="&#x2079;" horiz-adv-x="355" 
d="M94 421l87 108q-54 0 -91 36t-37 90q0 62 51 106.5t111 44.5q71 0 109 -38t38 -93q0 -41 -35 -93q-11 -17 -52.5 -70.5t-76.5 -98.5l-36 -45zM201 607q28 0 50 19.5t22 48.5q0 22 -16 35t-42 13q-27 0 -49 -19.5t-22 -48.5q0 -22 16 -35t41 -13z" />
    <glyph glyph-name="zeroinferior" unicode="&#x2080;" horiz-adv-x="386" 
d="M234 319q75 0 110.5 -44t35.5 -117q0 -106 -51 -181.5t-139 -75.5q-75 0 -110.5 44t-35.5 117q0 106 51 181.5t139 75.5zM190 -14q47 0 73 56.5t26 115.5q0 77 -55 77q-48 0 -73.5 -56t-25.5 -117q0 -76 55 -76z" />
    <glyph glyph-name="oneinferior" unicode="&#x2081;" horiz-adv-x="323" 
d="M34 187l174 126h98l-72 -406h-93l51 289l-111 -80z" />
    <glyph glyph-name="twoinferior" unicode="&#x2082;" horiz-adv-x="362" 
d="M15 -93l185 184l14 14t18 19t14 18.5t13 23.5t4 22q0 20 -15.5 33t-40.5 13q-27 0 -46 -15t-25 -29l-5 -15l-77 30l5 12.5t16 27t29 34.5t43.5 27.5t59.5 12.5q76 0 112 -39.5t36 -91.5q0 -55 -47 -106l-85 -93h111l-15 -82h-304z" />
    <glyph glyph-name="threeinferior" unicode="&#x2083;" horiz-adv-x="368" 
d="M264 199q0 17 -14 28t-38 11t-41.5 -11t-23.5 -21l-6 -11l-69 41q2 3 5.5 9t16 20t27.5 25t39.5 20t51.5 9q63 0 103.5 -30.5t40.5 -89.5q0 -25 -17 -51t-43 -35q5 -2 12 -6t18.5 -23t11.5 -47q0 -63 -50.5 -99.5t-113.5 -36.5q-32 0 -59 10t-42 24t-25.5 28t-14.5 24
l-4 10l69 41q2 -6 6.5 -15.5t24 -25t45.5 -15.5q27 0 50 14t23 41q0 40 -64 40h-22l12 70h15q30 0 53 12t23 40z" />
    <glyph glyph-name="fourinferior" unicode="&#x2084;" horiz-adv-x="386" 
d="M1 -15l266 328h98l-44 -250h50l-14 -78h-50l-14 -78h-86l14 78h-220zM151 63h84l23 134z" />
    <glyph glyph-name="fiveinferior" unicode="&#x2085;" horiz-adv-x="383" 
d="M355 53q0 -67 -50 -109.5t-118 -42.5q-33 0 -60.5 9t-42.5 21.5t-26 25.5t-14 22l-4 9l70 49q1 -2 2.5 -5.5t7.5 -12.5t14 -16t22 -12.5t31 -5.5q29 0 52.5 19t23.5 49q0 24 -19 38.5t-55 14.5q-25 0 -53 -10t-44 -20l-15 -9l42 246h265l-15 -84h-175l-10 -54q15 4 45 4
q56 0 91 -35t35 -91z" />
    <glyph glyph-name="sixinferior" unicode="&#x2086;" horiz-adv-x="355" 
d="M304 293l-91 -115q53 0 90 -36t37 -90q0 -63 -51 -107t-111 -44q-73 0 -109 39.5t-36 91.5q0 48 31 95q11 17 54 72t80 101l38 46zM192 100q-28 0 -50 -19.5t-22 -48.5q0 -22 16.5 -35t41.5 -13q28 0 49.5 19t21.5 49q0 22 -16 35t-41 13z" />
    <glyph glyph-name="seveninferior" unicode="&#x2087;" horiz-adv-x="333" 
d="M56 229l15 84h313l-294 -423l-71 49l204 290h-167z" />
    <glyph glyph-name="eightinferior" unicode="&#x2088;" horiz-adv-x="368" 
d="M226 319q68 0 101.5 -35t33.5 -82q0 -34 -22 -56.5t-42 -30.5q5 -2 12 -6.5t19 -25t12 -47.5q0 -63 -47.5 -99t-112.5 -36q-74 0 -109 34.5t-35 85.5q0 37 25 64.5t52 33.5q-38 30 -38 72q0 57 46 92.5t105 35.5zM180 -19q31 0 51 15t20 40q0 18 -14.5 28.5t-39.5 10.5
q-30 0 -51 -15t-21 -39q0 -18 14.5 -29t40.5 -11zM226 239q-25 0 -43.5 -12t-18.5 -36q0 -18 13 -28t33 -10q26 0 44 12.5t18 36.5q0 18 -13 27.5t-33 9.5z" />
    <glyph glyph-name="nineinferior" unicode="&#x2089;" horiz-adv-x="355" 
d="M94 -66l87 108q-54 0 -91 36t-37 90q0 62 51 106.5t111 44.5q71 0 109 -38t38 -93q0 -40 -35 -93q-11 -17 -52.5 -70.5t-76.5 -98.5l-36 -45zM201 120q28 0 50 19.5t22 48.5q0 22 -16 35t-42 13q-27 0 -49 -19.5t-22 -48.5q0 -22 16 -35t41 -13z" />
    <glyph glyph-name="Euro" unicode="&#x20ac;" 
d="M89 385l15 84h85q45 111 139 177t213 66q36 0 70.5 -6t50.5 -12l17 -6l-40 -103q-43 17 -98 17q-76 0 -138 -37t-89 -96h212l-15 -84h-226q-6 -17 -9 -35l-5 -35h228l-15 -84h-213q7 -55 55.5 -93t125.5 -38q24 0 46.5 3t33.5 7l10 3l30 -101q-54 -24 -130 -24
q-123 0 -200 66t-91 177h-89l15 84h76q1 11 5 35q4 21 7 35h-76z" />
    <glyph glyph-name="numero" unicode="&#x2116;" horiz-adv-x="1110" 
d="M773 228l18 106h314l-18 -106h-314zM997 712q83 0 122.5 -49t39.5 -110q0 -73 -55 -128t-132 -55q-83 0 -122 48.5t-39 109.5q0 74 54 129t132 55zM997 612q-38 0 -61 -24t-23 -60q0 -25 16.5 -41.5t42.5 -16.5q37 0 61 24t24 59q0 25 -17 42t-43 17zM197 700h108
l264 -490l86 490h120l-123 -700h-108l-265 489l-85 -489h-120z" />
    <glyph glyph-name="trademark" unicode="&#x2122;" horiz-adv-x="805" 
d="M182 330l50 287h-103l15 83h293l-15 -83h-103l-50 -287h-87zM482 700h79l82 -184l147 184h86l-65 -370h-87l37 211l-137 -168l-82 173l-38 -216h-87z" />
    <glyph glyph-name="onethird" unicode="&#x2153;" horiz-adv-x="830" 
d="M135 9l597 724l51 -44l-598 -724zM745 292q0 17 -14 28t-38 11t-41.5 -10.5t-23.5 -21.5l-6 -11l-69 41q2 3 5.5 9t16 20t27.5 25t39.5 20t51.5 9q63 0 103.5 -30.5t40.5 -89.5q0 -25 -17 -51t-43 -35q5 -2 12 -6t18.5 -23t11.5 -47q0 -63 -50.5 -99.5t-113.5 -36.5
q-32 0 -59 10t-42 24t-25.5 28t-14.5 24l-4 10l69 41q2 -6 6.5 -15.5t24 -25t45.5 -15.5q27 0 50 14t23 41q0 40 -64 40h-22l12 70h15q30 0 53 12t23 40zM110 574l174 126h98l-72 -406h-93l51 289l-111 -80z" />
    <glyph glyph-name="twothirds" unicode="&#x2154;" horiz-adv-x="817" 
d="M73 294l185 184l14 14t18 19t14 18.5t13 23.5t4 22q0 20 -15.5 33t-40.5 13q-17 0 -31 -6t-22 -14.5t-13.5 -17.5t-7.5 -15l-2 -6l-77 30l5 12.5t16 27t29 34.5t43.5 27.5t59.5 12.5q76 0 112 -39.5t36 -91.5q0 -55 -47 -106l-85 -93h111l-15 -82h-304zM748 292
q0 17 -14 28t-38 11t-41.5 -10.5t-23.5 -21.5l-6 -11l-69 41q2 3 5.5 9t16 20t27.5 25t39.5 20t51.5 9q63 0 103.5 -30.5t40.5 -89.5q0 -25 -17 -51t-43 -35q5 -2 12 -6t18.5 -23t11.5 -47q0 -63 -50.5 -99.5t-113.5 -36.5q-32 0 -59 10t-42 24t-25.5 28t-14.5 24l-4 10
l69 41q2 -6 6.5 -15.5t24 -25t45.5 -15.5q27 0 50 14t23 41q0 40 -64 40h-22l12 70h15q30 0 53 12t23 40zM169 9l597 724l51 -44l-598 -724z" />
    <glyph glyph-name="oneeighth" unicode="&#x215b;" horiz-adv-x="830" 
d="M110 574l174 126h98l-72 -406h-93l51 289l-111 -80zM138 9l597 724l51 -44l-598 -724zM698 412q68 0 101.5 -35t33.5 -82q0 -34 -22 -56.5t-42 -30.5q5 -2 12 -6.5t19 -25t12 -47.5q0 -63 -47.5 -99t-112.5 -36q-74 0 -109 34.5t-35 85.5q0 37 25 64.5t52 33.5
q-38 30 -38 72q0 57 46 92.5t105 35.5zM652 74q31 0 51 15t20 40q0 18 -14.5 28.5t-39.5 10.5q-30 0 -51 -15t-21 -39q0 -18 14.5 -29t40.5 -11zM698 332q-25 0 -43.5 -12t-18.5 -36q0 -18 13 -28t33 -10q26 0 44 12.5t18 36.5q0 18 -13 27.5t-33 9.5z" />
    <glyph glyph-name="threeeighths" unicode="&#x215c;" horiz-adv-x="830" 
d="M155 9l597 724l51 -44l-598 -724zM326 586q0 17 -14 28t-38 11t-41.5 -10.5t-23.5 -21.5l-6 -11l-69 41q2 3 5.5 9t16 20t27.5 25t39.5 20t51.5 9q63 0 103.5 -30.5t40.5 -89.5q0 -25 -17 -51t-43 -35q5 -2 12 -6t18.5 -23t11.5 -47q0 -63 -50.5 -99.5t-113.5 -36.5
q-32 0 -59 10t-42 24t-25.5 28t-14.5 24l-4 10l69 41q2 -6 6.5 -15.5t24 -25t45.5 -15.5q27 0 50 14t23 41q0 40 -64 40h-22l12 70h15q30 0 53 12t23 40zM710 412q68 0 101.5 -35t33.5 -82q0 -34 -22 -56.5t-42 -30.5q5 -2 12 -6.5t19 -25t12 -47.5q0 -63 -47.5 -99
t-112.5 -36q-74 0 -109 34.5t-35 85.5q0 37 25 64.5t52 33.5q-38 30 -38 72q0 57 46 92.5t105 35.5zM664 74q31 0 51 15t20 40q0 18 -14.5 28.5t-39.5 10.5q-30 0 -51 -15t-21 -39q0 -18 14.5 -29t40.5 -11zM710 332q-25 0 -43.5 -12t-18.5 -36q0 -18 13 -28t33 -10
q26 0 44 12.5t18 36.5q0 18 -13 27.5t-33 9.5z" />
    <glyph glyph-name="fiveeighths" unicode="&#x215d;" horiz-adv-x="830" 
d="M409 440q0 -67 -50 -109.5t-118 -42.5q-33 0 -60.5 9t-42.5 22t-26 25.5t-14 21.5l-4 9l70 49q1 -2 2.5 -5.5t7.5 -12.5t14 -16t22 -12.5t31 -5.5q29 0 52.5 19t23.5 49q0 24 -19 38.5t-55 14.5q-25 0 -53 -9.5t-44 -19.5l-15 -10l42 246h265l-15 -84h-175l-10 -54
q15 4 45 4q56 0 91 -35t35 -91zM149 9l597 724l51 -44l-598 -724zM710 412q68 0 101.5 -35t33.5 -82q0 -34 -22 -56.5t-42 -30.5q5 -2 12 -6.5t19 -25t12 -47.5q0 -63 -47.5 -99t-112.5 -36q-74 0 -109 34.5t-35 85.5q0 37 25 64.5t52 33.5q-38 30 -38 72q0 57 46 92.5
t105 35.5zM664 74q31 0 51 15t20 40q0 18 -14.5 28.5t-39.5 10.5q-30 0 -51 -15t-21 -39q0 -18 14.5 -29t40.5 -11zM710 332q-25 0 -43.5 -12t-18.5 -36q0 -18 13 -28t33 -10q26 0 44 12.5t18 36.5q0 18 -13 27.5t-33 9.5z" />
    <glyph glyph-name="seveneighths" unicode="&#x215e;" horiz-adv-x="830" 
d="M170 616l15 84h313l-294 -423l-71 49l204 290h-167zM114 9l597 724l51 -44l-598 -724zM704 412q68 0 101.5 -35t33.5 -82q0 -34 -22 -56.5t-42 -30.5q5 -2 12 -6.5t19 -25t12 -47.5q0 -63 -47.5 -99t-112.5 -36q-74 0 -109 34.5t-35 85.5q0 37 25 64.5t52 33.5
q-38 30 -38 72q0 57 46 92.5t105 35.5zM658 74q31 0 51 15t20 40q0 18 -14.5 28.5t-39.5 10.5q-30 0 -51 -15t-21 -39q0 -18 14.5 -29t40.5 -11zM704 332q-25 0 -43.5 -12t-18.5 -36q0 -18 13 -28t33 -10q26 0 44 12.5t18 36.5q0 18 -13 27.5t-33 9.5z" />
    <glyph glyph-name="arrowleft" unicode="&#x2190;" horiz-adv-x="760" 
d="M785 304l-19 -110h-538l112 -157l-85 -69l-194 281l284 272l69 -79l-155 -138h526z" />
    <glyph glyph-name="arrowup" unicode="&#x2191;" horiz-adv-x="598" 
d="M354 0h-110l91 521l-157 -118l-59 82l305 229l226 -231l-80 -75l-122 129z" />
    <glyph glyph-name="arrowright" unicode="&#x2192;" horiz-adv-x="760" 
d="M62 194l19 110h537l-111 159l84 67l194 -281l-286 -274l-69 79l154 140h-522z" />
    <glyph glyph-name="arrowdown" unicode="&#x2193;" horiz-adv-x="598" 
d="M366 700h110l-91 -521l155 116l60 -82l-304 -227l-226 231l80 76l122 -130z" />
    <glyph glyph-name="uni21B3" unicode="&#x21b3;" horiz-adv-x="796" 
d="M98 194l89 506h115l-70 -396h422l-111 159l84 67l194 -281l-286 -274l-69 79l154 140h-522z" />
    <glyph glyph-name="carriagereturn" unicode="&#x21b5;" horiz-adv-x="796" 
d="M855 700l-89 -506h-538l112 -157l-85 -69l-194 281l284 272l69 -79l-155 -138h411l70 396h115z" />
    <glyph glyph-name="partialdiff" unicode="&#x2202;" horiz-adv-x="544" 
d="M337 486q76 0 120 -33q-12 39 -42.5 71t-66 50.5t-69 31.5t-55.5 18l-22 4l23 105q7 -1 20 -2.5t50.5 -11.5t71 -24.5t75 -43t71 -65t50 -94t20.5 -126.5q0 -70 -17 -135t-51 -120.5t-92.5 -89t-133.5 -33.5q-102 0 -167 65.5t-65 156.5q0 118 82 197t198 79zM289 100
q65 0 110.5 49.5t45.5 114.5q0 48 -28.5 79t-79.5 31q-65 0 -110.5 -49.5t-45.5 -114.5q0 -48 28.5 -79t79.5 -31z" />
    <glyph glyph-name="product" unicode="&#x220f;" horiz-adv-x="707" 
d="M758 700l-164 -930h-120l144 816h-323l-144 -816h-120l164 930h563z" />
    <glyph glyph-name="summation" unicode="&#x2211;" horiz-adv-x="738" 
d="M-16 -230l406 466l-241 464h664l-20 -114h-445l188 -359l-300 -343h433l-20 -114h-665z" />
    <glyph glyph-name="minus" unicode="&#x2212;" horiz-adv-x="520" 
d="M68 190l20 112h450l-20 -112h-450z" />
    <glyph glyph-name="radical" unicode="&#x221a;" horiz-adv-x="625" 
d="M356 257l348 703h121l-489 -980l-132 380h-111l20 114h169z" />
    <glyph glyph-name="infinity" unicode="&#x221e;" horiz-adv-x="838" 
d="M652 151q47 0 83.5 35.5t36.5 84.5q0 36 -24.5 59t-61.5 23q-18 0 -37 -6.5t-40.5 -22t-32 -24t-32.5 -30.5l-23 -21q1 -1 7.5 -10t9 -12.5t10 -12.5t11.5 -13l12 -12t14 -12.5t14.5 -10t16.5 -8.5t17.5 -5t18.5 -2zM274 353q-47 0 -83.5 -35.5t-36.5 -84.5
q0 -36 24.5 -59t61.5 -23q18 0 37 6.5t40 21.5t32.5 24t32.5 28.5t23 21.5q-1 1 -13.5 17.5t-17.5 23t-19 20.5t-24.5 20.5t-26 12.5t-30.5 6zM66 217q0 93 61.5 158.5t156.5 65.5q37 0 73.5 -17t58.5 -46l55 -67l75 68q73 62 151 62q67 0 115 -44.5t48 -110.5
q0 -93 -62 -158t-156 -65q-37 0 -73.5 17t-58.5 46l-55 65l-75 -66q-73 -62 -151 -62q-67 0 -115 44t-48 110z" />
    <glyph glyph-name="integral" unicode="&#x222b;" horiz-adv-x="418" 
d="M373 592l-117 -663q-14 -83 -66 -127t-120 -44q-27 0 -52 7t-37 15l-12 7l49 99q26 -16 51 -16q56 0 68 64l117 665q14 82 66 125.5t120 43.5q27 0 53.5 -7.5t39.5 -14.5l13 -8l-56 -98q-25 16 -50 16q-56 0 -67 -64z" />
    <glyph glyph-name="approxequal" unicode="&#x2248;" horiz-adv-x="520" 
d="M175 284l-71 59q1 3 4 9t14 21t24.5 26t35.5 20.5t47 9.5q30 0 84.5 -26t71.5 -26q25 0 41.5 14.5t19.5 28.5l4 14l70 -61q-2 -4 -5 -10.5t-15.5 -24t-27 -30.5t-38 -23.5t-49.5 -10.5q-29 0 -83.5 25.5t-72.5 25.5q-20 0 -33.5 -10.5t-17.5 -20.5zM163 90l-71 59
q1 4 4 10.5t14 23t24.5 29t35.5 23t47 10.5q28 0 83 -26t73 -26q25 0 41 11.5t20 23.5l3 12l71 -61l-5 -10t-15.5 -21t-27 -27t-38 -21.5t-49.5 -9.5q-31 0 -85 25.5t-71 25.5q-20 0 -33.5 -12.5t-17.5 -25.5z" />
    <glyph glyph-name="notequal" unicode="&#x2260;" horiz-adv-x="520" 
d="M94 299l20 110h254l178 252l50 -35l-154 -217h102l-20 -110h-159l-50 -70h197l-20 -110h-254l-170 -241l-50 35l145 206h-101l20 110h159l49 70h-196z" />
    <glyph glyph-name="lessequal" unicode="&#x2264;" horiz-adv-x="520" 
d="M19 0l17 102h462l-17 -102h-462zM78 343l18 100l497 197l-22 -128l-330 -124l286 -125l-21 -118z" />
    <glyph glyph-name="greaterequal" unicode="&#x2265;" horiz-adv-x="520" 
d="M581 443l-18 -100l-496 -198l22 128l326 125l-282 124l21 118zM521 102l-17 -102h-462l17 102h462z" />
    <glyph glyph-name="lozenge" unicode="&#x25ca;" horiz-adv-x="488" 
d="M265 161l169 203l-89 180l-171 -195zM64 357l305 355l179 -355l-307 -369z" />
    <glyph glyph-name="BALLOTBOX" unicode="&#x2610;" horiz-adv-x="844" 
d="M82 0l123 700h680l-123 -700h-680zM296 595l-86 -490h460l86 490h-460z" />
    <glyph glyph-name="BALLOTBOXWITHCHECK" unicode="&#x2611;" horiz-adv-x="844" 
d="M296 595l-86 -490h460l86 490h-460zM391 166l-87 184h102l41 -91l150 275h103l-206 -368h-103zM82 0l123 700h680l-123 -700h-680z" />
    <glyph glyph-name="BALLOTBOXWITHX" unicode="&#x2612;" horiz-adv-x="844" 
d="M82 0l123 700h680l-123 -700h-680zM296 595l-86 -490h460l86 490h-460zM582 142l-106 141l-157 -142l-58 67l161 147l-110 147l74 56l105 -141l156 142l58 -67l-160 -146l111 -148z" />
    <glyph glyph-name="heart" unicode="&#x2665;" horiz-adv-x="632" 
d="M316 127l-240 239q-42 42 -42 101t42 100q41 41 100 41q58 0 99 -41q36 -36 41 -86q5 51 40 86q41 41 100 41q57 0 100 -41q42 -41 42 -100q0 -61 -42 -101z" />
    <glyph glyph-name="uni2709" unicode="&#x2709;" horiz-adv-x="844" 
d="M20 0v700h804v-700h-804zM422 190l-292 309v-394h584v394zM180 595l242 -250l240 250h-482z" />
    <glyph glyph-name="uni270E" unicode="&#x270e;" horiz-adv-x="844" 
d="M829 434l-383 -382l-371 -52l52 371l382 383zM446 207l231 231l-164 164l-231 -231zM246 117l120 15l-159 159l-15 -120z" />
    <glyph glyph-name="uni2717" unicode="&#x2717;" horiz-adv-x="844" 
d="M772 637l-268 -288l268 -287l-88 -81l-262 280l-262 -280l-88 81l268 287l-268 288l88 81l262 -281l262 281z" />
    <glyph glyph-name="uni27F5" unicode="&#x27f5;" horiz-adv-x="1000" 
d="M1021 304l-19 -110h-774l112 -157l-85 -69l-194 281l284 272l69 -79l-155 -138h762z" />
    <glyph glyph-name="uni27F6" unicode="&#x27f6;" horiz-adv-x="1000" 
d="M66 194l19 110h774l-111 159l84 67l194 -281l-286 -274l-69 79l154 140h-759z" />
    <glyph glyph-name="zero.denominator" unicode="&#xf655;" horiz-adv-x="386" 
d="M234 412q75 0 110.5 -44t35.5 -117q0 -106 -51 -181.5t-139 -75.5q-75 0 -110.5 44t-35.5 117q0 106 51 181.5t139 75.5zM190 79q47 0 73 56.5t26 115.5q0 77 -55 77q-48 0 -73.5 -56t-25.5 -117q0 -76 55 -76z" />
    <glyph glyph-name="one.denominator" unicode="&#xf656;" horiz-adv-x="323" 
d="M34 280l174 126h98l-72 -406h-93l51 289l-111 -80z" />
    <glyph glyph-name="two.denominator" unicode="&#xf657;" horiz-adv-x="362" 
d="M15 0l185 184l14 14t18 19t14 18.5t13 23.5t4 22q0 20 -15.5 33t-40.5 13q-17 0 -31 -6t-22 -14.5t-13.5 -17.5t-7.5 -15l-2 -6l-77 30l5 12.5t16 27t29 34.5t43.5 27.5t59.5 12.5q76 0 112 -39.5t36 -91.5q0 -55 -47 -106l-85 -93h111l-15 -82h-304z" />
    <glyph glyph-name="three.denominator" unicode="&#xf658;" horiz-adv-x="368" 
d="M264 292q0 17 -14 28t-38 11t-41.5 -10.5t-23.5 -21.5l-6 -11l-69 41q2 3 5.5 9t16 20t27.5 25t39.5 20t51.5 9q63 0 103.5 -30.5t40.5 -89.5q0 -25 -17 -51t-43 -35q5 -2 12 -6t18.5 -23t11.5 -47q0 -63 -50.5 -99.5t-113.5 -36.5q-32 0 -59 10t-42 24t-25.5 28
t-14.5 24l-4 10l69 41q2 -6 6.5 -15.5t24 -25t45.5 -15.5q27 0 50 14t23 41q0 40 -64 40h-22l12 70h15q30 0 53 12t23 40z" />
    <glyph glyph-name="four.denominator" unicode="&#xf659;" horiz-adv-x="386" 
d="M1 78l266 328h98l-44 -250h50l-14 -78h-50l-14 -78h-86l14 78h-220zM151 156h84l23 134z" />
    <glyph glyph-name="five.denominator" unicode="&#xf65a;" horiz-adv-x="383" 
d="M355 146q0 -67 -50 -109.5t-118 -42.5q-33 0 -60.5 9t-42.5 22t-26 25.5t-14 21.5l-4 9l70 49q1 -2 2.5 -5.5t7.5 -12.5t14 -16t22 -12.5t31 -5.5q29 0 52.5 19t23.5 49q0 24 -19 38.5t-55 14.5q-25 0 -53 -9.5t-44 -19.5l-15 -10l42 246h265l-15 -84h-175l-10 -54
q15 4 45 4q56 0 91 -35t35 -91z" />
    <glyph glyph-name="six.denominator" unicode="&#xf65b;" horiz-adv-x="355" 
d="M304 386l-91 -115q53 0 90 -36t37 -90q0 -63 -51 -107t-111 -44q-73 0 -109 39.5t-36 91.5q0 49 31 95q11 17 54 72t80 101l38 46zM192 193q-28 0 -50 -19.5t-22 -48.5q0 -22 16.5 -35t41.5 -13q28 0 49.5 19t21.5 49q0 22 -16 35t-41 13z" />
    <glyph glyph-name="seven.denominator" unicode="&#xf65c;" horiz-adv-x="333" 
d="M56 322l15 84h313l-294 -423l-71 49l204 290h-167z" />
    <glyph glyph-name="eight.denominator" unicode="&#xf65d;" horiz-adv-x="368" 
d="M226 412q68 0 101.5 -35t33.5 -82q0 -34 -22 -56.5t-42 -30.5q5 -2 12 -6.5t19 -25t12 -47.5q0 -63 -47.5 -99t-112.5 -36q-74 0 -109 34.5t-35 85.5q0 37 25 64.5t52 33.5q-38 30 -38 72q0 57 46 92.5t105 35.5zM180 74q31 0 51 15t20 40q0 18 -14.5 28.5t-39.5 10.5
q-30 0 -51 -15t-21 -39q0 -18 14.5 -29t40.5 -11zM226 332q-25 0 -43.5 -12t-18.5 -36q0 -18 13 -28t33 -10q26 0 44 12.5t18 36.5q0 18 -13 27.5t-33 9.5z" />
    <glyph glyph-name="nine.denominator" unicode="&#xf65e;" horiz-adv-x="355" 
d="M94 27l87 108q-54 0 -91 36t-37 90q0 62 51 106.5t111 44.5q71 0 109 -38t38 -93q0 -41 -35 -93q-11 -17 -52.5 -70.5t-76.5 -98.5l-36 -45zM201 213q28 0 50 19.5t22 48.5q0 22 -16 35t-42 13q-27 0 -49 -19.5t-22 -48.5q0 -22 16 -35t41 -13z" />
    <glyph glyph-name="zero.numerator" unicode="&#xf661;" horiz-adv-x="386" 
d="M234 706q75 0 110.5 -44t35.5 -117q0 -106 -51 -181.5t-139 -75.5q-75 0 -110.5 44t-35.5 117q0 106 51 181.5t139 75.5zM190 373q47 0 73 56.5t26 115.5q0 77 -55 77q-48 0 -73.5 -56t-25.5 -117q0 -76 55 -76z" />
    <glyph glyph-name="one.numerator" unicode="&#xf662;" horiz-adv-x="323" 
d="M34 574l174 126h98l-72 -406h-93l51 289l-111 -80z" />
    <glyph glyph-name="two.numerator" unicode="&#xf663;" horiz-adv-x="362" 
d="M15 294l185 184l14 14t18 19t14 18.5t13 23.5t4 22q0 20 -15.5 33t-40.5 13q-17 0 -31 -6t-22 -14.5t-13.5 -17.5t-7.5 -15l-2 -6l-77 30l5 12.5t16 27t29 34.5t43.5 27.5t59.5 12.5q76 0 112 -39.5t36 -91.5q0 -55 -47 -106l-85 -93h111l-15 -82h-304z" />
    <glyph glyph-name="three.numerator" unicode="&#xf664;" horiz-adv-x="368" 
d="M264 586q0 17 -14 28t-38 11t-41.5 -10.5t-23.5 -21.5l-6 -11l-69 41q2 3 5.5 9t16 20t27.5 25t39.5 20t51.5 9q63 0 103.5 -30.5t40.5 -89.5q0 -25 -17 -51t-43 -35q5 -2 12 -6t18.5 -23t11.5 -47q0 -63 -50.5 -99.5t-113.5 -36.5q-32 0 -59 10t-42 24t-25.5 28
t-14.5 24l-4 10l69 41q2 -6 6.5 -15.5t24 -25t45.5 -15.5q27 0 50 14t23 41q0 40 -64 40h-22l12 70h15q30 0 53 12t23 40z" />
    <glyph glyph-name="four.numerator" unicode="&#xf665;" horiz-adv-x="386" 
d="M1 372l266 328h98l-44 -250h50l-14 -78h-50l-14 -78h-86l14 78h-220zM151 450h84l23 134z" />
    <glyph glyph-name="five.numerator" unicode="&#xf666;" horiz-adv-x="383" 
d="M355 440q0 -67 -50 -109.5t-118 -42.5q-33 0 -60.5 9t-42.5 22t-26 25.5t-14 21.5l-4 9l70 49q1 -2 2.5 -5.5t7.5 -12.5t14 -16t22 -12.5t31 -5.5q29 0 52.5 19t23.5 49q0 24 -19 38.5t-55 14.5q-25 0 -53 -9.5t-44 -19.5l-15 -10l42 246h265l-15 -84h-175l-10 -54
q15 4 45 4q56 0 91 -35t35 -91z" />
    <glyph glyph-name="six.numerator" unicode="&#xf667;" horiz-adv-x="355" 
d="M304 680l-91 -115q53 0 90 -36t37 -90q0 -63 -51 -107t-111 -44q-73 0 -109 39.5t-36 91.5q0 48 31 95q11 17 54 72t80 101l38 46zM192 487q-28 0 -50 -19.5t-22 -48.5q0 -22 16.5 -35t41.5 -13q28 0 49.5 19t21.5 49q0 22 -16 35t-41 13z" />
    <glyph glyph-name="seven.numerator" unicode="&#xf668;" horiz-adv-x="333" 
d="M57 616l15 84h313l-294 -423l-71 49l204 290h-167z" />
    <glyph glyph-name="eight.numerator" unicode="&#xf669;" horiz-adv-x="368" 
d="M226 706q68 0 101.5 -35t33.5 -82q0 -34 -22 -56.5t-42 -30.5q5 -2 12 -6.5t19 -25t12 -47.5q0 -63 -47.5 -99t-112.5 -36q-74 0 -109 34.5t-35 85.5q0 37 25 64.5t52 33.5q-38 30 -38 72q0 57 46 92.5t105 35.5zM180 368q31 0 51 15t20 40q0 18 -14.5 28.5t-39.5 10.5
q-30 0 -51 -15t-21 -39q0 -18 14.5 -29t40.5 -11zM226 626q-25 0 -43.5 -12t-18.5 -36q0 -18 13 -28t33 -10q26 0 44 12.5t18 36.5q0 18 -13 27.5t-33 9.5z" />
    <glyph glyph-name="nine.numerator" unicode="&#xf66a;" horiz-adv-x="355" 
d="M94 321l87 108q-54 0 -91 36t-37 90q0 62 51 106.5t111 44.5q71 0 109 -38t38 -93q0 -41 -35 -93q-11 -17 -52.5 -70.5t-76.5 -98.5l-36 -45zM201 507q28 0 50 19.5t22 48.5q0 22 -16 35t-42 13q-27 0 -49 -19.5t-22 -48.5q0 -22 16 -35t41 -13z" />
    <glyph glyph-name="at.alt" horiz-adv-x="799" 
d="M641 191q59 0 97.5 69.5t38.5 163.5q0 108 -66.5 177t-182.5 69q-150 0 -265.5 -111t-115.5 -261q0 -114 75 -191t193 -77q96 0 182 42l15 -39q-92 -45 -197 -45q-142 0 -227 89t-85 221q0 108 58.5 203.5t157 153t209.5 57.5q127 0 210 -78.5t83 -209.5q0 -133 -59 -204
t-131 -71h-6q-34 0 -59 16.5t-28 51.5q-6 -7 -16.5 -18t-44 -29t-68.5 -18q-57 0 -90.5 34.5t-33.5 86.5q0 59 49 96t115 37q27 0 52 -8.5t37 -17.5l11 -8l3 17q2 12 2 16q0 30 -19 45.5t-48 15.5q-26 0 -55.5 -7t-45.5 -14l-16 -7l-26 74q77 36 148 36q69 0 110 -31.5
t41 -85.5q0 -13 -3 -28l-29 -160q-2 -14 -2 -19q0 -33 32 -33zM441 232q26 0 49 10t33 20l10 11l6 34q-21 23 -80 23q-37 0 -59.5 -15.5t-22.5 -41.5q0 -19 16.5 -30t47.5 -11z" />
    <glyph glyph-name="a.alt" horiz-adv-x="573" 
d="M485 474h111l-83 -474h-111l10 62q-7 -8 -19 -20.5t-52.5 -33t-84.5 -20.5q-81 0 -136 60.5t-55 159.5q0 119 82.5 198.5t186.5 79.5q27 0 52 -7t40.5 -17t27 -20.5t16.5 -17.5l5 -7zM423 171l25 142q-1 2 -3 6.5t-10.5 15t-19 18.5t-29 14.5t-40.5 6.5q-67 0 -112 -49
t-45 -117q0 -49 27.5 -78.5t79.5 -29.5q36 0 68 18t46 36z" />
    <glyph glyph-name="euro.alt" horiz-adv-x="739" 
d="M85 385l15 84h94q45 111 142 177t220 66q82 0 154 -31.5t111 -85.5l-82 -69q-29 33 -79 53.5t-104 20.5q-165 0 -237 -131h290l-15 -84h-308q-12 -34 -14 -70h268l-15 -84h-252q15 -61 66 -96t129 -35q113 0 197 86l70 -86q-120 -112 -277 -112q-125 0 -206.5 65.5
t-98.5 177.5h-95l15 84h81q3 36 12 70h-81z" />
    <glyph glyph-name="bullet.alt" horiz-adv-x="500" 
d="M101 350q0 87 61.5 148.5t148.5 61.5t148.5 -61.5t61.5 -148.5t-61.5 -148.5t-148.5 -61.5t-148.5 61.5t-61.5 148.5z" />
    <glyph glyph-name="paragraph.alt" horiz-adv-x="589" 
d="M418 598l-105 -598h-102l58 326q-62 0 -109.5 46.5t-47.5 112.5q0 103 58 159t165 56h303l-124 -700h-101l105 598h-100z" />
    <glyph glyph-name="fj" horiz-adv-x="582" 
d="M80 368l19 106h94l20 111q15 87 74.5 135t148.5 48q93 0 141.5 -50t36.5 -117l-2 -11q-4 -25 -25.5 -42t-46.5 -17t-38.5 17t-9.5 42l1 7q4 27 -16.5 45t-54.5 18q-32 0 -58 -22t-33 -63l-18 -101h97l-19 -106h-97l-64 -368h-120l64 368h-94zM182 -211l47 103
q28 -21 62 -21q18 0 32.5 4t33 27.5t25.5 65.5l89 506h120l-91 -517q-10 -55 -32 -96t-51 -62.5t-59 -31t-62 -9.5q-33 0 -61.5 8t-40.5 16z" />
    <glyph glyph-name="ft" horiz-adv-x="689" 
d="M72 368l19 106h94l21 116q16 91 71 134.5t121 43.5q32 0 59.5 -6t38.5 -12l12 -7l-51 -101q-20 14 -56 14q-23 0 -46.5 -16.5t-30.5 -55.5l-19 -110h166l23 129h120l-23 -129h143l-19 -106h-143l-35 -198q-12 -70 51 -70q12 0 25 4t20 8l7 5l34 -100q-48 -29 -117 -29
q-70 0 -112 49.5t-29 123.5l36 207h-166l-64 -368h-120l64 368h-94z" />
    <glyph glyph-name="agrave.alt" horiz-adv-x="573" 
d="M485 474h111l-83 -474h-111l10 62q-7 -8 -19 -20.5t-52.5 -33t-84.5 -20.5q-81 0 -136 60.5t-55 159.5q0 119 82.5 198.5t186.5 79.5q27 0 52 -7t40.5 -17t27 -20.5t16.5 -17.5l5 -7zM423 171l25 142q-1 2 -3 6.5t-10.5 15t-19 18.5t-29 14.5t-40.5 6.5q-67 0 -112 -49
t-45 -117q0 -49 27.5 -78.5t79.5 -29.5q36 0 68 18t46 36zM232 717l88 74l150 -184l-84 -68z" />
    <glyph glyph-name="aacute.alt" horiz-adv-x="573" 
d="M470 788l74 -88l-199 -164l-69 79zM485 474h111l-83 -474h-111l10 62q-7 -8 -19 -20.5t-52.5 -33t-84.5 -20.5q-81 0 -136 60.5t-55 159.5q0 119 82.5 198.5t186.5 79.5q27 0 52 -7t40.5 -17t27 -20.5t16.5 -17.5l5 -7zM423 171l25 142q-1 2 -3 6.5t-10.5 15t-19 18.5
t-29 14.5t-40.5 6.5q-67 0 -112 -49t-45 -117q0 -49 27.5 -78.5t79.5 -29.5q36 0 68 18t46 36z" />
    <glyph glyph-name="acircumflex.alt" horiz-adv-x="573" 
d="M485 474h111l-83 -474h-111l10 62q-7 -8 -19 -20.5t-52.5 -33t-84.5 -20.5q-81 0 -136 60.5t-55 159.5q0 119 82.5 198.5t186.5 79.5q27 0 52 -7t40.5 -17t27 -20.5t16.5 -17.5l5 -7zM423 171l25 142q-1 2 -3 6.5t-10.5 15t-19 18.5t-29 14.5t-40.5 6.5q-67 0 -112 -49
t-45 -117q0 -49 27.5 -78.5t79.5 -29.5q36 0 68 18t46 36zM184 608l199 131l181 -140l-73 -76l-114 97l-133 -95z" />
    <glyph glyph-name="atilde.alt" horiz-adv-x="573" 
d="M485 474h111l-83 -474h-111l10 62q-7 -8 -19 -20.5t-52.5 -33t-84.5 -20.5q-81 0 -136 60.5t-55 159.5q0 119 82.5 198.5t186.5 79.5q27 0 52 -7t40.5 -17t27 -20.5t16.5 -17.5l5 -7zM423 171l25 142q-1 2 -3 6.5t-10.5 15t-19 18.5t-29 14.5t-40.5 6.5q-67 0 -112 -49
t-45 -117q0 -49 27.5 -78.5t79.5 -29.5q36 0 68 18t46 36zM253 556l-81 57q2 4 5 11.5t16 25.5t28 32t41 25.5t55 11.5q32 0 77 -29t61 -29q19 0 35.5 15.5t23.5 31.5l6 16l79 -61q-2 -4 -5 -11.5t-15.5 -26t-27 -33t-39.5 -26t-54 -11.5q-32 0 -77 28.5t-62 28.5
q-19 0 -35.5 -14t-23.5 -28z" />
    <glyph glyph-name="adieresis.alt" horiz-adv-x="573" 
d="M485 474h111l-83 -474h-111l10 62q-7 -8 -19 -20.5t-52.5 -33t-84.5 -20.5q-81 0 -136 60.5t-55 159.5q0 119 82.5 198.5t186.5 79.5q27 0 52 -7t40.5 -17t27 -20.5t16.5 -17.5l5 -7zM423 171l25 142q-1 2 -3 6.5t-10.5 15t-19 18.5t-29 14.5t-40.5 6.5q-67 0 -112 -49
t-45 -117q0 -49 27.5 -78.5t79.5 -29.5q36 0 68 18t46 36zM208 631q0 33 23 56t56 23t56 -23t23 -56t-23 -56t-56 -23t-56 23t-23 56zM414 631q0 33 23 56t56 23t56 -23t23 -56t-23 -56t-56 -23t-56 23t-23 56z" />
    <glyph glyph-name="aring.alt" horiz-adv-x="573" 
d="M485 474h111l-83 -474h-111l10 62q-7 -8 -19 -20.5t-52.5 -33t-84.5 -20.5q-81 0 -136 60.5t-55 159.5q0 119 82.5 198.5t186.5 79.5q27 0 52 -7t40.5 -17t27 -20.5t16.5 -17.5l5 -7zM423 171l25 142q-1 2 -3 6.5t-10.5 15t-19 18.5t-29 14.5t-40.5 6.5q-67 0 -112 -49
t-45 -117q0 -49 27.5 -78.5t79.5 -29.5q36 0 68 18t46 36zM265 639q0 52 40.5 90.5t92.5 38.5q53 0 84 -33t31 -78q0 -52 -41 -90.5t-93 -38.5q-53 0 -83.5 33t-30.5 78zM398 702q-28 0 -46 -18t-18 -45q0 -19 12.5 -32t32.5 -13q28 0 46.5 18.5t18.5 44.5q0 20 -13 32.5
t-33 12.5z" />
    <glyph glyph-name="amacron.alt" horiz-adv-x="573" 
d="M485 474h111l-83 -474h-111l10 62q-7 -8 -19 -20.5t-52.5 -33t-84.5 -20.5q-81 0 -136 60.5t-55 159.5q0 119 82.5 198.5t186.5 79.5q27 0 52 -7t40.5 -17t27 -20.5t16.5 -17.5l5 -7zM423 171l25 142q-1 2 -3 6.5t-10.5 15t-19 18.5t-29 14.5t-40.5 6.5q-67 0 -112 -49
t-45 -117q0 -49 27.5 -78.5t79.5 -29.5q36 0 68 18t46 36zM225 567l19 108h322l-19 -108h-322z" />
    <glyph glyph-name="abreve.alt" horiz-adv-x="573" 
d="M485 474h111l-83 -474h-111l10 62q-7 -8 -19 -20.5t-52.5 -33t-84.5 -20.5q-81 0 -136 60.5t-55 159.5q0 119 82.5 198.5t186.5 79.5q27 0 52 -7t40.5 -17t27 -20.5t16.5 -17.5l5 -7zM423 171l25 142q-1 2 -3 6.5t-10.5 15t-19 18.5t-29 14.5t-40.5 6.5q-67 0 -112 -49
t-45 -117q0 -49 27.5 -78.5t79.5 -29.5q36 0 68 18t46 36zM210 712h108q-1 -3 -1.5 -8t1 -17t6.5 -21.5t18.5 -17.5t33.5 -8q32 0 53 18t26 36l5 18h108q-1 -7 -3 -18t-15 -39t-32.5 -50t-58 -39.5t-88.5 -17.5q-54 0 -90.5 17t-50 41t-19 48t-3.5 41z" />
    <glyph glyph-name="aogonek.alt" horiz-adv-x="573" 
d="M485 474h111l-83 -474q-4 -1 -11 -4t-25.5 -12t-32 -18.5t-25 -25t-11.5 -30.5q0 -37 44 -37q9 0 20 2t18 4l6 2l-16 -95q-31 -9 -58 -9q-51 0 -81.5 30t-30.5 77q0 23 10 44.5t21.5 34.5t28 25.5t23 16t11.5 6.5l9 56q-2 -3 -7 -8.5t-20 -19t-32 -24t-44 -19t-54 -8.5
q-81 0 -136 60.5t-55 159.5q0 119 82.5 198.5t186.5 79.5q27 0 51.5 -7.5t40 -18.5t27 -22t16.5 -18l5 -8zM422 166l26 147q-1 2 -3 6.5t-10.5 15t-19 18.5t-29 14.5t-40.5 6.5q-67 0 -112 -49t-45 -117q0 -49 27.5 -78.5t79.5 -29.5q34 0 65.5 16.5t46.5 33.5z" />
    <glyph glyph-name="zero.lnum_tnum" 
d="M396 712q118 0 173 -74t55 -198q0 -78 -21.5 -156.5t-60 -145t-100 -108.5t-134.5 -42q-118 0 -173.5 74.5t-55.5 199.5q0 78 22 156.5t61 144.5t100.5 107.5t133.5 41.5zM308 100q58 0 104 56t68.5 132.5t22.5 151.5q0 73 -27 116.5t-80 43.5q-59 0 -105 -55.5
t-68.5 -131.5t-22.5 -151q0 -74 27 -118t81 -44z" />
    <glyph glyph-name="one.lnum_tnum" 
d="M150 505l280 195h111l-123 -700h-120l95 540l-178 -124z" />
    <glyph glyph-name="two.lnum_tnum" 
d="M48 0l314 326q3 4 20.5 22t23.5 24.5t20 23t19.5 27.5t14 27t11.5 31.5t3 31.5q0 37 -25 62t-67 25q-29 0 -54 -10.5t-40 -25.5t-25.5 -30t-14.5 -26l-4 -10l-105 43q2 7 7 18.5t24.5 41t44.5 52t69.5 41t97.5 18.5q108 0 161.5 -59t53.5 -140q0 -96 -86 -190l-197 -209
h215l-20 -114h-461z" />
    <glyph glyph-name="three.lnum_tnum" 
d="M321 404q59 0 104.5 29t45.5 86q0 36 -27.5 58.5t-69.5 22.5q-25 0 -47 -9t-36 -21t-24.5 -24.5t-14.5 -21.5l-5 -9l-99 52q3 6 8 15.5t25 34.5t43.5 44.5t64 35t85.5 15.5q97 0 158.5 -52t61.5 -141q0 -108 -110 -166q3 -1 8 -4t18.5 -13.5t23.5 -24.5t18 -39.5t8 -55.5
q0 -105 -81 -166.5t-182 -61.5q-50 0 -93 16t-68 38.5t-43 45.5t-25 39l-7 16l99 61q1 -4 4 -11t14.5 -25t25.5 -32t39 -25t54 -11q55 0 98 30.5t43 85.5q0 78 -125 78h-35l20 110h23z" />
    <glyph glyph-name="four.lnum_tnum" 
d="M0 152l453 548h134l-77 -436h87l-20 -112h-87l-26 -152h-120l26 152h-370zM221 264h171l47 265z" />
    <glyph glyph-name="five.lnum_tnum" 
d="M588 256q0 -115 -80 -191.5t-197 -76.5q-52 0 -95.5 16t-68.5 38.5t-42.5 45.5t-23.5 39l-6 16l101 61q1 -4 4.5 -11t15 -25t25.5 -32t38 -25t52 -11q64 0 108.5 45t44.5 111q0 46 -36 75t-102 29q-42 0 -90.5 -19.5t-76.5 -38.5l-28 -20l73 418h434l-20 -114h-314
l-22 -127q30 11 90 11q102 0 159 -58t57 -156z" />
    <glyph glyph-name="six.lnum_tnum" 
d="M519 663l-162 -204q15 3 26 3q88 0 143 -62.5t55 -148.5q0 -108 -82 -185.5t-189 -77.5q-113 0 -170 62.5t-57 149.5q0 79 74 184l270 349zM351 350q-59 0 -102 -44.5t-43 -105.5q0 -46 30 -73t77 -27q59 0 102 44t43 107q0 45 -30 72t-77 27z" />
    <glyph glyph-name="seven.lnum_tnum" 
d="M167 586l20 114h500l-503 -724l-95 64l381 546h-303z" />
    <glyph glyph-name="eight.lnum_tnum" 
d="M396 712q100 0 153.5 -50.5t53.5 -134.5q0 -52 -31.5 -97t-72.5 -62q3 -1 7.5 -3.5t16.5 -13.5t21.5 -25t17 -40t7.5 -58q0 -104 -77.5 -172t-184.5 -68q-117 0 -171 57.5t-54 142.5q0 59 34.5 110t92.5 75q-6 5 -14.5 14.5t-23 40.5t-14.5 64q0 91 69 155.5t170 64.5z
M307 98q55 0 97.5 37t42.5 93q0 38 -26.5 63t-75.5 25q-55 0 -97.5 -36t-42.5 -92q0 -39 26.5 -64.5t75.5 -25.5zM363 416q47 0 83 32t36 79q0 35 -24 55t-62 20q-46 0 -83 -31.5t-37 -78.5q0 -35 24.5 -55.5t62.5 -20.5z" />
    <glyph glyph-name="nine.lnum_tnum" 
d="M187 43l158 199q-15 -3 -26 -3q-81 0 -139.5 60t-58.5 151q0 108 82 185.5t189 77.5q114 0 170.5 -62.5t56.5 -149.5q0 -79 -74 -184l-266 -344zM351 351q59 0 102 44.5t43 105.5q0 46 -30 73t-77 27q-59 0 -102 -44t-43 -107q0 -45 30 -72t77 -27z" />
    <glyph glyph-name="zero.onum_pnum" horiz-adv-x="554" 
d="M342 486q107 0 171 -65t64 -157q0 -117 -84.5 -196.5t-198.5 -79.5q-108 0 -171.5 65t-63.5 158q0 116 84.5 195.5t198.5 79.5zM294 100q66 0 113.5 48.5t47.5 115.5q0 49 -30.5 79.5t-82.5 30.5q-66 0 -113.5 -48t-47.5 -115q0 -49 30.5 -80t82.5 -31z" />
    <glyph glyph-name="one.onum_pnum" horiz-adv-x="396" 
d="M52 312l233 162h128l-83 -474h-120l56 322l-149 -105z" />
    <glyph glyph-name="two.onum_pnum" horiz-adv-x="500" 
d="M415 186l-80 -72h135l-20 -114h-408l234 200q2 2 18.5 15.5t21.5 18t18 17t17.5 21t9.5 21t5 24.5q0 24 -20 40.5t-48 16.5q-32 0 -56.5 -17.5t-33.5 -34.5l-8 -18l-100 48q2 5 6.5 14.5t21.5 32.5t37.5 40.5t56 32t76.5 14.5q86 0 137.5 -45t51.5 -124q0 -66 -72 -131z
" />
    <glyph glyph-name="three.onum_pnum" horiz-adv-x="543" 
d="M296 193q46 0 81.5 29.5t35.5 76.5q0 33 -26.5 54t-65.5 21q-25 0 -47 -8.5t-36 -21t-24 -24.5t-14 -20l-4 -9l-97 59q3 6 8 15t24.5 32.5t43 41.5t63 32.5t83.5 14.5q90 0 152 -46.5t62 -140.5q0 -50 -30 -91.5t-69 -59.5q3 -1 7.5 -3.5t16.5 -12.5t21.5 -23t17 -38
t7.5 -56q0 -99 -78 -162t-178 -63q-48 0 -89.5 15t-66 37t-42 44t-24.5 37l-7 15l95 62q1 -4 4 -10.5t14.5 -23.5t25.5 -30t38.5 -23.5t51.5 -10.5q53 0 94 30.5t41 82.5q0 74 -108 74h-46l19 104h46z" />
    <glyph glyph-name="four.onum_pnum" horiz-adv-x="574" 
d="M-4 0l431 474h133l-64 -364h73l-19 -110h-73l-35 -198h-119l35 198h-362zM231 110h146l35 201z" />
    <glyph glyph-name="five.onum_pnum" horiz-adv-x="586" 
d="M549 50q0 -113 -79 -186.5t-196 -73.5q-52 0 -95 16t-67 38.5t-40 45.5t-22 39l-5 16l102 55q1 -4 3 -10.5t12 -23.5t23 -30t36.5 -23.5t52.5 -10.5q61 0 106.5 40t45.5 108q0 48 -34.5 75.5t-82.5 27.5q-34 0 -73 -12.5t-62 -24.5t-70 -38l70 396h427l-21 -120h-307
l-19 -102q39 12 91 12q88 0 146 -55.5t58 -158.5z" />
    <glyph glyph-name="six.onum_pnum" horiz-adv-x="562" 
d="M509 663l-162 -204q15 3 26 3q88 0 143 -62.5t55 -148.5q0 -108 -82 -185.5t-189 -77.5q-113 0 -170 62.5t-57 149.5q0 79 74 184l270 349zM341 350q-59 0 -102 -44.5t-43 -105.5q0 -46 30 -73t77 -27q59 0 102 44t43 107q0 45 -30 72t-77 27z" />
    <glyph glyph-name="seven.onum_pnum" horiz-adv-x="496" 
d="M86 354l21 120h480l-474 -684l-99 69l343 495h-271z" />
    <glyph glyph-name="eight.onum_pnum" horiz-adv-x="576" 
d="M394 712q100 0 153.5 -50.5t53.5 -134.5q0 -52 -31.5 -97t-72.5 -62q3 -1 7.5 -3.5t16.5 -13.5t21.5 -25t17 -40t7.5 -58q0 -104 -77.5 -172t-184.5 -68q-117 0 -171 57.5t-54 142.5q0 59 34.5 110t92.5 75q-6 5 -14.5 14.5t-23 40.5t-14.5 64q0 91 69 155.5t170 64.5z
M305 98q55 0 97.5 37t42.5 93q0 38 -26.5 63t-75.5 25q-55 0 -97.5 -36t-42.5 -92q0 -39 26.5 -64.5t75.5 -25.5zM361 416q47 0 83 32t36 79q0 35 -24 55t-62 20q-46 0 -83 -31.5t-37 -78.5q0 -35 24.5 -55.5t62.5 -20.5z" />
    <glyph glyph-name="nine.onum_pnum" horiz-adv-x="556" 
d="M156 -156l134 170q-4 -1 -17 -1q-89 0 -144 63.5t-55 147.5q0 107 78 184.5t189 77.5q113 0 168.5 -63t55.5 -149q0 -46 -15 -82.5t-49 -84.5l-251 -331zM300 124q58 0 100.5 44t42.5 106q0 45 -29.5 72.5t-75.5 27.5q-58 0 -100.5 -44t-42.5 -106q0 -45 29.5 -72.5
t75.5 -27.5z" />
    <glyph glyph-name="zero.onum_tnum" 
d="M355 486q107 0 171 -65t64 -157q0 -117 -84.5 -196.5t-198.5 -79.5q-108 0 -171.5 65t-63.5 158q0 116 84.5 195.5t198.5 79.5zM307 100q66 0 113.5 48.5t47.5 115.5q0 49 -30.5 79.5t-82.5 30.5q-66 0 -113.5 -48t-47.5 -115q0 -49 30.5 -80t82.5 -31z" />
    <glyph glyph-name="one.onum_tnum" 
d="M109 292l260 182h119l-83 -474h-120l56 322l-172 -120z" />
    <glyph glyph-name="two.onum_tnum" 
d="M441 186l-80 -72h135l-20 -114h-408l234 200q2 2 18.5 15.5t21.5 18t18 17t17.5 21t9.5 21t5 24.5q0 24 -20 40.5t-48 16.5q-32 0 -56.5 -17.5t-33.5 -34.5l-8 -18l-100 48q2 5 6.5 14.5t21.5 32.5t37.5 40.5t56 32t76.5 14.5q86 0 137.5 -45t51.5 -124q0 -66 -72 -131z
" />
    <glyph glyph-name="three.onum_tnum" 
d="M303 193q46 0 81.5 29.5t35.5 76.5q0 33 -26.5 54t-65.5 21q-25 0 -47 -8.5t-36 -21t-24 -24.5t-14 -20l-4 -9l-97 59q3 6 8 15t24.5 32.5t43 41.5t63 32.5t83.5 14.5q90 0 152 -46.5t62 -140.5q0 -50 -30 -91.5t-69 -59.5q3 -1 7.5 -3.5t16.5 -12.5t21.5 -23t17 -38
t7.5 -56q0 -99 -78 -162t-178 -63q-48 0 -89.5 15t-66 37t-42 44t-24.5 37l-7 15l95 62q1 -4 4 -10.5t14.5 -23.5t25.5 -30t38.5 -23.5t51.5 -10.5q53 0 94 30.5t41 82.5q0 74 -108 74h-46l19 104h46z" />
    <glyph glyph-name="four.onum_tnum" 
d="M-15 0l431 474h133l-64 -364h73l-19 -110h-73l-35 -198h-119l35 198h-362zM220 110h146l35 201z" />
    <glyph glyph-name="five.onum_tnum" 
d="M548 50q0 -113 -79 -186.5t-196 -73.5q-52 0 -95 16t-67 38.5t-40 45.5t-21 39l-6 16l102 55q1 -4 3 -10.5t12 -23.5t23 -30t36.5 -23.5t52.5 -10.5q61 0 106.5 40t45.5 108q0 48 -34.5 75.5t-82.5 27.5q-34 0 -73 -12.5t-62 -24.5t-70 -38l70 396h427l-21 -120h-307
l-19 -102q39 12 91 12q88 0 146 -55.5t58 -158.5z" />
    <glyph glyph-name="six.onum_tnum" 
d="M521 663l-162 -204q15 3 26 3q88 0 143 -62.5t55 -148.5q0 -108 -82 -185.5t-189 -77.5q-113 0 -170 62.5t-57 149.5q0 79 74 184l270 349zM353 350q-59 0 -102 -44.5t-43 -105.5q0 -46 30 -73t77 -27q59 0 102 44t43 107q0 45 -30 72t-77 27z" />
    <glyph glyph-name="seven.onum_tnum" 
d="M148 354l21 120h480l-474 -684l-99 69l343 495h-271z" />
    <glyph glyph-name="eight.onum_tnum" 
d="M396 712q100 0 153.5 -50.5t53.5 -134.5q0 -52 -31.5 -97t-72.5 -62q3 -1 7.5 -3.5t16.5 -13.5t21.5 -25t17 -40t7.5 -58q0 -104 -77.5 -172t-184.5 -68q-117 0 -171 57.5t-54 142.5q0 59 34.5 110t92.5 75q-6 5 -14.5 14.5t-23 40.5t-14.5 64q0 91 69 155.5t170 64.5z
M307 98q55 0 97.5 37t42.5 93q0 38 -26.5 63t-75.5 25q-55 0 -97.5 -36t-42.5 -92q0 -39 26.5 -64.5t75.5 -25.5zM363 416q47 0 83 32t36 79q0 35 -24 55t-62 20q-46 0 -83 -31.5t-37 -78.5q0 -35 24.5 -55.5t62.5 -20.5z" />
    <glyph glyph-name="nine.onum_tnum" 
d="M168 -156l134 170q-4 -1 -17 -1q-89 0 -144 63.5t-55 147.5q0 107 78 184.5t189 77.5q113 0 168.5 -63t55.5 -149q0 -46 -15 -82.5t-49 -84.5l-251 -331zM312 124q58 0 100.5 44t42.5 106q0 45 -29.5 72.5t-75.5 27.5q-58 0 -100.5 -44t-42.5 -106q0 -45 29.5 -72.5
t75.5 -27.5z" />
    <glyph glyph-name="Circle" horiz-adv-x="844" 
d="M114 307q0 162 120 283.5t291 121.5q150 0 236.5 -92.5t86.5 -226.5q0 -162 -120 -283.5t-291 -121.5q-150 0 -236.5 92.5t-86.5 226.5zM525 598q-125 0 -210.5 -86t-85.5 -205q0 -88 58.5 -146.5t149.5 -58.5q124 0 210 86.5t86 204.5q0 88 -58.5 146.5t-149.5 58.5z
" />
    <glyph glyph-name="CircleDotted" horiz-adv-x="844" 
d="M347 350q0 58 40.5 99t98.5 41t99 -41t41 -99t-41 -98.5t-99 -40.5t-98.5 40.5t-40.5 98.5zM114 307q0 162 120 283.5t291 121.5q150 0 236.5 -92.5t86.5 -226.5q0 -162 -120 -283.5t-291 -121.5q-150 0 -236.5 92.5t-86.5 226.5zM525 598q-125 0 -210.5 -86t-85.5 -205
q0 -88 58.5 -146.5t149.5 -58.5q124 0 210 86.5t86 204.5q0 88 -58.5 146.5t-149.5 58.5z" />
    <glyph glyph-name="Trash" horiz-adv-x="844" 
d="M168 0l-133 700h774l-133 -700h-508zM354 590l7 -130h121l7 130h-135zM174 590l23 -130h114l-7 130h-130zM539 590l-7 -130h114l23 130h-130zM364 414l6 -126h104l6 126h-116zM205 414l22 -126h93l-6 126h-109zM530 414l-6 -126h92l22 126h-108zM372 242l7 -132h85l7 132
h-99zM521 242l-7 -132h71l23 132h-87zM235 242l23 -132h71l-7 132h-87z" />
    <glyph glyph-name="EuropaType" horiz-adv-x="776" 
d="M619 194l24 -64q-32 -21 -92 -38q-8 13 -24 13q-12 0 -20.5 -8.5t-8.5 -20.5t8.5 -20.5t20.5 -8.5q11 0 19.5 8t9.5 19q43 12 94 38l24 -63q-12 -7 -33 -17t-82 -26.5t-118 -16.5q-21 30 -23 84q0 41 11 67q49 0 96.5 13.5t70.5 26.5zM211 408h363q-3 63 -52 109t-130 46
q-77 0 -126 -46t-55 -109zM391 712q153 0 245.5 -101.5t92.5 -264.5q0 -4 -3 -55h-514q9 -60 61.5 -102.5t133.5 -47.5q-11 -33 -11 -69q2 -50 21 -84h-6q-160 0 -262 105t-102 257t96 257t248 105z" />
    <glyph glyph-name="period.tabular" 
d="M222 67q0 33 23 56t56 23t56 -23t23 -56t-23 -56t-56 -23t-56 23t-23 56z" />
    <glyph glyph-name="space.tabular" 
 />
    </font>
</defs>
</svg>
